<svg xmlns="http://www.w3.org/2000/svg" xmlns:xlink="http://www.w3.org/1999/xlink" width="1080" zoomAndPan="magnify" viewBox="0 0 810 809.999993" height="1080" preserveAspectRatio="xMidYMid meet" version="1.0"><defs><clipPath id="e8454cc9aa"><path d="M 195.402344 97.332031 L 611 97.332031 L 611 707.832031 L 195.402344 707.832031 Z M 195.402344 97.332031 " clip-rule="nonzero"/></clipPath></defs><g clip-path="url(#e8454cc9aa)"><path fill="#ffffff" d="M 249.894531 315.863281 C 252.355469 315.839844 251.996094 318.421875 251.996094 318.421875 L 250.25 322.410156 C 252.503906 323.769531 252.628906 325.894531 252.628906 325.894531 L 252.542969 332.863281 L 238.183594 332.777344 C 238.183594 332.777344 238.097656 328.148438 238.097656 326.066406 C 238.097656 323.984375 240.730469 322.582031 240.730469 322.582031 L 238.566406 318.101562 C 238.246094 315.917969 240.648438 316 240.648438 316 C 241.109375 313.71875 243.28125 314.65625 243.28125 314.65625 C 243.144531 312.675781 245.550781 311.96875 245.550781 311.96875 C 247.621094 312.535156 247.59375 314.632812 247.59375 314.632812 C 249.496094 313.871094 249.894531 315.863281 249.894531 315.863281 Z M 564.585938 322.230469 L 566.75 317.753906 C 567.070312 315.570312 564.667969 315.648438 564.667969 315.648438 C 564.210938 313.367188 562.035156 314.304688 562.035156 314.304688 C 562.175781 312.324219 559.769531 311.617188 559.769531 311.617188 C 557.695312 312.183594 557.722656 314.277344 557.722656 314.277344 C 555.820312 313.519531 555.425781 315.511719 555.425781 315.511719 C 552.964844 315.492188 553.324219 318.070312 553.324219 318.070312 L 555.070312 322.058594 C 552.816406 323.417969 552.6875 325.542969 552.6875 325.542969 L 552.773438 332.511719 L 567.136719 332.425781 C 567.136719 332.425781 567.222656 327.792969 567.222656 325.714844 C 567.222656 323.632812 564.585938 322.230469 564.585938 322.230469 Z M 264.90625 326.066406 C 264.90625 328.148438 264.992188 332.777344 264.992188 332.777344 L 279.355469 332.863281 L 279.441406 325.894531 C 279.441406 325.894531 279.3125 323.769531 277.058594 322.410156 L 278.804688 318.421875 C 278.804688 318.421875 279.164062 315.839844 276.703125 315.863281 C 276.703125 315.863281 276.308594 313.871094 274.40625 314.628906 C 274.40625 314.628906 274.429688 312.535156 272.359375 311.96875 C 272.359375 311.96875 269.953125 312.671875 270.089844 314.65625 C 270.089844 314.65625 267.917969 313.71875 267.457031 316 C 267.457031 316 265.054688 315.917969 265.378906 318.101562 L 267.542969 322.582031 C 267.542969 322.582031 264.90625 323.984375 264.90625 326.066406 Z M 526.003906 325.894531 L 526.089844 332.863281 L 540.453125 332.777344 C 540.453125 332.777344 540.535156 328.148438 540.535156 326.066406 C 540.535156 323.984375 537.902344 322.582031 537.902344 322.582031 L 540.066406 318.101562 C 540.386719 315.917969 537.988281 316 537.988281 316 C 537.527344 313.71875 535.351562 314.65625 535.351562 314.65625 C 535.492188 312.675781 533.082031 311.96875 533.082031 311.96875 C 531.011719 312.535156 531.039062 314.632812 531.039062 314.632812 C 529.136719 313.871094 528.742188 315.863281 528.742188 315.863281 C 526.28125 315.84375 526.640625 318.421875 526.640625 318.421875 L 528.386719 322.410156 C 526.132812 323.769531 526.003906 325.894531 526.003906 325.894531 Z M 303.109375 322.410156 L 304.855469 318.421875 C 304.855469 318.421875 305.214844 315.84375 302.753906 315.863281 C 302.753906 315.863281 302.355469 313.871094 300.457031 314.632812 C 300.457031 314.632812 300.480469 312.535156 298.410156 311.96875 C 298.410156 311.96875 296.003906 312.675781 296.140625 314.65625 C 296.140625 314.65625 293.96875 313.71875 293.507812 316 C 293.507812 316 291.105469 315.917969 291.425781 318.101562 L 293.59375 322.582031 C 293.59375 322.582031 290.957031 323.984375 290.957031 326.066406 C 290.957031 328.148438 291.042969 332.777344 291.042969 332.777344 L 305.40625 332.863281 L 305.492188 325.894531 C 305.492188 325.894531 305.363281 323.769531 303.109375 322.410156 Z M 499.953125 325.894531 L 500.039062 332.863281 L 514.402344 332.777344 C 514.402344 332.777344 514.488281 328.148438 514.488281 326.066406 C 514.488281 323.984375 511.851562 322.582031 511.851562 322.582031 L 514.015625 318.101562 C 514.335938 315.917969 511.933594 316 511.933594 316 C 511.476562 313.71875 509.300781 314.65625 509.300781 314.65625 C 509.441406 312.675781 507.035156 311.96875 507.035156 311.96875 C 504.964844 312.535156 504.988281 314.632812 504.988281 314.632812 C 503.085938 313.871094 502.691406 315.863281 502.691406 315.863281 C 500.230469 315.84375 500.589844 318.421875 500.589844 318.421875 L 502.332031 322.410156 C 500.082031 323.769531 499.953125 325.894531 499.953125 325.894531 Z M 317.234375 326.066406 C 317.234375 328.148438 317.320312 332.777344 317.320312 332.777344 L 331.679688 332.863281 L 331.765625 325.894531 C 331.765625 325.894531 331.636719 323.769531 329.386719 322.410156 L 331.132812 318.421875 C 331.132812 318.421875 331.492188 315.839844 329.027344 315.863281 C 329.027344 315.863281 328.632812 313.871094 326.730469 314.628906 C 326.730469 314.628906 326.757812 312.535156 324.683594 311.96875 C 324.683594 311.96875 322.28125 312.671875 322.417969 314.65625 C 322.417969 314.65625 320.242188 313.71875 319.785156 316 C 319.785156 316 317.382812 315.917969 317.703125 318.101562 L 319.867188 322.582031 C 319.867188 322.582031 317.234375 323.984375 317.234375 326.066406 Z M 473.675781 325.894531 L 473.765625 332.863281 L 488.125 332.777344 C 488.125 332.777344 488.210938 328.148438 488.210938 326.066406 C 488.210938 323.984375 485.574219 322.582031 485.574219 322.582031 L 487.742188 318.101562 C 488.0625 315.917969 485.660156 316 485.660156 316 C 485.199219 313.71875 483.027344 314.65625 483.027344 314.65625 C 483.164062 312.675781 480.757812 311.96875 480.757812 311.96875 C 478.6875 312.535156 478.714844 314.632812 478.714844 314.632812 C 476.8125 313.871094 476.417969 315.863281 476.417969 315.863281 C 473.953125 315.84375 474.3125 318.421875 474.3125 318.421875 L 476.058594 322.410156 C 473.808594 323.769531 473.675781 325.894531 473.675781 325.894531 Z M 343.351562 326.066406 C 343.351562 328.148438 343.4375 332.777344 343.4375 332.777344 L 357.800781 332.863281 L 357.886719 325.894531 C 357.886719 325.894531 357.757812 323.769531 355.503906 322.410156 L 357.253906 318.421875 C 357.253906 318.421875 357.613281 315.839844 355.148438 315.863281 C 355.148438 315.863281 354.753906 313.871094 352.851562 314.628906 C 352.851562 314.628906 352.878906 312.535156 350.804688 311.96875 C 350.804688 311.96875 348.398438 312.671875 348.539062 314.65625 C 348.539062 314.65625 346.367188 313.71875 345.90625 316 C 345.90625 316 343.503906 315.917969 343.820312 318.101562 L 345.988281 322.582031 C 345.988281 322.582031 343.351562 323.984375 343.351562 326.066406 Z M 447.558594 325.894531 L 447.644531 332.863281 L 462.003906 332.777344 C 462.003906 332.777344 462.089844 328.148438 462.089844 326.066406 C 462.089844 323.984375 459.457031 322.582031 459.457031 322.582031 L 461.621094 318.101562 C 461.941406 315.917969 459.539062 316 459.539062 316 C 459.078125 313.71875 456.90625 314.65625 456.90625 314.65625 C 457.046875 312.675781 454.636719 311.96875 454.636719 311.96875 C 452.566406 312.535156 452.59375 314.632812 452.59375 314.632812 C 450.691406 313.871094 450.292969 315.863281 450.292969 315.863281 C 447.832031 315.84375 448.195312 318.421875 448.195312 318.421875 L 449.9375 322.410156 C 447.683594 323.769531 447.558594 325.894531 447.558594 325.894531 Z M 369.253906 326.066406 C 369.253906 328.148438 369.339844 332.777344 369.339844 332.777344 L 383.703125 332.863281 L 383.785156 325.894531 C 383.785156 325.894531 383.660156 323.769531 381.40625 322.410156 L 383.152344 318.421875 C 383.152344 318.421875 383.511719 315.839844 381.050781 315.863281 C 381.050781 315.863281 380.652344 313.871094 378.753906 314.628906 C 378.753906 314.628906 378.78125 312.535156 376.707031 311.96875 C 376.707031 311.96875 374.300781 312.671875 374.441406 314.65625 C 374.441406 314.65625 372.265625 313.71875 371.804688 316 C 371.804688 316 369.402344 315.917969 369.726562 318.101562 L 371.890625 322.582031 C 371.890625 322.582031 369.253906 323.984375 369.253906 326.066406 Z M 421.65625 325.894531 L 421.742188 332.863281 L 436.105469 332.777344 C 436.105469 332.777344 436.191406 328.148438 436.191406 326.066406 C 436.191406 323.984375 433.554688 322.582031 433.554688 322.582031 L 435.71875 318.101562 C 436.039062 315.917969 433.636719 316 433.636719 316 C 433.179688 313.71875 431.003906 314.65625 431.003906 314.65625 C 431.144531 312.675781 428.738281 311.96875 428.738281 311.96875 C 426.664062 312.535156 426.691406 314.632812 426.691406 314.632812 C 424.789062 313.871094 424.394531 315.863281 424.394531 315.863281 C 421.929688 315.84375 422.292969 318.421875 422.292969 318.421875 L 424.035156 322.410156 C 421.785156 323.769531 421.65625 325.894531 421.65625 325.894531 Z M 395.410156 326.066406 C 395.410156 328.148438 395.496094 332.777344 395.496094 332.777344 L 409.855469 332.863281 L 409.941406 325.894531 C 409.941406 325.894531 409.816406 323.769531 407.5625 322.410156 L 409.308594 318.421875 C 409.308594 318.421875 409.667969 315.839844 407.207031 315.863281 C 407.207031 315.863281 406.808594 313.871094 404.90625 314.628906 C 404.90625 314.628906 404.933594 312.535156 402.863281 311.96875 C 402.863281 311.96875 400.457031 312.671875 400.59375 314.65625 C 400.59375 314.65625 398.421875 313.71875 397.960938 316 C 397.960938 316 395.558594 315.917969 395.878906 318.101562 L 398.042969 322.582031 C 398.042969 322.582031 395.410156 323.984375 395.410156 326.066406 Z M 279.925781 371.652344 C 279.925781 376.171875 276.84375 379.996094 272.617188 381.101562 C 271.464844 385.296875 267.726562 388.261719 263.257812 388.261719 C 258.667969 388.261719 254.824219 385.082031 253.796875 380.730469 C 249.726562 379.507812 246.84375 375.78125 246.84375 371.410156 C 246.84375 366.773438 249.992188 362.917969 254.316406 361.871094 C 255.394531 357.597656 259.21875 354.484375 263.765625 354.484375 C 268.539062 354.484375 272.53125 357.949219 273.378906 362.507812 C 277.273438 363.839844 279.925781 367.425781 279.925781 371.652344 Z M 275.03125 371.652344 C 275.03125 369.21875 273.234375 367.210938 270.75 366.890625 C 269.519531 366.722656 268.605469 365.65625 268.628906 364.414062 C 268.628906 364.328125 268.636719 364.226562 268.644531 364.121094 C 268.546875 361.488281 266.398438 359.375 263.765625 359.375 C 261.144531 359.375 259.011719 361.46875 258.902344 364.140625 C 258.855469 365.421875 257.808594 366.449219 256.527344 366.488281 C 253.835938 366.558594 251.734375 368.71875 251.734375 371.410156 C 251.734375 373.921875 253.660156 376.007812 256.214844 376.25 C 257.4375 376.367188 258.386719 377.367188 258.425781 378.597656 C 258.523438 381.277344 260.644531 383.371094 263.257812 383.371094 C 265.808594 383.371094 267.875 381.394531 268.070312 378.785156 C 268.167969 377.550781 269.152344 376.582031 270.386719 376.523438 C 272.988281 376.386719 275.03125 374.246094 275.03125 371.652344 Z M 563.175781 371.652344 C 563.175781 376.171875 560.085938 379.996094 555.859375 381.101562 C 554.703125 385.296875 550.976562 388.261719 546.507812 388.261719 C 541.910156 388.261719 538.074219 385.082031 537.050781 380.730469 C 532.96875 379.507812 530.09375 375.78125 530.09375 371.410156 C 530.09375 366.773438 533.234375 362.917969 537.558594 361.871094 C 538.640625 357.597656 542.457031 354.484375 547.007812 354.484375 C 551.789062 354.484375 555.769531 357.949219 556.621094 362.507812 C 560.515625 363.839844 563.175781 367.425781 563.175781 371.652344 Z M 558.285156 371.652344 C 558.285156 369.21875 556.476562 367.210938 553.988281 366.890625 C 552.757812 366.722656 551.847656 365.65625 551.867188 364.414062 C 551.867188 364.328125 551.875 364.226562 551.898438 364.121094 C 551.789062 361.488281 549.636719 359.375 547.007812 359.375 C 544.386719 359.375 542.253906 361.46875 542.144531 364.140625 C 542.097656 365.421875 541.058594 366.449219 539.765625 366.488281 C 537.085938 366.558594 534.984375 368.71875 534.984375 371.410156 C 534.984375 373.921875 536.914062 376.007812 539.464844 376.25 C 540.6875 376.367188 541.628906 377.367188 541.675781 378.597656 C 541.765625 381.277344 543.886719 383.371094 546.507812 383.371094 C 549.050781 383.371094 551.125 381.394531 551.320312 378.785156 C 551.410156 377.550781 552.398438 376.582031 553.628906 376.523438 C 556.238281 376.386719 558.285156 374.246094 558.285156 371.652344 Z M 610.902344 291.148438 L 610.902344 514.035156 C 610.902344 545.074219 603.046875 574.4375 589.085938 600.476562 C 588.292969 601.953125 587.484375 603.429688 586.644531 604.890625 C 585.847656 606.289062 585.027344 607.679688 584.195312 609.054688 C 580.585938 615.035156 576.644531 620.804688 572.398438 626.359375 C 571.773438 627.183594 571.136719 627.996094 570.492188 628.808594 C 570.316406 629.042969 570.128906 629.265625 569.953125 629.492188 C 569.328125 630.28125 568.691406 631.066406 568.046875 631.847656 C 567.871094 632.0625 567.695312 632.277344 567.507812 632.492188 C 566.882812 633.257812 566.246094 634.011719 565.601562 634.761719 C 554.226562 648.066406 541.007812 659.953125 526.328125 670.066406 C 525.515625 670.621094 524.703125 671.171875 523.882812 671.726562 C 523.078125 672.265625 522.257812 672.804688 521.4375 673.332031 C 514.109375 678.085938 506.441406 682.410156 498.480469 686.253906 C 497.65625 686.65625 496.835938 687.046875 496.015625 687.429688 C 495.191406 687.808594 494.371094 688.191406 493.539062 688.5625 C 466.246094 700.917969 435.640625 707.84375 403.339844 707.84375 C 371.460938 707.84375 341.226562 701.09375 314.210938 689.050781 C 313.386719 688.679688 312.566406 688.308594 311.746094 687.925781 C 310.914062 687.554688 310.089844 687.164062 309.269531 686.773438 C 300.75 682.714844 292.582031 678.125 284.796875 673.046875 C 283.972656 672.511719 283.152344 671.972656 282.351562 671.425781 C 281.527344 670.878906 280.714844 670.320312 279.90625 669.761719 C 265.398438 659.714844 252.339844 647.9375 241.082031 634.773438 C 240.796875 634.441406 240.515625 634.109375 240.230469 633.773438 C 239.691406 633.136719 239.152344 632.492188 238.636719 631.859375 C 238.34375 631.503906 238.058594 631.164062 237.785156 630.8125 C 237.246094 630.15625 236.71875 629.492188 236.191406 628.824219 C 235.90625 628.464844 235.621094 628.101562 235.339844 627.738281 C 230.683594 621.773438 226.386719 615.542969 222.488281 609.078125 C 221.644531 607.707031 220.832031 606.316406 220.039062 604.917969 C 219.199219 603.460938 218.386719 601.984375 217.59375 600.507812 C 203.625 574.457031 195.761719 545.082031 195.761719 514.035156 L 195.761719 291.148438 C 195.761719 263.828125 201.859375 237.816406 212.832031 214.21875 C 212.675781 213.613281 212.691406 212.957031 212.933594 212.328125 C 213.238281 211.542969 213.832031 210.953125 214.542969 210.628906 C 247.347656 143.839844 319.632812 97.332031 403.339844 97.332031 C 517.789062 97.332031 610.902344 184.273438 610.902344 291.148438 Z M 606.011719 291.148438 C 606.011719 258.820312 597.25 228.367188 581.832031 201.734375 C 581.53125 202.199219 581.109375 202.589844 580.574219 202.84375 L 434.59375 271.730469 C 434.914062 272.144531 435.113281 272.65625 435.113281 273.21875 L 435.113281 278.402344 L 445.003906 278.402344 C 446.351562 278.402344 447.449219 279.5 447.449219 280.847656 L 447.449219 293.289062 C 449.410156 291.566406 451.933594 290.527344 454.691406 290.527344 C 460.210938 290.527344 464.808594 294.699219 465.769531 300.1875 L 466.355469 300.1875 C 466.933594 300.1875 467.460938 300.382812 467.871094 300.714844 C 468.292969 300.382812 468.8125 300.1875 469.378906 300.1875 L 469.871094 300.1875 C 470.820312 294.6875 475.421875 290.496094 480.957031 290.496094 C 486.488281 290.496094 491.09375 294.6875 492.042969 300.1875 L 492.484375 300.1875 C 493.089844 300.1875 493.636719 300.402344 494.066406 300.773438 C 494.496094 300.402344 495.046875 300.1875 495.652344 300.1875 L 496.316406 300.1875 C 496.699219 297.894531 497.714844 295.832031 499.171875 294.199219 L 499.171875 281.671875 C 499.171875 280.320312 500.269531 279.226562 501.617188 279.226562 L 504.347656 279.226562 C 507.714844 269.371094 515.769531 261.882812 525.636719 259.804688 C 525.636719 259.804688 525.636719 259.800781 525.636719 259.796875 C 525.359375 259.140625 525.210938 258.429688 525.210938 257.675781 C 525.210938 255.390625 526.578125 253.40625 528.542969 252.503906 L 528.378906 243.019531 C 528.355469 241.671875 529.429688 240.558594 530.78125 240.535156 C 530.796875 240.535156 530.808594 240.535156 530.824219 240.535156 C 532.15625 240.535156 533.246094 241.601562 533.269531 242.9375 L 533.4375 252.527344 C 533.4375 252.527344 533.4375 252.53125 533.4375 252.53125 C 535.375 253.441406 536.714844 255.40625 536.714844 257.675781 C 536.714844 258.390625 536.578125 259.074219 536.335938 259.710938 C 536.332031 259.714844 536.332031 259.71875 536.328125 259.722656 C 546.398438 261.667969 554.640625 269.226562 558.054688 279.226562 L 560.085938 279.226562 C 561.433594 279.226562 562.53125 280.320312 562.53125 281.671875 L 562.53125 291.175781 C 564.210938 291.523438 565.746094 292.273438 567.070312 293.3125 L 567.070312 277.679688 C 567.003906 277.460938 566.957031 277.230469 566.957031 276.988281 C 566.957031 273.378906 568.863281 270.226562 571.699219 268.492188 C 571.699219 268.492188 571.699219 268.488281 571.695312 268.484375 C 571.480469 267.929688 571.363281 267.320312 571.363281 266.695312 C 571.363281 264.757812 572.457031 263.054688 574.0625 262.183594 C 574.066406 262.183594 574.066406 262.183594 574.070312 262.183594 L 574.199219 254.558594 C 574.226562 253.222656 575.3125 252.15625 576.644531 252.15625 C 576.660156 252.15625 576.671875 252.15625 576.6875 252.15625 C 578.039062 252.179688 579.113281 253.296875 579.089844 254.644531 L 578.957031 262.175781 C 580.589844 263.039062 581.691406 264.738281 581.691406 266.695312 C 581.691406 267.273438 581.59375 267.828125 581.417969 268.335938 C 584.089844 269.859375 585.984375 272.625 586.347656 275.859375 L 586.359375 275.871094 C 586.710938 276.300781 586.925781 276.847656 586.925781 277.445312 L 586.925781 335.871094 L 588.394531 335.859375 C 588.398438 335.859375 588.402344 335.859375 588.410156 335.859375 C 589.75 335.859375 590.84375 336.945312 590.855469 338.289062 C 590.859375 339.40625 590.113281 340.347656 589.085938 340.644531 L 589.085938 443.390625 C 589.996094 443.734375 590.652344 444.625 590.660156 445.660156 C 590.667969 446.707031 590.011719 447.597656 589.085938 447.953125 L 589.085938 509.902344 C 590.066406 510.214844 590.78125 511.117188 590.789062 512.203125 C 590.796875 513.296875 590.078125 514.21875 589.085938 514.535156 L 589.085938 581.644531 C 590.183594 581.878906 591.011719 582.851562 591.019531 584.019531 C 591.027344 585.195312 590.199219 586.1875 589.085938 586.425781 L 589.085938 589.589844 C 599.964844 566.4375 606.011719 540.878906 606.011719 514.035156 Z M 279.90625 663.785156 L 279.90625 390.933594 C 279.90625 389.582031 281 388.488281 282.351562 388.488281 L 523.882812 388.488281 C 525.234375 388.488281 526.328125 389.582031 526.328125 390.933594 L 526.328125 664.097656 C 541.167969 653.503906 554.390625 641.050781 565.601562 627.113281 L 565.601562 339.851562 L 241.082031 339.851562 L 241.082031 627.132812 C 252.175781 640.925781 265.253906 653.269531 279.90625 663.785156 Z M 391.488281 249.714844 C 391.601562 249.667969 391.714844 249.617188 391.828125 249.574219 L 338.039062 112.285156 C 310.914062 120.910156 286.367188 134.765625 265.769531 152.539062 L 390.589844 248.578125 C 390.992188 248.886719 391.285156 249.285156 391.488281 249.714844 Z M 460.121094 109.78125 L 411.726562 249.679688 C 412.933594 250.167969 414.105469 250.734375 415.230469 251.382812 L 525.105469 140.222656 C 505.820312 126.667969 483.863281 116.25 460.121094 109.78125 Z M 471.824219 305.078125 L 471.824219 334.597656 L 490.039062 334.597656 L 490.039062 305.078125 Z M 531.824219 257.675781 C 531.824219 257.214844 531.445312 256.855469 530.964844 256.855469 C 530.496094 256.855469 530.105469 257.214844 530.105469 257.675781 C 530.105469 258.136719 530.496094 258.507812 530.964844 258.507812 C 531.445312 258.507812 531.824219 258.136719 531.824219 257.675781 Z M 509.589844 279.226562 L 552.8125 279.226562 C 549.128906 270.335938 540.835938 264.117188 531.203125 264.117188 C 521.566406 264.117188 513.277344 270.335938 509.589844 279.226562 Z M 504.0625 284.117188 L 504.0625 290.964844 C 505.121094 290.617188 506.246094 290.433594 507.414062 290.433594 C 512.964844 290.433594 517.582031 294.65625 518.503906 300.1875 L 518.757812 300.1875 C 519.3125 300.1875 519.820312 300.375 520.234375 300.6875 C 520.632812 300.375 521.152344 300.1875 521.703125 300.1875 L 522.019531 300.1875 C 522.890625 294.585938 527.535156 290.292969 533.132812 290.292969 C 538.734375 290.292969 543.382812 294.585938 544.25 300.1875 L 544.804688 300.1875 C 545.550781 300.1875 546.214844 300.519531 546.664062 301.039062 C 547.101562 300.519531 547.769531 300.1875 548.511719 300.1875 L 549.316406 300.1875 C 550.238281 295.816406 553.492188 292.355469 557.636719 291.292969 L 557.636719 284.117188 Z M 572.246094 275 L 581.125 275 C 580.378906 273.21875 578.671875 271.96875 576.683594 271.96875 C 574.699219 271.96875 572.992188 273.21875 572.246094 275 Z M 582.035156 279.890625 L 571.960938 279.890625 L 571.960938 300.21875 C 573.144531 300.375 574.0625 301.402344 574.0625 302.632812 L 574.0625 335.890625 L 582.035156 335.890625 Z M 570.492188 443.351562 L 584.195312 443.257812 L 584.195312 340.78125 L 583.980469 340.78125 L 570.492188 340.875 Z M 569.171875 305.078125 L 550.957031 305.078125 L 550.957031 334.597656 L 569.171875 334.597656 Z M 524.144531 305.078125 L 524.144531 334.597656 L 542.359375 334.597656 L 542.359375 305.078125 Z M 539.265625 300.1875 C 538.503906 297.304688 536.046875 295.183594 533.132812 295.183594 C 530.222656 295.183594 527.761719 297.304688 527 300.1875 Z M 498.097656 305.078125 L 498.097656 334.597656 L 516.308594 334.597656 L 516.308594 305.078125 Z M 570.492188 509.894531 L 584.195312 509.800781 L 584.195312 448.148438 L 570.492188 448.242188 Z M 566.25 300.1875 C 565.3125 297.640625 563.007812 295.835938 560.320312 295.835938 C 557.628906 295.835938 555.328125 297.640625 554.390625 300.1875 Z M 501.3125 300.1875 L 513.511719 300.1875 C 512.710938 297.375 510.277344 295.324219 507.414062 295.324219 C 504.546875 295.324219 502.117188 297.375 501.3125 300.1875 Z M 229.878906 266.695312 C 229.878906 266.96875 230.429688 266.96875 230.429688 266.695312 C 230.429688 266.558594 230.300781 266.449219 230.15625 266.449219 C 230 266.449219 229.878906 266.566406 229.878906 266.695312 Z M 225.554688 275 L 234.433594 275 C 233.6875 273.21875 231.980469 271.96875 229.996094 271.96875 C 228.007812 271.96875 226.300781 273.21875 225.554688 275 Z M 273.3125 256.765625 C 272.832031 256.765625 272.453125 257.136719 272.453125 257.597656 C 272.453125 258.046875 272.832031 258.417969 273.3125 258.417969 C 273.78125 258.417969 274.171875 258.046875 274.171875 257.597656 C 274.171875 257.136719 273.78125 256.765625 273.3125 256.765625 Z M 252.628906 279.226562 L 295.855469 279.226562 C 292.167969 270.335938 283.875 264.117188 274.242188 264.117188 C 264.609375 264.117188 256.316406 270.335938 252.628906 279.226562 Z M 247.800781 284.117188 L 247.800781 290.519531 C 252.378906 291.476562 255.949219 295.34375 256.699219 300.1875 L 256.925781 300.1875 C 257.671875 300.1875 258.335938 300.519531 258.785156 301.046875 C 259.226562 300.519531 259.890625 300.1875 260.644531 300.1875 L 261.269531 300.1875 C 262.332031 294.835938 266.878906 290.804688 272.308594 290.804688 C 277.738281 290.804688 282.28125 294.839844 283.347656 300.1875 L 283.738281 300.1875 C 284.296875 300.1875 284.804688 300.375 285.214844 300.6875 C 285.628906 300.375 286.136719 300.1875 286.691406 300.1875 L 287.136719 300.1875 C 288.089844 294.691406 292.691406 290.507812 298.21875 290.507812 C 299.316406 290.507812 300.375 290.683594 301.375 290.988281 L 301.375 284.117188 Z M 222.488281 443.257812 L 236.191406 443.351562 L 236.191406 340.875 L 222.699219 340.78125 L 222.488281 340.78125 Z M 224.648438 335.890625 L 231.386719 335.890625 L 231.386719 302.632812 C 231.386719 301.28125 232.480469 300.1875 233.832031 300.1875 L 234.46875 300.1875 C 234.53125 299.78125 234.613281 299.382812 234.714844 298.992188 L 234.714844 279.890625 L 224.648438 279.890625 Z M 236.277344 305.078125 L 236.277344 334.597656 L 254.480469 334.597656 L 254.480469 305.078125 Z M 263.089844 305.078125 L 263.089844 334.597656 L 281.296875 334.597656 L 281.296875 305.078125 Z M 278.285156 300.1875 C 277.378906 297.570312 275.046875 295.695312 272.308594 295.695312 C 269.570312 295.695312 267.238281 297.570312 266.332031 300.1875 Z M 307.34375 334.597656 L 307.34375 305.078125 L 289.140625 305.078125 L 289.140625 334.597656 Z M 304.292969 300.1875 C 303.46875 297.414062 301.058594 295.402344 298.21875 295.402344 C 295.378906 295.402344 292.96875 297.414062 292.140625 300.1875 Z M 245.585938 295.179688 C 242.671875 295.179688 240.210938 297.300781 239.449219 300.1875 L 251.71875 300.1875 C 250.957031 297.300781 248.5 295.179688 245.585938 295.179688 Z M 222.488281 509.800781 L 236.191406 509.894531 L 236.191406 448.242188 L 222.488281 448.148438 Z M 315.414062 305.078125 L 315.414062 334.597656 L 333.617188 334.597656 L 333.617188 305.078125 Z M 367.433594 305.078125 L 367.433594 334.597656 L 385.644531 334.597656 L 385.644531 305.078125 Z M 393.589844 305.078125 L 393.589844 334.597656 L 411.792969 334.597656 L 411.792969 305.078125 Z M 419.804688 305.078125 L 419.804688 334.597656 L 438.007812 334.597656 L 438.007812 305.078125 Z M 435.015625 300.1875 C 434.304688 297.222656 431.8125 295.019531 428.84375 295.019531 C 425.878906 295.019531 423.386719 297.222656 422.675781 300.1875 Z M 409.105469 300.1875 C 408.496094 297.074219 405.929688 294.726562 402.863281 294.726562 C 399.796875 294.726562 397.234375 297.074219 396.625 300.1875 Z M 382.730469 300.1875 C 381.96875 297.300781 379.507812 295.179688 376.597656 295.179688 C 373.683594 295.179688 371.222656 297.300781 370.460938 300.1875 Z M 356.964844 300.1875 C 356.21875 297.269531 353.75 295.121094 350.816406 295.121094 C 347.882812 295.121094 345.410156 297.269531 344.664062 300.1875 Z M 341.53125 305.078125 L 341.53125 334.597656 L 359.742188 334.597656 L 359.742188 305.078125 Z M 445.707031 305.078125 L 445.707031 334.597656 L 463.910156 334.597656 L 463.910156 305.078125 Z M 460.757812 300.1875 C 459.929688 297.421875 457.523438 295.417969 454.691406 295.417969 C 451.855469 295.417969 449.449219 297.421875 448.617188 300.1875 Z M 442.558594 283.292969 L 361.867188 283.292969 L 361.867188 299.691406 C 361.898438 299.855469 361.914062 300.023438 361.941406 300.1875 L 362.1875 300.1875 C 362.707031 300.1875 363.1875 300.351562 363.589844 300.628906 C 363.988281 300.351562 364.46875 300.1875 364.988281 300.1875 L 365.480469 300.1875 C 366.347656 294.585938 370.992188 290.289062 376.597656 290.289062 C 382.199219 290.289062 386.84375 294.585938 387.710938 300.1875 L 388.089844 300.1875 C 388.667969 300.1875 389.195312 300.382812 389.617188 300.726562 C 390.039062 300.382812 390.566406 300.1875 391.144531 300.1875 L 391.683594 300.1875 C 392.363281 294.363281 397.113281 289.835938 402.863281 289.835938 C 408.613281 289.835938 413.367188 294.363281 414.046875 300.1875 L 414.238281 300.1875 C 414.835938 300.1875 415.371094 300.390625 415.792969 300.746094 C 415.800781 300.746094 415.800781 300.746094 415.800781 300.746094 C 416.234375 300.390625 416.769531 300.1875 417.359375 300.1875 L 417.707031 300.1875 C 418.511719 294.507812 423.191406 290.128906 428.84375 290.128906 C 434.496094 290.128906 439.183594 294.507812 439.984375 300.1875 L 440.453125 300.1875 C 440.980469 300.1875 441.46875 300.351562 441.863281 300.636719 C 442.074219 300.480469 442.300781 300.363281 442.558594 300.296875 Z M 430.222656 275.664062 L 372.824219 275.664062 L 372.824219 278.257812 L 430.222656 278.257812 Z M 403 246.300781 C 403 245.839844 402.617188 245.46875 402.140625 245.46875 C 401.667969 245.46875 401.277344 245.839844 401.277344 246.300781 C 401.277344 246.75 401.667969 247.121094 402.140625 247.121094 C 402.617188 247.121094 403 246.75 403 246.300781 Z M 378.980469 270.773438 L 424.191406 270.773438 C 424.214844 270.714844 424.246094 270.660156 424.273438 270.601562 C 422.007812 262.652344 416.207031 256.355469 408.84375 253.828125 C 408.582031 253.894531 408.316406 253.941406 408.042969 253.941406 C 407.707031 253.941406 407.367188 253.882812 407.03125 253.769531 C 406.582031 253.613281 406.199219 253.359375 405.882812 253.046875 C 404.503906 252.777344 403.09375 252.617188 401.648438 252.617188 C 390.945312 252.617188 381.894531 260.289062 378.980469 270.773438 Z M 330.648438 300.1875 C 329.773438 297.507812 327.414062 295.578125 324.632812 295.578125 C 321.855469 295.578125 319.492188 297.507812 318.621094 300.1875 Z M 222.488281 581.617188 L 236.191406 581.710938 L 236.191406 514.789062 L 222.488281 514.691406 Z M 570.492188 581.710938 L 584.195312 581.617188 L 584.195312 514.691406 L 570.492188 514.789062 Z M 576.253906 266.695312 C 576.253906 266.96875 576.800781 266.96875 576.800781 266.695312 C 576.800781 266.558594 576.675781 266.449219 576.527344 266.449219 C 576.371094 266.449219 576.253906 266.558594 576.253906 266.695312 Z M 487.035156 300.1875 C 486.214844 297.40625 483.800781 295.386719 480.957031 295.386719 C 478.113281 295.386719 475.699219 297.40625 474.875 300.1875 Z M 577.925781 197.238281 C 578.265625 197.078125 578.625 196.992188 578.980469 196.960938 C 566.34375 176.5625 549.726562 158.570312 530.140625 143.886719 C 530.054688 144 529.972656 144.121094 529.867188 144.226562 L 420.277344 255.09375 C 423.957031 258.464844 426.824219 262.808594 428.507812 267.75 Z M 403.339844 102.222656 C 382.699219 102.222656 362.773438 105.121094 343.996094 110.492188 L 396.605469 244.761719 C 397.058594 243.140625 398.203125 241.8125 399.710938 241.117188 C 399.714844 241.113281 399.714844 241.113281 399.714844 241.113281 L 399.550781 231.640625 C 399.527344 230.289062 400.601562 229.175781 401.953125 229.152344 C 401.964844 229.152344 401.980469 229.152344 401.996094 229.152344 C 403.328125 229.152344 404.417969 230.21875 404.441406 231.554688 L 404.609375 241.140625 C 404.609375 241.144531 404.609375 241.144531 404.613281 241.144531 C 405.746094 241.675781 406.664062 242.578125 407.238281 243.683594 L 454.097656 108.222656 C 437.871094 104.308594 420.863281 102.222656 403.339844 102.222656 Z M 219.542969 211.5625 L 371.492188 270.328125 C 371.777344 270.4375 372.023438 270.597656 372.253906 270.773438 L 373.929688 270.773438 C 375.664062 263.308594 380.011719 256.921875 385.882812 252.78125 L 261.492188 157.074219 C 261.347656 156.960938 261.21875 156.832031 261.097656 156.699219 C 243.96875 172.445312 229.828125 191.003906 219.542969 211.5625 Z M 200.652344 514.035156 C 200.652344 540.898438 206.699219 566.464844 217.597656 589.628906 L 217.597656 586.425781 C 216.484375 586.191406 215.652344 585.199219 215.660156 584.019531 C 215.667969 582.847656 216.496094 581.878906 217.597656 581.644531 L 217.597656 514.535156 C 216.605469 514.21875 215.886719 513.300781 215.890625 512.203125 C 215.898438 511.117188 216.617188 510.214844 217.597656 509.898438 L 217.597656 447.953125 C 216.671875 447.601562 216.011719 446.710938 216.019531 445.660156 C 216.027344 444.625 216.679688 443.746094 217.597656 443.398438 L 217.597656 340.644531 C 216.570312 340.347656 215.820312 339.410156 215.828125 338.289062 C 215.835938 336.945312 216.929688 335.859375 218.273438 335.859375 C 218.277344 335.859375 218.28125 335.859375 218.289062 335.859375 L 219.757812 335.871094 L 219.757812 277.445312 C 219.757812 276.847656 219.972656 276.300781 220.324219 275.871094 L 220.332031 275.859375 C 220.695312 272.625 222.589844 269.855469 225.261719 268.335938 C 225.085938 267.828125 224.988281 267.269531 224.988281 266.695312 C 224.988281 264.738281 226.09375 263.035156 227.71875 262.175781 L 227.589844 254.644531 C 227.566406 253.296875 228.644531 252.179688 229.992188 252.15625 C 230.007812 252.15625 230.019531 252.15625 230.035156 252.15625 C 231.367188 252.15625 232.457031 253.222656 232.480469 254.558594 L 232.613281 262.1875 C 234.226562 263.058594 235.320312 264.75 235.320312 266.695312 C 235.320312 267.320312 235.203125 267.925781 234.988281 268.484375 C 234.984375 268.488281 234.984375 268.492188 234.984375 268.496094 C 237.816406 270.226562 239.722656 273.382812 239.722656 276.988281 C 239.722656 277.238281 239.675781 277.476562 239.605469 277.707031 L 239.605469 292.101562 C 240.609375 291.441406 241.722656 290.941406 242.910156 290.636719 L 242.910156 281.671875 C 242.910156 280.320312 244.007812 279.226562 245.355469 279.226562 L 247.390625 279.226562 C 250.683594 269.574219 258.480469 262.195312 268.074219 259.945312 C 268.070312 259.941406 268.070312 259.9375 268.070312 259.9375 C 267.738281 259.222656 267.558594 258.429688 267.558594 257.597656 C 267.558594 255.308594 268.921875 253.324219 270.886719 252.414062 L 270.722656 242.9375 C 270.699219 241.585938 271.777344 240.472656 273.125 240.449219 C 273.140625 240.449219 273.152344 240.449219 273.167969 240.449219 C 274.5 240.449219 275.589844 241.515625 275.613281 242.851562 L 275.78125 252.441406 C 275.78125 252.441406 275.785156 252.441406 275.785156 252.441406 C 277.722656 253.363281 279.0625 255.328125 279.0625 257.597656 C 279.0625 258.300781 278.9375 258.96875 278.691406 259.59375 C 289.066406 261.324219 297.605469 269.003906 301.09375 279.226562 L 303.820312 279.226562 C 305.171875 279.226562 306.265625 280.320312 306.265625 281.671875 L 306.265625 294.054688 C 307.8125 295.707031 308.890625 297.824219 309.300781 300.1875 L 309.789062 300.1875 C 310.394531 300.1875 310.960938 300.414062 311.382812 300.773438 C 311.8125 300.402344 312.359375 300.1875 312.96875 300.1875 L 313.578125 300.1875 C 314.597656 294.78125 319.167969 290.6875 324.632812 290.6875 C 330.105469 290.6875 334.671875 294.78125 335.691406 300.1875 L 336.0625 300.1875 C 336.640625 300.1875 337.167969 300.382812 337.578125 300.714844 C 338 300.382812 338.519531 300.1875 339.085938 300.1875 L 339.691406 300.1875 C 340.535156 294.554688 345.195312 290.230469 350.816406 290.230469 C 353.089844 290.230469 355.203125 290.941406 356.976562 292.15625 L 356.976562 280.847656 C 356.976562 279.5 358.070312 278.402344 359.421875 278.402344 L 367.933594 278.402344 L 367.933594 275.597656 L 216.847656 217.164062 C 206.429688 239.898438 200.652344 264.90625 200.652344 291.148438 Z M 222.488281 599.285156 C 226.320312 606.328125 230.625 613.117188 235.339844 619.621094 C 235.625 620 235.90625 620.394531 236.191406 620.777344 L 236.191406 586.605469 L 222.488281 586.511719 Z M 284.796875 667.179688 C 292.523438 672.394531 300.664062 677.117188 309.152344 681.285156 C 308.527344 652.78125 307.65625 612.273438 307.226562 587.261719 C 306.363281 536.410156 309.015625 518.703125 328.238281 499.382812 C 356.585938 470.898438 401.285156 458.945312 403.175781 458.457031 C 403.753906 458.300781 404.359375 458.367188 404.886719 458.632812 C 410.128906 460.042969 452.425781 472.074219 479.550781 499.335938 C 498.734375 518.605469 501.382812 536.300781 500.515625 587.164062 C 500.347656 597.09375 500.09375 610.445312 499.730469 627.964844 C 499.359375 646.058594 498.949219 665.15625 498.605469 680.746094 C 506.550781 676.796875 514.167969 672.355469 521.4375 667.472656 L 521.4375 393.378906 L 284.796875 393.378906 Z M 403.339844 702.953125 C 435.765625 702.953125 466.453125 695.8125 493.65625 683.132812 C 494.011719 667.109375 494.449219 646.933594 494.839844 627.855469 C 495.203125 610.347656 495.457031 597.007812 495.621094 587.078125 C 496.523438 534.195312 493.234375 520.011719 476.089844 502.789062 C 450.285156 476.855469 408.847656 464.804688 403.710938 463.375 C 397.855469 465.039062 357.199219 477.21875 331.710938 502.835938 C 314.511719 520.113281 311.226562 534.292969 312.117188 587.183594 C 312.554688 612.902344 313.46875 655.042969 314.09375 683.632812 C 341.03125 695.996094 371.335938 702.953125 403.339844 702.953125 Z M 570.492188 620.753906 C 571.136719 619.882812 571.773438 619.003906 572.398438 618.125 C 576.703125 612.070312 580.648438 605.761719 584.195312 599.246094 L 584.195312 586.511719 L 570.492188 586.605469 Z M 570.492188 620.753906 " fill-opacity="1" fill-rule="nonzero"/></g></svg>