<svg xmlns="http://www.w3.org/2000/svg" xmlns:xlink="http://www.w3.org/1999/xlink" width="1080" zoomAndPan="magnify" viewBox="0 0 810 809.999993" height="1080" preserveAspectRatio="xMidYMid meet" version="1.0"><defs><clipPath id="fb80a5c526"><path d="M 392 68.351562 L 410 68.351562 L 410 242 L 392 242 Z M 392 68.351562 " clip-rule="nonzero"/></clipPath></defs><path fill="#ffffff" d="M 381.121094 411.246094 L 381.15625 411.21875 L 378.257812 413.007812 L 381.625 410.933594 L 381.121094 411.246094 " fill-opacity="1" fill-rule="nonzero"/><path fill="#ffffff" d="M 411.921875 399.375 C 411.195312 394.882812 408.5 390.59375 404.761719 387.988281 C 401.636719 385.808594 398.617188 384.960938 395.730469 384.949219 C 391.441406 384.941406 387.277344 386.929688 384.160156 390.175781 C 381.042969 393.414062 379.101562 397.816406 379.109375 402.308594 C 379.113281 405.144531 379.847656 408.039062 381.621094 410.929688 L 381.667969 410.988281 L 381.875 411.246094 C 382.0625 411.46875 382.328125 411.757812 382.671875 412.085938 C 383.355469 412.738281 384.324219 413.53125 385.523438 414.277344 C 387.933594 415.78125 391.210938 417.097656 395.328125 417.097656 C 397.988281 417.097656 401.039062 416.554688 404.550781 415.039062 C 406.808594 414.066406 408.683594 412.261719 410.03125 409.894531 C 411.375 407.539062 412.125 404.652344 412.121094 401.859375 C 412.121094 401.019531 412.054688 400.183594 411.921875 399.375 " fill-opacity="1" fill-rule="nonzero"/><path fill="#ffffff" d="M 381.15625 411.21875 L 381.121094 411.246094 L 381.625 410.933594 L 378.257812 413.007812 Z M 404.550781 415.039062 C 401.039062 416.554688 397.988281 417.097656 395.328125 417.097656 C 391.210938 417.097656 387.933594 415.78125 385.523438 414.277344 C 384.324219 413.53125 383.355469 412.738281 382.671875 412.085938 C 382.328125 411.757812 382.0625 411.46875 381.875 411.246094 L 381.667969 410.988281 L 381.621094 410.929688 C 379.847656 408.039062 379.113281 405.144531 379.109375 402.308594 C 379.101562 397.816406 381.042969 393.414062 384.160156 390.175781 C 387.277344 386.929688 391.441406 384.941406 395.730469 384.949219 C 398.617188 384.960938 401.636719 385.808594 404.761719 387.988281 C 408.5 390.59375 411.195312 394.882812 411.921875 399.375 C 412.054688 400.183594 412.121094 401.019531 412.121094 401.859375 C 412.125 404.652344 411.375 407.539062 410.03125 409.894531 C 408.683594 412.261719 406.808594 414.066406 404.550781 415.039062 Z M 419.722656 398.097656 C 418.613281 391.433594 414.824219 385.40625 409.300781 381.515625 C 404.96875 378.464844 400.242188 377.035156 395.730469 377.042969 C 388.988281 377.050781 382.871094 380.101562 378.457031 384.699219 C 374.046875 389.300781 371.214844 395.554688 371.203125 402.308594 C 371.199219 406.554688 372.359375 410.972656 374.890625 415.074219 C 375.179688 415.535156 375.480469 415.925781 375.859375 416.378906 C 377.171875 417.902344 379.40625 419.972656 382.671875 421.769531 C 385.921875 423.550781 390.21875 425.003906 395.328125 425.003906 C 399.089844 425.003906 403.261719 424.210938 407.6875 422.296875 C 411.757812 420.535156 414.855469 417.410156 416.902344 413.796875 C 418.957031 410.171875 420.019531 406.023438 420.023438 401.859375 C 420.023438 400.601562 419.925781 399.34375 419.722656 398.101562 L 419.722656 398.097656 " fill-opacity="1" fill-rule="nonzero"/><path stroke-linecap="round" transform="matrix(0.0393147, 0, 0, -0.0393147, -25.737186, 815.843715)" fill="none" stroke-linejoin="round" d="M 9260.876934 7067.764412 L 9260.876934 7067.764412 " stroke="#231f20" stroke-width="1.2" stroke-opacity="1" stroke-miterlimit="4"/><path stroke-linecap="round" transform="matrix(0.0393147, 0, 0, -0.0393147, -25.737186, 815.843715)" fill="none" stroke-linejoin="round" d="M 7906.124215 7438.570216 L 7906.124215 7438.570216 " stroke="#231f20" stroke-width="1.2" stroke-opacity="1" stroke-miterlimit="4"/><path fill="#ffffff" d="M 193.828125 405.777344 C 192.464844 408.15625 193.289062 411.183594 195.664062 412.550781 C 198.042969 413.910156 201.070312 413.085938 202.433594 410.710938 C 221.925781 376.699219 245.992188 346.742188 273.128906 323.269531 C 300.269531 299.789062 330.453125 282.808594 362.222656 274.574219 C 376.347656 270.914062 390.789062 269.089844 405.238281 269.089844 C 455.691406 269.101562 506.226562 291.265625 543.515625 335.09375 C 545.292969 337.179688 548.421875 337.429688 550.511719 335.65625 C 552.597656 333.878906 552.847656 330.75 551.078125 328.664062 C 511.984375 282.691406 458.601562 259.160156 405.238281 259.171875 C 389.957031 259.171875 374.675781 261.097656 359.734375 264.96875 C 326.226562 273.660156 294.730469 291.464844 266.640625 315.769531 C 238.542969 340.078125 213.824219 370.894531 193.828125 405.777344 " fill-opacity="1" fill-rule="nonzero"/><path fill="#ffffff" d="M 423.792969 540.4375 C 423.792969 539.679688 423.734375 538.929688 423.609375 538.179688 L 423.609375 538.171875 C 422.941406 534.203125 420.746094 530.707031 417.457031 528.382812 C 414.957031 526.617188 412.078125 525.722656 409.328125 525.730469 C 407.285156 525.730469 405.328125 526.199219 403.585938 527 C 400.972656 528.203125 398.820312 530.109375 397.265625 532.453125 C 395.714844 534.792969 394.761719 537.613281 394.757812 540.644531 C 394.75 543.183594 395.464844 545.851562 396.945312 548.238281 C 397.207031 548.664062 397.425781 548.9375 397.683594 549.242188 C 398.125 549.757812 398.648438 550.285156 399.316406 550.835938 C 400.320312 551.660156 401.625 552.527344 403.273438 553.207031 C 404.914062 553.886719 406.914062 554.367188 409.140625 554.367188 C 411.332031 554.371094 413.722656 553.898438 416.144531 552.847656 C 418.761719 551.710938 420.695312 549.730469 421.929688 547.550781 C 423.167969 545.359375 423.785156 542.925781 423.792969 540.4375 " fill-opacity="1" fill-rule="nonzero"/><path fill="#ffffff" d="M 338.355469 537.988281 C 338.355469 537.980469 338.355469 537.980469 338.355469 537.980469 C 338.355469 537.980469 338.351562 537.980469 338.351562 537.976562 L 338.355469 537.988281 " fill-opacity="1" fill-rule="nonzero"/><path fill="#ffffff" d="M 340.15625 539.976562 C 340.863281 540.558594 341.773438 541.160156 342.929688 541.640625 C 344.082031 542.113281 345.492188 542.457031 347.050781 542.453125 C 348.582031 542.457031 350.230469 542.121094 351.835938 541.425781 C 353.8125 540.570312 355.230469 539.089844 356.117188 537.527344 C 357.003906 535.945312 357.4375 534.230469 357.445312 532.460938 C 357.445312 531.917969 357.402344 531.386719 357.320312 530.863281 L 357.3125 530.835938 C 356.832031 528.015625 355.300781 525.574219 352.964844 523.917969 C 351.230469 522.691406 349.144531 522.023438 347.152344 522.035156 C 345.671875 522.035156 344.265625 522.375 343.027344 522.945312 C 341.164062 523.804688 339.660156 525.140625 338.570312 526.78125 C 337.488281 528.417969 336.804688 530.410156 336.804688 532.578125 C 336.796875 534.382812 337.308594 536.300781 338.351562 537.976562 C 338.351562 537.980469 338.355469 537.980469 338.355469 537.980469 C 338.59375 538.363281 338.769531 538.582031 338.964844 538.816406 C 339.304688 539.210938 339.683594 539.585938 340.15625 539.976562 " fill-opacity="1" fill-rule="nonzero"/><path fill="#ffffff" d="M 285.097656 523.40625 C 285.09375 523.40625 285.09375 523.402344 285.09375 523.402344 C 285.089844 523.398438 285.089844 523.398438 285.089844 523.398438 L 285.097656 523.40625 " fill-opacity="1" fill-rule="nonzero"/><path fill="#ffffff" d="M 286.738281 525.230469 C 287.363281 525.746094 288.160156 526.277344 289.179688 526.695312 C 290.195312 527.117188 291.441406 527.414062 292.8125 527.414062 C 294.160156 527.414062 295.601562 527.121094 296.980469 526.523438 L 296.984375 526.519531 C 298.773438 525.746094 300.054688 524.40625 300.839844 523.011719 C 301.632812 521.605469 302.015625 520.09375 302.023438 518.519531 C 302.023438 518.035156 301.980469 517.5625 301.910156 517.105469 L 301.90625 517.074219 C 301.476562 514.570312 300.125 512.425781 298.054688 510.953125 C 296.535156 509.878906 294.671875 509.28125 292.894531 509.289062 C 291.570312 509.289062 290.3125 509.59375 289.214844 510.097656 C 287.566406 510.859375 286.242188 512.039062 285.28125 513.484375 C 284.328125 514.925781 283.722656 516.683594 283.71875 518.609375 C 283.710938 520.21875 284.175781 521.921875 285.089844 523.398438 C 285.089844 523.398438 285.089844 523.398438 285.09375 523.402344 C 285.324219 523.769531 285.488281 523.972656 285.671875 524.1875 C 285.980469 524.550781 286.320312 524.882812 286.738281 525.230469 " fill-opacity="1" fill-rule="nonzero"/><path fill="#ffffff" d="M 461.890625 533.191406 C 462.933594 534.835938 464.585938 536.347656 466.832031 537.0625 C 468.09375 537.460938 469.359375 537.65625 470.5625 537.65625 C 473.242188 537.664062 475.46875 536.679688 476.929688 535.609375 C 477.671875 535.074219 478.25 534.519531 478.714844 533.996094 C 478.945312 533.734375 479.148438 533.476562 479.332031 533.214844 C 479.519531 532.9375 479.679688 532.695312 479.898438 532.257812 L 479.902344 532.253906 C 480.59375 530.820312 480.9375 529.257812 480.9375 527.761719 C 480.929688 524.796875 479.667969 522.207031 477.828125 520.363281 C 475.984375 518.519531 473.441406 517.261719 470.507812 517.25 C 468.226562 517.230469 465.796875 518.121094 463.925781 519.765625 C 461.789062 521.636719 460.523438 524.199219 460.320312 527.03125 L 460.3125 527.03125 C 460.3125 527.050781 460.3125 527.058594 460.3125 527.078125 C 460.3125 527.082031 460.304688 527.085938 460.304688 527.089844 L 460.3125 527.089844 C 460.296875 527.320312 460.285156 527.527344 460.285156 527.691406 C 460.296875 529.671875 460.84375 531.53125 461.890625 533.191406 " fill-opacity="1" fill-rule="nonzero"/><path fill="#ffffff" d="M 515.433594 513.171875 C 516.359375 514.632812 517.84375 516 519.882812 516.652344 C 520.96875 516.992188 522.070312 517.164062 523.125 517.164062 C 525.476562 517.171875 527.449219 516.300781 528.730469 515.359375 C 529.386719 514.890625 529.894531 514.402344 530.300781 513.9375 C 530.511719 513.707031 530.691406 513.476562 530.859375 513.238281 C 531.035156 512.988281 531.183594 512.765625 531.390625 512.347656 L 531.402344 512.320312 C 532.007812 511.0625 532.320312 509.675781 532.316406 508.347656 C 532.308594 505.710938 531.1875 503.425781 529.570312 501.796875 C 527.953125 500.175781 525.703125 499.058594 523.082031 499.046875 C 521.042969 499.027344 518.867188 499.832031 517.230469 501.273438 C 515.347656 502.925781 514.238281 505.167969 514.042969 507.65625 L 514.035156 507.65625 C 514.03125 507.6875 514.035156 507.695312 514.03125 507.726562 C 514.03125 507.734375 514.027344 507.742188 514.027344 507.753906 L 514.03125 507.753906 C 514.019531 507.972656 514.011719 508.175781 514.011719 508.292969 C 514.019531 510.054688 514.503906 511.695312 515.433594 513.171875 " fill-opacity="1" fill-rule="nonzero"/><path fill="#ffffff" d="M 305.277344 358.867188 C 308.304688 357.476562 311.390625 356.148438 314.507812 354.871094 C 302.101562 382.097656 299.523438 417.839844 311.488281 439.804688 C 322.007812 459.101562 339.488281 473.503906 359.699219 482.386719 C 352.132812 481.109375 344.609375 479.316406 337.203125 476.863281 C 321.847656 471.78125 306.859375 464.347656 291.671875 456.832031 C 276.484375 449.324219 261.089844 441.742188 244.808594 436.511719 C 241.78125 435.542969 238.910156 434.667969 236.441406 433.53125 C 233.964844 432.394531 231.929688 431.058594 230.265625 429.160156 C 229.71875 428.550781 228.953125 427.25 228.414062 425.566406 C 227.867188 423.878906 227.507812 421.820312 227.511719 419.640625 C 227.507812 417.445312 227.867188 415.132812 228.691406 412.894531 C 228.992188 412.082031 229.375 411.28125 229.804688 410.484375 C 232.175781 408.179688 234.640625 405.859375 237.246094 403.527344 C 255.105469 387.523438 278.390625 371.167969 305.277344 358.867188 Z M 500.648438 362.070312 C 526.761719 375.238281 549.398438 392.90625 572.636719 412.335938 C 568.800781 413.472656 564.972656 414.917969 561.171875 416.585938 C 550.589844 421.253906 540.1875 427.660156 530.539062 434.136719 C 520.902344 440.613281 512.011719 447.183594 504.648438 452.144531 C 494.992188 458.667969 479.386719 466.441406 460.496094 472.71875 C 468.96875 464.230469 475.582031 453.683594 479.855469 442.457031 C 487.855469 421.4375 488.574219 398.300781 486.503906 375.90625 C 485.824219 368.527344 484.757812 361 482.550781 353.949219 C 488.785156 356.421875 494.808594 359.128906 500.648438 362.070312 Z M 378.457031 384.699219 C 382.871094 380.101562 388.988281 377.050781 395.730469 377.042969 C 400.242188 377.035156 404.96875 378.464844 409.300781 381.515625 C 414.824219 385.40625 418.613281 391.433594 419.722656 398.097656 L 419.722656 398.101562 C 419.925781 399.34375 420.023438 400.601562 420.023438 401.859375 C 420.019531 406.023438 418.957031 410.171875 416.902344 413.796875 C 414.855469 417.410156 411.757812 420.535156 407.6875 422.296875 C 403.261719 424.210938 399.089844 425.003906 395.328125 425.003906 C 390.21875 425.003906 385.921875 423.550781 382.671875 421.769531 C 379.40625 419.972656 377.171875 417.902344 375.859375 416.378906 C 375.480469 415.925781 375.179688 415.535156 374.890625 415.074219 C 372.359375 410.972656 371.199219 406.554688 371.203125 402.308594 C 371.214844 395.554688 374.046875 389.300781 378.457031 384.699219 Z M 410.132812 498.140625 C 403.898438 498.632812 397.65625 498.875 391.40625 498.875 C 364.96875 498.875 338.515625 494.515625 312.910156 486.265625 C 297.53125 481.304688 282.390625 475.007812 267.84375 467.269531 C 265.921875 466.246094 263.886719 464.832031 261.769531 463.242188 C 258.582031 460.855469 255.230469 458.070312 251.453125 455.75 C 249.558594 454.589844 247.542969 453.542969 245.351562 452.773438 C 243.167969 452 240.789062 451.515625 238.28125 451.515625 C 236.679688 451.515625 235.03125 451.714844 233.382812 452.136719 C 229.527344 453.128906 226.144531 454.714844 223.011719 456.117188 C 219.882812 457.53125 217.011719 458.761719 214.34375 459.34375 C 213.441406 459.542969 212.488281 459.648438 211.535156 459.648438 C 209.480469 459.652344 207.472656 459.148438 205.933594 458.242188 C 204.382812 457.3125 203.246094 456.09375 202.507812 454.148438 C 202.070312 452.957031 201.871094 451.753906 201.867188 450.464844 C 201.859375 447.980469 202.667969 445.117188 204.0625 442.191406 C 205.445312 439.273438 207.378906 436.324219 209.324219 433.660156 C 211.8125 430.242188 214.746094 426.59375 218.070312 422.800781 C 218.285156 424.828125 218.683594 426.765625 219.261719 428.542969 C 220.140625 431.21875 221.347656 433.570312 223.023438 435.5 C 225.820312 438.699219 229.164062 440.792969 232.4375 442.285156 C 235.71875 443.78125 238.964844 444.742188 241.867188 445.675781 C 257.242188 450.605469 272.230469 457.953125 287.40625 465.464844 C 302.582031 472.960938 317.945312 480.617188 334.175781 486 C 352.277344 492 370.902344 494.4375 389.027344 494.4375 C 398.835938 494.4375 408.492188 493.722656 417.863281 492.46875 C 421.738281 492.140625 425.582031 491.550781 429.351562 490.640625 C 440.304688 488.632812 450.75 485.949219 460.421875 482.871094 C 481.46875 476.164062 498.832031 467.671875 510.03125 460.125 C 520.1875 453.269531 532.53125 443.941406 545.484375 435.929688 C 551.953125 431.921875 558.5625 428.257812 565.050781 425.398438 C 565.863281 425.039062 566.671875 424.699219 567.480469 424.363281 C 523.121094 468.007812 467.066406 493.644531 410.132812 498.140625 Z M 391.007812 306.59375 C 341.226562 306.585938 291.15625 323.554688 251.773438 360.21875 C 240.394531 370.820312 229.828125 384.75 221.027344 397.597656 C 216.632812 404.015625 212.695312 410.167969 209.363281 415.472656 C 206.058594 420.726562 203.347656 425.167969 201.433594 428.148438 C 199.332031 431.042969 197.121094 434.378906 195.367188 438.066406 C 193.59375 441.820312 192.253906 445.976562 192.242188 450.464844 C 192.242188 452.777344 192.617188 455.160156 193.480469 457.496094 C 194.972656 461.558594 197.804688 464.660156 201.070312 466.546875 C 204.339844 468.457031 207.992188 469.269531 211.535156 469.273438 C 213.1875 469.273438 214.824219 469.09375 216.414062 468.746094 C 220.347656 467.875 223.789062 466.320312 226.964844 464.898438 C 230.140625 463.457031 233.054688 462.148438 235.765625 461.464844 C 236.648438 461.242188 237.46875 461.140625 238.28125 461.140625 C 239.964844 461.140625 241.660156 461.566406 243.535156 462.40625 C 246.335938 463.65625 249.40625 465.886719 252.65625 468.390625 C 255.917969 470.886719 259.359375 473.644531 263.320312 475.765625 C 278.402344 483.792969 294.066406 490.300781 309.957031 495.425781 C 336.460938 503.972656 363.910156 508.5 391.40625 508.5 C 397.902344 508.5 404.402344 508.25 410.886719 507.734375 C 475.730469 502.613281 539.167969 471.238281 586.757812 418.117188 C 586.800781 418.066406 586.832031 418.007812 586.871094 417.957031 C 586.984375 417.828125 587.078125 417.691406 587.171875 417.550781 C 587.253906 417.429688 587.332031 417.304688 587.402344 417.171875 C 587.480469 417.027344 587.542969 416.878906 587.609375 416.730469 C 587.667969 416.589844 587.722656 416.449219 587.765625 416.308594 C 587.8125 416.152344 587.847656 415.988281 587.878906 415.824219 C 587.90625 415.679688 587.933594 415.53125 587.949219 415.378906 C 587.964844 415.214844 587.964844 415.050781 587.964844 414.882812 C 587.964844 414.777344 587.980469 414.675781 587.976562 414.570312 C 587.972656 414.515625 587.953125 414.460938 587.949219 414.40625 C 587.941406 414.351562 587.949219 414.292969 587.941406 414.234375 C 587.925781 414.128906 587.886719 414.035156 587.867188 413.929688 C 587.832031 413.769531 587.800781 413.609375 587.75 413.457031 C 587.703125 413.300781 587.640625 413.152344 587.578125 413 C 587.515625 412.863281 587.453125 412.722656 587.378906 412.589844 C 587.296875 412.4375 587.207031 412.304688 587.113281 412.167969 C 587.027344 412.046875 586.941406 411.925781 586.847656 411.8125 C 586.738281 411.679688 586.613281 411.5625 586.492188 411.445312 C 586.417969 411.375 586.359375 411.289062 586.28125 411.226562 C 560.3125 389.308594 535.09375 368.667969 504.980469 353.476562 C 474.878906 338.277344 439.910156 328.65625 394.992188 328.671875 C 349.644531 328.679688 308.222656 344.070312 274.71875 364.089844 C 261.316406 372.101562 249.195312 380.863281 238.550781 389.710938 C 244.785156 381.511719 251.523438 373.597656 258.332031 367.261719 C 295.796875 332.394531 343.378906 316.230469 391.007812 316.222656 C 402.164062 316.222656 413.320312 317.109375 424.339844 318.859375 C 482.449219 328.054688 537.425781 359.550781 586.121094 400.546875 C 588.15625 402.257812 591.195312 401.996094 592.902344 399.960938 C 594.617188 397.929688 594.355469 394.894531 592.320312 393.179688 C 542.769531 351.488281 486.40625 318.96875 425.851562 309.347656 C 414.335938 307.523438 402.675781 306.59375 391.007812 306.59375 " fill-opacity="1" fill-rule="nonzero"/><path fill="#ffffff" d="M 43.105469 277.667969 C 85.421875 312.402344 127.742188 347.136719 170.058594 381.867188 C 172.203125 383.628906 175.367188 383.320312 177.128906 381.171875 C 178.890625 379.03125 178.578125 375.863281 176.433594 374.101562 C 134.117188 339.371094 91.796875 304.632812 49.480469 269.902344 C 47.335938 268.140625 44.171875 268.453125 42.410156 270.597656 C 40.648438 272.742188 40.960938 275.90625 43.105469 277.667969 " fill-opacity="1" fill-rule="nonzero"/><path fill="#ffffff" d="M 199.046875 327.820312 C 201.160156 329.613281 204.332031 329.359375 206.128906 327.246094 C 207.925781 325.132812 207.667969 321.960938 205.554688 320.164062 C 195.25 311.40625 185.605469 301.859375 176.742188 291.644531 C 174.921875 289.546875 171.75 289.324219 169.65625 291.144531 C 167.5625 292.960938 167.335938 296.132812 169.15625 298.230469 C 178.351562 308.828125 188.355469 318.730469 199.046875 327.820312 " fill-opacity="1" fill-rule="nonzero"/><path fill="#ffffff" d="M 158.757812 181.941406 C 187.074219 215.976562 214.117188 251.074219 239.816406 287.125 C 241.425781 289.386719 244.5625 289.910156 246.824219 288.300781 C 249.082031 286.691406 249.605469 283.554688 247.996094 281.292969 C 222.15625 245.035156 194.957031 209.746094 166.484375 175.515625 C 164.707031 173.382812 161.539062 173.089844 159.40625 174.867188 C 157.277344 176.640625 156.984375 179.808594 158.757812 181.941406 " fill-opacity="1" fill-rule="nonzero"/><path fill="#ffffff" d="M 250.867188 232.691406 C 257.078125 244.1875 263.992188 255.304688 271.554688 265.960938 C 273.160156 268.226562 276.292969 268.757812 278.558594 267.152344 C 280.820312 265.546875 281.351562 262.410156 279.746094 260.148438 C 272.421875 249.824219 265.726562 239.054688 259.707031 227.914062 C 258.386719 225.476562 255.339844 224.566406 252.898438 225.882812 C 250.460938 227.203125 249.550781 230.25 250.871094 232.691406 L 250.867188 232.691406 " fill-opacity="1" fill-rule="nonzero"/><path fill="#ffffff" d="M 258.664062 127.242188 C 276.824219 163.820312 293.925781 200.917969 309.949219 238.484375 C 311.039062 241.035156 313.988281 242.21875 316.539062 241.132812 C 319.09375 240.042969 320.28125 237.09375 319.191406 234.539062 C 303.09375 196.796875 285.90625 159.527344 267.664062 122.773438 C 266.429688 120.285156 263.414062 119.273438 260.929688 120.507812 C 258.445312 121.742188 257.433594 124.757812 258.667969 127.242188 L 258.664062 127.242188 " fill-opacity="1" fill-rule="nonzero"/><path fill="#ffffff" d="M 338.175781 191.144531 C 342.46875 204.175781 345.765625 217.542969 348.027344 231.078125 C 348.484375 233.8125 351.074219 235.660156 353.808594 235.207031 C 356.546875 234.746094 358.394531 232.160156 357.9375 229.421875 C 355.59375 215.382812 352.175781 201.523438 347.71875 188.003906 C 346.851562 185.371094 344.011719 183.933594 341.378906 184.800781 C 338.742188 185.671875 337.308594 188.511719 338.175781 191.144531 " fill-opacity="1" fill-rule="nonzero"/><g clip-path="url(#fb80a5c526)"><path fill="#ffffff" d="M 404.382812 241.523438 C 407.15625 241.5 409.390625 239.238281 409.371094 236.460938 C 408.960938 181.972656 406.558594 127.503906 402.167969 73.191406 C 401.945312 70.425781 399.523438 68.367188 396.757812 68.59375 C 393.992188 68.8125 391.929688 71.238281 392.15625 74.003906 C 396.523438 128.066406 398.914062 182.292969 399.324219 236.539062 C 399.34375 239.316406 401.609375 241.542969 404.382812 241.523438 " fill-opacity="1" fill-rule="nonzero"/></g><path fill="#ffffff" d="M 443.488281 237.089844 C 446.234375 237.472656 448.773438 235.550781 449.152344 232.800781 C 450.941406 219.824219 452.734375 206.84375 454.527344 193.863281 C 454.90625 191.117188 452.988281 188.582031 450.234375 188.199219 C 447.492188 187.820312 444.953125 189.742188 444.574219 192.488281 C 442.785156 205.46875 440.992188 218.449219 439.199219 231.429688 C 438.820312 234.179688 440.738281 236.714844 443.488281 237.089844 " fill-opacity="1" fill-rule="nonzero"/><path fill="#ffffff" d="M 481.734375 250.863281 C 484.28125 251.960938 487.234375 250.777344 488.328125 248.230469 L 488.324219 248.230469 C 507.871094 202.667969 528.421875 157.539062 549.964844 112.882812 C 551.167969 110.382812 550.121094 107.382812 547.625 106.175781 C 545.125 104.96875 542.121094 106.019531 540.914062 108.515625 C 519.3125 153.304688 498.695312 198.570312 479.097656 244.273438 C 478 246.820312 479.183594 249.773438 481.734375 250.863281 " fill-opacity="1" fill-rule="nonzero"/><path fill="#ffffff" d="M 526.417969 272.167969 C 528.609375 273.875 531.765625 273.476562 533.46875 271.289062 C 542.890625 259.179688 552.316406 247.066406 561.738281 234.953125 C 563.441406 232.761719 563.046875 229.605469 560.859375 227.90625 C 558.667969 226.199219 555.511719 226.589844 553.808594 228.78125 C 544.382812 240.894531 534.960938 253.007812 525.539062 265.121094 C 523.835938 267.308594 524.226562 270.464844 526.417969 272.167969 " fill-opacity="1" fill-rule="nonzero"/><path fill="#ffffff" d="M 572.511719 293.457031 C 600.664062 265.257812 628.824219 237.058594 656.980469 208.855469 C 658.9375 206.890625 658.9375 203.710938 656.972656 201.753906 C 655.011719 199.792969 651.832031 199.792969 649.871094 201.757812 C 621.714844 229.960938 593.558594 258.160156 565.402344 286.359375 C 563.441406 288.324219 563.445312 291.503906 565.40625 293.464844 C 567.371094 295.421875 570.550781 295.421875 572.511719 293.457031 " fill-opacity="1" fill-rule="nonzero"/><path fill="#ffffff" d="M 633.128906 295.625 C 631.214844 293.609375 628.042969 293.53125 626.027344 295.433594 C 615.613281 305.308594 604.949219 314.914062 594.046875 324.242188 C 591.9375 326.046875 591.691406 329.214844 593.492188 331.324219 C 595.296875 333.429688 598.46875 333.679688 600.578125 331.875 C 611.613281 322.4375 622.40625 312.714844 632.941406 302.726562 C 634.953125 300.816406 635.035156 297.640625 633.128906 295.625 " fill-opacity="1" fill-rule="nonzero"/><path fill="#ffffff" d="M 618.570312 365.125 C 620.167969 367.394531 623.304688 367.9375 625.574219 366.339844 C 660.367188 341.820312 695.164062 317.296875 729.964844 292.777344 C 732.230469 291.179688 732.773438 288.046875 731.175781 285.777344 C 729.578125 283.507812 726.445312 282.96875 724.175781 284.5625 C 689.378906 309.082031 654.582031 333.605469 619.785156 358.125 C 617.519531 359.722656 616.972656 362.859375 618.570312 365.125 " fill-opacity="1" fill-rule="nonzero"/><path fill="#ffffff" d="M 664.535156 373.539062 C 655.941406 378.003906 647.019531 381.847656 637.875 385.027344 C 635.253906 385.941406 633.867188 388.804688 634.777344 391.421875 C 635.691406 394.042969 638.554688 395.425781 641.175781 394.519531 L 641.171875 394.519531 C 650.777344 391.175781 660.140625 387.144531 669.164062 382.457031 C 671.628906 381.175781 672.585938 378.144531 671.308594 375.683594 C 670.03125 373.222656 666.996094 372.261719 664.535156 373.539062 " fill-opacity="1" fill-rule="nonzero"/><path fill="#ffffff" d="M 151.671875 416.511719 C 153.945312 418.105469 157.078125 417.554688 158.671875 415.285156 C 160.261719 413.015625 159.714844 409.878906 157.441406 408.289062 C 148.257812 401.847656 139.070312 395.40625 129.890625 388.972656 C 127.617188 387.375 124.484375 387.929688 122.890625 390.199219 C 121.296875 392.472656 121.851562 395.605469 124.121094 397.199219 C 133.304688 403.636719 142.488281 410.074219 151.671875 416.511719 " fill-opacity="1" fill-rule="nonzero"/><path fill="#ffffff" d="M 112.523438 483.324219 C 114.320312 485.433594 117.492188 485.691406 119.605469 483.890625 L 119.601562 483.890625 C 130.472656 474.621094 142.15625 466.097656 154.519531 458.425781 C 156.875 456.964844 157.601562 453.867188 156.136719 451.507812 C 154.675781 449.152344 151.578125 448.429688 149.222656 449.890625 C 136.4375 457.828125 124.347656 466.644531 113.085938 476.242188 C 110.972656 478.042969 110.722656 481.210938 112.523438 483.324219 " fill-opacity="1" fill-rule="nonzero"/><path fill="#ffffff" d="M 198.429688 501.539062 C 200.351562 499.542969 200.296875 496.363281 198.300781 494.4375 C 196.304688 492.511719 193.121094 492.566406 191.195312 494.5625 C 159.121094 527.824219 125.621094 559.988281 90.796875 590.96875 C 88.726562 592.8125 88.539062 595.988281 90.382812 598.058594 C 92.226562 600.136719 95.402344 600.320312 97.476562 598.476562 L 97.472656 598.476562 C 132.492188 567.324219 166.175781 534.984375 198.429688 501.539062 " fill-opacity="1" fill-rule="nonzero"/><path fill="#ffffff" d="M 231.898438 518.765625 C 229.898438 516.84375 226.71875 516.910156 224.796875 518.910156 C 215.355469 528.742188 206.597656 539.101562 198.585938 549.917969 C 196.933594 552.148438 197.402344 555.292969 199.632812 556.945312 C 201.859375 558.597656 205.007812 558.128906 206.660156 555.898438 C 214.414062 545.433594 222.894531 535.402344 232.042969 525.871094 C 233.964844 523.867188 233.898438 520.6875 231.898438 518.765625 " fill-opacity="1" fill-rule="nonzero"/><path fill="#ffffff" d="M 272.144531 548.519531 C 269.761719 547.097656 266.679688 547.871094 265.257812 550.253906 C 243.878906 586 221.332031 621.179688 197.652344 655.730469 C 196.085938 658.019531 196.667969 661.148438 198.957031 662.71875 C 201.246094 664.285156 204.375 663.699219 205.941406 661.414062 C 229.734375 626.691406 252.394531 591.335938 273.878906 555.40625 C 275.304688 553.03125 274.527344 549.941406 272.144531 548.519531 " fill-opacity="1" fill-rule="nonzero"/><path fill="#ffffff" d="M 313.378906 558.191406 C 310.710938 557.433594 307.933594 558.980469 307.171875 561.644531 C 303.410156 574.863281 298.503906 587.804688 292.515625 600.324219 C 291.316406 602.824219 292.375 605.824219 294.878906 607.023438 C 297.378906 608.222656 300.378906 607.164062 301.578125 604.660156 C 307.808594 591.636719 312.917969 578.167969 316.835938 564.398438 C 317.59375 561.730469 316.046875 558.949219 313.378906 558.191406 " fill-opacity="1" fill-rule="nonzero"/><path fill="#ffffff" d="M 370.589844 557.085938 C 367.832031 556.808594 365.367188 558.824219 365.089844 561.582031 C 359.667969 615.539062 352.027344 669.273438 342.1875 722.652344 C 341.683594 725.378906 343.488281 728 346.214844 728.503906 C 348.941406 729.003906 351.5625 727.203125 352.066406 724.472656 C 361.957031 670.828125 369.636719 616.816406 375.085938 562.585938 C 375.363281 559.828125 373.351562 557.363281 370.589844 557.085938 " fill-opacity="1" fill-rule="nonzero"/><path fill="#ffffff" d="M 413.976562 565.539062 C 411.203125 565.710938 409.097656 568.09375 409.273438 570.867188 C 410.085938 583.972656 410.902344 597.085938 411.722656 610.195312 C 411.894531 612.964844 414.277344 615.066406 417.050781 614.898438 C 419.816406 614.726562 421.925781 612.339844 421.75 609.570312 C 420.933594 596.460938 420.113281 583.347656 419.296875 570.242188 C 419.125 567.46875 416.742188 565.367188 413.976562 565.539062 " fill-opacity="1" fill-rule="nonzero"/><path fill="#ffffff" d="M 511.933594 703.867188 C 513.027344 706.414062 515.984375 707.597656 518.53125 706.5 C 521.082031 705.410156 522.261719 702.457031 521.171875 699.90625 C 501.136719 653.226562 482.257812 606.171875 464.550781 558.792969 C 463.582031 556.191406 460.6875 554.871094 458.089844 555.84375 C 455.492188 556.816406 454.167969 559.707031 455.140625 562.308594 C 472.90625 609.839844 491.84375 657.039062 511.933594 703.867188 " fill-opacity="1" fill-rule="nonzero"/><path fill="#ffffff" d="M 544.40625 586.566406 C 546.65625 584.9375 547.152344 581.800781 545.527344 579.550781 C 536.082031 566.519531 526.640625 553.484375 517.199219 540.457031 C 515.570312 538.207031 512.429688 537.707031 510.179688 539.335938 C 507.9375 540.964844 507.433594 544.105469 509.0625 546.347656 C 518.503906 559.382812 527.949219 572.414062 537.390625 585.445312 C 539.019531 587.691406 542.160156 588.195312 544.40625 586.566406 " fill-opacity="1" fill-rule="nonzero"/><path fill="#ffffff" d="M 649.554688 622.46875 C 651.589844 620.574219 651.695312 617.398438 649.800781 615.371094 C 620.855469 584.386719 591.914062 553.40625 562.964844 522.421875 C 561.070312 520.398438 557.894531 520.285156 555.867188 522.179688 C 553.84375 524.078125 553.730469 527.253906 555.625 529.28125 C 584.574219 560.261719 613.515625 591.246094 642.457031 622.230469 C 644.351562 624.253906 647.53125 624.363281 649.554688 622.46875 " fill-opacity="1" fill-rule="nonzero"/><path fill="#ffffff" d="M 624.332031 526.480469 C 626.285156 528.453125 629.457031 528.476562 631.4375 526.527344 C 633.410156 524.578125 633.433594 521.398438 631.484375 519.421875 C 620.605469 508.394531 609.417969 497.609375 597.929688 487.082031 C 595.886719 485.207031 592.710938 485.34375 590.835938 487.390625 C 588.960938 489.433594 589.097656 492.613281 591.140625 494.488281 C 602.503906 504.902344 613.574219 515.574219 624.332031 526.480469 " fill-opacity="1" fill-rule="nonzero"/><path fill="#ffffff" d="M 622.078125 456.316406 C 620.398438 458.523438 620.820312 461.675781 623.03125 463.359375 C 659.742188 491.359375 696.457031 519.363281 733.179688 547.363281 C 735.386719 549.046875 738.535156 548.621094 740.21875 546.414062 C 741.898438 544.210938 741.476562 541.058594 739.265625 539.375 C 702.550781 511.371094 665.839844 483.371094 629.117188 455.371094 C 626.910156 453.6875 623.757812 454.113281 622.078125 456.316406 " fill-opacity="1" fill-rule="nonzero"/><path fill="#ffffff" d="M 674.453125 452.558594 C 676.855469 453.953125 679.929688 453.128906 681.320312 450.726562 C 682.707031 448.328125 681.890625 445.253906 679.484375 443.863281 C 669.847656 438.289062 659.777344 433.328125 649.367188 429.03125 C 646.808594 427.972656 643.867188 429.191406 642.8125 431.757812 C 641.746094 434.320312 642.972656 437.257812 645.53125 438.316406 C 655.53125 442.445312 665.207031 447.207031 674.453125 452.558594 " fill-opacity="1" fill-rule="nonzero"/></svg>