<svg xmlns="http://www.w3.org/2000/svg" xmlns:xlink="http://www.w3.org/1999/xlink" width="1080" zoomAndPan="magnify" viewBox="0 0 810 809.999993" height="1080" preserveAspectRatio="xMidYMid meet" version="1.0"><defs><clipPath id="de48efc271"><path d="M 52 81 L 708 81 L 708 729 L 52 729 Z M 52 81 " clip-rule="nonzero"/></clipPath></defs><g clip-path="url(#de48efc271)"><path fill="#ffffff" d="M 657.074219 371.289062 C 628.039062 336.007812 551.65625 249.035156 490.375 179.683594 C 490.171875 179.265625 489.882812 178.882812 489.496094 178.566406 C 489.417969 178.503906 489.328125 178.457031 489.242188 178.398438 C 442.648438 125.675781 405.066406 83.449219 404.199219 82.476562 C 402.9375 81.054688 400.488281 81.054688 399.226562 82.476562 C 398.203125 83.628906 345.671875 142.644531 287.671875 208.433594 C 282.363281 207.882812 276.957031 207.59375 271.441406 207.59375 C 259.203125 207.59375 246.328125 209 233.175781 211.773438 C 226.273438 213.230469 219.800781 214.976562 213.695312 216.941406 C 210.195312 216.734375 206.628906 216.613281 202.972656 216.613281 C 194.371094 216.613281 185.410156 217.230469 176.160156 218.402344 C 175.367188 217.882812 174.363281 217.691406 173.382812 217.988281 C 172.761719 218.175781 172.246094 218.535156 171.851562 218.988281 C 162.585938 220.328125 153.054688 222.214844 143.28125 224.695312 C 102.15625 235.117188 79.613281 257.078125 67.941406 273.664062 C 55.226562 291.734375 52.34375 307.230469 52.230469 307.882812 C 51.992188 309.199219 52.566406 310.527344 53.6875 311.257812 C 54.808594 311.988281 56.257812 311.976562 57.367188 311.226562 C 78.429688 297.015625 102.863281 289.144531 128.285156 288.328125 C 114.765625 316.234375 114.546875 340.390625 114.542969 341.433594 C 114.539062 342.867188 115.453125 344.140625 116.808594 344.597656 C 118.164062 345.054688 119.660156 344.589844 120.523438 343.449219 L 122.085938 341.386719 C 131.691406 328.671875 140.394531 317.167969 151.675781 308.359375 C 152.117188 308.152344 152.484375 307.855469 152.78125 307.503906 C 159.601562 302.367188 167.390625 298.210938 176.863281 295.34375 C 185.488281 298.136719 193.929688 301.726562 202.070312 306.101562 C 178.363281 333.382812 158.324219 356.734375 146.347656 371.292969 C 103.925781 422.832031 86.183594 492.515625 101.140625 548.816406 C 113.289062 594.535156 145.101562 628.625 193.203125 647.523438 L 192.980469 725.769531 C 192.976562 726.652344 193.324219 727.503906 193.949219 728.128906 C 194.574219 728.753906 195.421875 729.105469 196.304688 729.105469 L 226.546875 729.105469 C 226.5625 729.105469 226.582031 729.113281 226.597656 729.113281 C 226.617188 729.113281 226.632812 729.113281 226.648438 729.109375 C 226.664062 729.109375 226.675781 729.105469 226.6875 729.105469 L 466.863281 729.105469 C 466.871094 729.105469 466.878906 729.109375 466.890625 729.109375 C 466.902344 729.109375 466.910156 729.105469 466.917969 729.105469 L 555.09375 729.105469 C 555.109375 729.105469 555.121094 729.113281 555.140625 729.113281 C 555.152344 729.113281 555.164062 729.113281 555.175781 729.113281 C 555.191406 729.113281 555.210938 729.105469 555.226562 729.105469 L 607.617188 729.105469 C 608.503906 729.105469 609.355469 728.753906 609.980469 728.125 C 610.605469 727.496094 610.953125 726.640625 610.945312 725.753906 L 610.398438 647.519531 C 658.449219 628.640625 690.226562 594.59375 702.355469 548.929688 C 717.316406 492.621094 699.542969 422.894531 657.074219 371.289062 Z M 151.484375 375.519531 C 163.582031 360.820312 183.925781 337.117188 207.976562 309.453125 C 209.675781 310.496094 211.351562 311.601562 213.003906 312.753906 C 213.40625 313.265625 213.941406 313.636719 214.542969 313.839844 C 221.589844 318.953125 228.164062 325.03125 234.246094 331.628906 C 234.546875 332.535156 235.210938 333.234375 236.039062 333.605469 C 245.039062 343.679688 252.910156 354.839844 259.539062 365.601562 C 245.648438 356.289062 225.441406 348.816406 196.34375 348.816406 C 192.8125 348.816406 189.148438 348.925781 185.457031 349.144531 C 184.515625 349.199219 183.640625 349.652344 183.054688 350.386719 C 182.464844 351.125 182.214844 352.078125 182.371094 353.007812 C 182.488281 353.71875 185.371094 370.597656 196.195312 387.699219 C 203.996094 400.027344 217.199219 414.175781 238.382812 419.992188 C 228.25 436.214844 218.882812 458.917969 219.78125 486.785156 L 220.742188 552.535156 C 219.460938 552.101562 217.996094 552.46875 217.09375 553.578125 L 176.214844 603.804688 L 176.554688 544.074219 L 215.429688 496.308594 C 216.589844 494.882812 216.375 492.785156 214.949219 491.625 C 213.523438 490.464844 211.429688 490.683594 210.269531 492.105469 L 176.617188 533.453125 L 176.949219 475.535156 L 202.402344 444.253906 C 203.5625 442.828125 203.347656 440.734375 201.921875 439.574219 C 200.496094 438.414062 198.402344 438.628906 197.238281 440.054688 L 177.007812 464.914062 L 177.167969 437.066406 C 177.179688 435.230469 175.695312 433.730469 173.859375 433.722656 C 173.851562 433.722656 173.84375 433.722656 173.839844 433.722656 C 172.011719 433.722656 170.523438 435.199219 170.511719 437.03125 L 170.347656 465.761719 L 147.695312 440.363281 C 146.472656 438.992188 144.367188 438.867188 142.996094 440.09375 C 141.625 441.316406 141.503906 443.421875 142.726562 444.792969 L 170.289062 475.695312 L 169.964844 532.882812 L 134.054688 492.621094 C 132.832031 491.25 130.726562 491.128906 129.355469 492.351562 C 127.984375 493.574219 127.863281 495.679688 129.085938 497.050781 L 169.90625 542.816406 L 169.558594 603.722656 L 125.394531 554.210938 C 124.171875 552.839844 122.066406 552.714844 120.695312 553.941406 C 119.324219 555.164062 119.203125 557.269531 120.425781 558.640625 L 169.5 613.65625 L 169.417969 628.464844 C 137.949219 609.484375 116.789062 581.796875 107.574219 547.109375 C 93.148438 492.8125 110.382812 425.460938 151.484375 375.519531 Z M 122.277344 330.132812 C 123.550781 321.589844 126.332031 309.027344 132.375 295.351562 C 134.171875 295.464844 141.292969 296.429688 145.988281 304.386719 C 137.003906 311.730469 129.617188 320.59375 122.277344 330.132812 Z M 172.140625 225.675781 C 179.992188 256.875 165.253906 281.796875 163.339844 284.84375 C 157.945312 283.703125 152.511719 282.847656 147.0625 282.308594 C 149.632812 273.410156 154.1875 251.566406 144.816406 231.171875 C 144.851562 231.164062 144.882812 231.15625 144.917969 231.144531 C 154.234375 228.785156 163.3125 226.976562 172.140625 225.675781 Z M 100.296875 285.320312 C 100.945312 279.007812 100.414062 268.101562 92.210938 257.191406 C 96.890625 253.253906 102.1875 249.441406 108.214844 245.902344 C 118.886719 260.199219 117.820312 276.792969 117.058594 282.460938 C 111.398438 283.085938 105.804688 284.03125 100.296875 285.320312 Z M 114.097656 242.6875 C 121.234375 238.996094 129.265625 235.695312 138.304688 232.988281 C 147.816406 252.597656 142.378906 274.820312 140.25 281.808594 C 137.734375 281.675781 135.214844 281.589844 132.699219 281.589844 C 129.738281 281.589844 126.789062 281.691406 123.855469 281.871094 C 124.695312 274.335938 124.929688 257.714844 114.097656 242.6875 Z M 87.234375 261.644531 C 95.179688 272.546875 94.101562 283.210938 93.316406 287.160156 C 82.097656 290.398438 71.300781 295.015625 61.148438 300.980469 C 64.433594 291.828125 71.832031 276.277344 87.234375 261.644531 Z M 135.355469 289.054688 C 135.425781 288.917969 135.492188 288.78125 135.5625 288.640625 C 135.621094 288.527344 135.683594 288.414062 135.746094 288.296875 C 145.851562 288.523438 155.96875 289.847656 165.917969 292.242188 C 160.5625 294.539062 155.753906 297.269531 151.339844 300.347656 C 146.410156 292.417969 139.496094 289.867188 135.355469 289.054688 Z M 170.144531 286.453125 C 174.480469 278.902344 186.089844 254.863281 178.769531 224.792969 C 187.109375 223.800781 195.199219 223.269531 202.972656 223.269531 C 208.671875 223.269531 214.148438 223.542969 219.429688 224.039062 C 221.972656 267.109375 193.167969 288.53125 187.746094 292.164062 C 181.964844 289.902344 176.085938 287.996094 170.144531 286.453125 Z M 656 494.003906 C 656.515625 494.273438 668.554688 500.835938 667.105469 518.90625 C 667.015625 520.007812 666.867188 521.058594 666.6875 522.078125 C 662.960938 516.203125 656.148438 507.738281 647.144531 506.292969 C 637.285156 504.699219 629.28125 517.636719 638.433594 524.308594 C 645.707031 529.621094 657.972656 529.269531 664.839844 528.546875 C 658.464844 543.898438 641.363281 547.449219 639.292969 547.824219 L 609.851562 549.097656 C 608.015625 549.179688 606.589844 550.730469 606.671875 552.566406 C 606.75 554.355469 608.222656 555.75 609.992188 555.75 C 610.042969 555.75 610.089844 555.75 610.140625 555.746094 L 639.792969 554.464844 C 639.921875 554.460938 640.050781 554.445312 640.179688 554.425781 C 640.355469 554.398438 650.554688 552.632812 659.683594 545.578125 C 654.890625 568.605469 627.617188 574.65625 624.378906 575.292969 L 549.078125 575.625 C 547.238281 575.632812 545.753906 577.128906 545.761719 578.964844 C 545.769531 580.800781 547.257812 582.28125 549.089844 582.28125 C 549.09375 582.28125 549.101562 582.28125 549.105469 582.28125 L 572.480469 582.175781 C 564.109375 590.242188 535.660156 613.691406 483.6875 618.703125 C 444.714844 622.453125 403.140625 601.464844 402.722656 601.253906 C 401.089844 600.417969 399.082031 601.0625 398.246094 602.699219 C 397.410156 604.335938 398.054688 606.339844 399.691406 607.175781 C 401.15625 607.929688 430.351562 622.6875 463.675781 625.390625 C 463.675781 625.421875 463.667969 625.449219 463.667969 625.480469 L 463.566406 722.449219 L 229.878906 722.449219 L 226.433594 486.628906 C 225.554688 459.414062 235.371094 437.109375 245.46875 421.558594 C 249.78125 422.292969 254.378906 422.707031 259.292969 422.707031 C 259.296875 422.707031 259.300781 422.707031 259.300781 422.707031 C 268.859375 422.707031 279.207031 421.175781 290.066406 418.160156 C 290.492188 418.039062 290.871094 417.839844 291.203125 417.582031 C 334.597656 416.417969 357.179688 399.289062 368.53125 384.898438 C 377.941406 372.972656 381.332031 361.140625 382.492188 355.484375 C 398.8125 356.976562 408.496094 362.796875 408.597656 362.859375 C 408.660156 362.898438 408.726562 362.9375 408.792969 362.972656 Z M 197.71875 642.128906 C 190.066406 639.226562 182.84375 635.921875 176.050781 632.25 L 176.152344 614.421875 L 220.84375 559.515625 L 223.222656 722.449219 L 199.644531 722.449219 L 199.863281 645.25 C 199.867188 643.867188 199.011719 642.621094 197.71875 642.128906 Z M 274.347656 239.25 C 275.691406 239.890625 277.015625 240.542969 278.324219 241.207031 C 278.761719 241.609375 279.296875 241.886719 279.878906 242.015625 C 289.820312 247.203125 298.773438 253.035156 306.992188 258.9375 C 291.347656 308.519531 249.023438 323.746094 238.886719 326.730469 C 233.683594 321.144531 228.109375 315.910156 222.183594 311.261719 C 235.195312 304.457031 267.828125 283.230469 274.347656 239.25 Z M 269.425781 382.917969 C 276.761719 396.761719 281.53125 408.15625 283.453125 412.980469 C 274.945312 415.011719 266.839844 416.050781 259.300781 416.050781 C 259.300781 416.050781 259.296875 416.050781 259.292969 416.050781 C 234.628906 416.046875 215.332031 405.375 201.933594 384.324219 C 194.664062 372.898438 191.15625 361.324219 189.742188 355.597656 C 191.976562 355.515625 194.1875 355.472656 196.34375 355.472656 C 228.652344 355.472656 253.203125 364.71875 269.425781 382.917969 Z M 243.734375 332.160156 C 258.246094 327.246094 296.824219 310.09375 312.636719 263.097656 C 322.179688 270.296875 330.375 277.894531 337.398438 285.503906 C 337.652344 285.929688 337.976562 286.285156 338.367188 286.546875 C 339.816406 288.144531 341.21875 289.738281 342.566406 291.328125 C 342.542969 291.367188 342.507812 291.398438 342.480469 291.441406 C 311.132812 342.433594 265.289062 349.515625 257.699219 350.347656 C 253.433594 344.171875 248.777344 338.027344 243.734375 332.160156 Z M 387.988281 276.535156 C 385.085938 294.1875 366.117188 300.445312 359.375 302.121094 C 355.433594 296.433594 350.902344 290.542969 345.667969 284.605469 C 352.792969 280.304688 367.074219 269.902344 369.082031 254.648438 C 375.703125 261.164062 382.007812 268.460938 387.988281 276.535156 Z M 382.402344 348.800781 C 381.789062 346.652344 380.660156 343.050781 378.828125 338.34375 C 385.109375 336.90625 402.578125 331.789062 411.769531 317.84375 C 418.898438 334.8125 422.597656 350.636719 424.433594 363.730469 L 412 357.136719 C 410.722656 356.371094 400.027344 350.253906 382.402344 348.800781 Z M 366.921875 328.203125 C 373.082031 340.597656 375.742188 349.664062 376.359375 351.949219 C 375.945312 354.757812 373.507812 367.984375 363.085938 381.050781 C 347.757812 400.273438 323.121094 410.328125 289.824219 410.960938 C 288.21875 406.835938 284.421875 397.539062 278.566406 385.863281 C 292.265625 384.984375 334.867188 378.132812 366.921875 328.203125 Z M 376.226562 332.089844 C 373.21875 325.242188 369.023438 316.980469 363.285156 307.992188 C 371.617188 305.613281 387.417969 299.167969 393.015625 283.632812 C 394.65625 286.046875 396.277344 288.5 397.863281 291.035156 C 401.910156 297.496094 405.390625 303.921875 408.378906 310.222656 C 401.242188 326.105469 380.488281 331.199219 376.226562 332.089844 Z M 341.0625 279.574219 C 335.160156 273.34375 328.480469 267.121094 320.925781 261.09375 C 325.992188 256.613281 336.109375 245.539062 334.949219 229.453125 C 344.65625 234.554688 353.863281 240.9375 362.558594 248.585938 C 362.558594 248.699219 362.546875 248.808594 362.558594 248.921875 C 364.117188 264.675781 347.300781 275.960938 341.0625 279.574219 Z M 347 296.765625 C 349.648438 300.136719 352.078125 303.464844 354.300781 306.726562 C 354.5 307.523438 354.96875 308.183594 355.601562 308.632812 C 358.582031 313.117188 361.167969 317.441406 363.417969 321.519531 C 363.199219 321.71875 362.996094 321.941406 362.832031 322.207031 C 329.363281 376.445312 281.796875 379.207031 275.195312 379.320312 C 271.410156 372.171875 266.949219 364.402344 261.84375 356.539062 C 275.882812 354.390625 316.96875 344.179688 347 296.765625 Z M 327.757812 225.957031 C 331.179688 242.617188 319.410156 253.789062 315.542969 256.941406 C 315.484375 256.898438 315.429688 256.851562 315.371094 256.808594 C 307.28125 250.8125 298.121094 244.53125 287.71875 238.761719 C 293.074219 234.898438 298.492188 227.828125 298.5 216.753906 C 308.679688 218.691406 318.4375 221.765625 327.757812 225.957031 Z M 459.816406 220.300781 L 487.421875 186.390625 C 493.113281 192.835938 498.933594 199.425781 504.824219 206.101562 C 504.472656 206.300781 504.152344 206.558594 503.882812 206.890625 L 459.582031 261.3125 Z M 459.875 209.683594 L 460.007812 186.273438 C 460.019531 184.4375 458.539062 182.9375 456.699219 182.929688 C 454.847656 182.890625 453.363281 184.398438 453.351562 186.238281 L 453.214844 210.476562 L 425.523438 179.425781 C 424.300781 178.054688 422.195312 177.933594 420.824219 179.15625 C 419.453125 180.378906 419.332031 182.484375 420.554688 183.855469 L 453.15625 220.414062 L 452.917969 262.3125 L 404.097656 207.582031 C 402.875 206.210938 400.773438 206.089844 399.402344 207.3125 C 398.027344 208.535156 397.910156 210.640625 399.132812 212.011719 L 452.863281 272.246094 L 452.59375 319.625 L 388.398438 247.660156 C 387.171875 246.289062 385.070312 246.167969 383.699219 247.390625 C 382.328125 248.617188 382.207031 250.71875 383.429688 252.089844 L 452.535156 329.558594 L 452.257812 378.476562 L 431.789062 367.628906 C 429.429688 346.667969 422.421875 317.714844 403.507812 287.503906 C 375.371094 242.5625 339.160156 216.40625 295.628906 209.472656 C 345.535156 152.882812 390.785156 101.980469 401.714844 89.695312 C 410.789062 99.898438 443.53125 136.730469 482.953125 181.335938 Z M 291.820312 215.65625 C 292.324219 228.496094 284.011719 233.613281 280.792969 235.101562 C 273.855469 231.613281 266.414062 228.394531 258.394531 225.660156 C 258.476562 223.195312 258.332031 219.40625 257.285156 214.882812 C 262.085938 214.46875 266.816406 214.25 271.441406 214.25 C 278.410156 214.25 285.199219 214.730469 291.820312 215.65625 Z M 250.609375 215.597656 C 251.402344 218.734375 251.683594 221.484375 251.742188 223.550781 C 245.378906 221.671875 238.675781 220.105469 231.617188 218.9375 C 232.589844 218.71875 233.5625 218.496094 234.546875 218.289062 C 239.964844 217.144531 245.324219 216.257812 250.609375 215.597656 Z M 226.125 224.796875 C 235.644531 226.078125 244.488281 228.109375 252.738281 230.699219 C 253.171875 231.0625 253.691406 231.328125 254.289062 231.429688 C 254.480469 231.464844 254.671875 231.480469 254.859375 231.480469 C 254.9375 231.480469 255.011719 231.464844 255.085938 231.460938 C 259.578125 232.949219 263.890625 234.601562 268.042969 236.386719 C 262.070312 283.0625 224.648438 302.90625 216.152344 306.832031 C 213.765625 305.195312 211.332031 303.652344 208.839844 302.226562 C 204.289062 299.632812 199.640625 297.277344 194.914062 295.15625 C 204.996094 287.246094 228.011719 264.664062 226.125 224.796875 Z M 605.875 642.128906 C 604.574219 642.625 603.71875 643.875 603.726562 645.265625 L 604.265625 722.449219 L 558.539062 722.449219 L 558.667969 710.5 L 592.535156 668.890625 C 593.695312 667.464844 593.480469 665.367188 592.054688 664.207031 C 590.628906 663.046875 588.535156 663.261719 587.371094 664.6875 L 558.785156 699.8125 L 559.09375 671.125 L 583.871094 640.683594 C 585.03125 639.257812 584.816406 637.164062 583.390625 636.003906 C 581.964844 634.84375 579.867188 635.058594 578.707031 636.484375 L 559.210938 660.4375 L 559.585938 625.714844 C 559.605469 623.875 558.132812 622.371094 556.296875 622.351562 C 554.503906 622.300781 552.953125 623.804688 552.933594 625.644531 L 552.550781 660.804688 L 531.113281 636.773438 C 529.890625 635.402344 527.785156 635.28125 526.414062 636.507812 C 525.042969 637.730469 524.921875 639.832031 526.148438 641.207031 L 552.445312 670.683594 L 552.125 700.035156 L 520.984375 665.128906 C 519.761719 663.757812 517.660156 663.636719 516.289062 664.859375 C 514.917969 666.085938 514.796875 668.1875 516.019531 669.558594 L 552.019531 709.914062 L 551.882812 722.449219 L 470.222656 722.449219 L 470.324219 625.761719 C 471.507812 625.796875 472.695312 625.816406 473.886719 625.816406 C 477.355469 625.816406 480.847656 625.664062 484.324219 625.328125 C 549.679688 619.027344 579.011719 585.171875 580.230469 583.734375 C 580.628906 583.261719 580.863281 582.707031 580.957031 582.140625 L 624.714844 581.949219 C 624.90625 581.945312 625.097656 581.929688 625.285156 581.894531 C 625.699219 581.820312 666.71875 574.085938 667.074219 538.867188 C 667.074219 538.613281 667.042969 538.371094 666.992188 538.132812 C 670.5 533.355469 673.113281 527.25 673.738281 519.4375 C 675.554688 496.796875 659.722656 488.433594 659.09375 488.109375 L 609.1875 461.660156 L 609.605469 423.367188 L 640.464844 385.453125 C 641.625 384.027344 641.410156 381.933594 639.984375 380.773438 C 638.558594 379.613281 636.460938 379.828125 635.300781 381.25 L 609.71875 412.683594 L 610.265625 362.175781 C 610.285156 360.335938 608.8125 358.832031 606.976562 358.808594 C 605.167969 358.84375 603.632812 360.265625 603.613281 362.101562 L 603.070312 412.117188 L 575.875 381.636719 C 574.652344 380.265625 572.550781 380.144531 571.175781 381.367188 C 569.804688 382.59375 569.683594 384.695312 570.910156 386.066406 L 602.960938 421.996094 L 602.570312 458.152344 L 458.894531 381.992188 L 459.179688 331.480469 C 459.21875 331.4375 459.269531 331.402344 459.304688 331.355469 L 524.765625 250.921875 C 525.925781 249.496094 525.710938 247.398438 524.285156 246.238281 C 522.863281 245.078125 520.765625 245.296875 519.605469 246.71875 L 459.242188 320.890625 L 459.519531 271.925781 L 509.042969 211.089844 C 509.074219 211.050781 509.089844 211.011719 509.121094 210.972656 C 565.105469 274.46875 626.601562 344.730469 651.9375 375.519531 C 693.085938 425.519531 710.351562 492.917969 695.925781 547.222656 C 684.183594 591.40625 653.046875 624.222656 605.875 642.128906 Z M 391.996094 455.0625 C 391.996094 465.75 385.082031 474.414062 376.554688 474.414062 C 368.023438 474.414062 361.109375 465.75 361.109375 455.0625 C 361.109375 444.375 368.023438 435.710938 376.554688 435.710938 C 385.082031 435.710938 391.996094 444.375 391.996094 455.0625 Z M 391.996094 455.0625 " fill-opacity="1" fill-rule="nonzero"/></g></svg>