<svg xmlns="http://www.w3.org/2000/svg" xmlns:xlink="http://www.w3.org/1999/xlink" width="1080" zoomAndPan="magnify" viewBox="0 0 810 809.999993" height="1080" preserveAspectRatio="xMidYMid meet" version="1.0"><defs><clipPath id="00bb9a95b7"><path d="M 154.441406 45.777344 L 655.441406 45.777344 L 655.441406 764.277344 L 154.441406 764.277344 Z M 154.441406 45.777344 " clip-rule="nonzero"/></clipPath></defs><g clip-path="url(#00bb9a95b7)"><path fill="#ffffff" d="M 439.75 289.027344 C 439.75 268.046875 422.765625 250.976562 401.886719 250.976562 C 381.011719 250.976562 364.027344 268.046875 364.027344 289.027344 C 364.027344 310.011719 381.011719 327.082031 401.886719 327.082031 C 422.765625 327.082031 439.75 310.011719 439.75 289.027344 Z M 401.886719 319.753906 C 385.054688 319.753906 371.359375 305.96875 371.359375 289.027344 C 371.359375 272.089844 385.054688 258.304688 401.886719 258.304688 C 418.722656 258.304688 432.421875 272.089844 432.421875 289.027344 C 432.421875 305.96875 418.722656 319.753906 401.886719 319.753906 Z M 400.988281 267.136719 C 388.90625 267.136719 379.078125 277.015625 379.078125 289.15625 C 379.078125 301.296875 388.90625 311.171875 400.988281 311.171875 C 413.074219 311.171875 422.90625 301.296875 422.90625 289.15625 C 422.90625 277.015625 413.074219 267.136719 400.988281 267.136719 Z M 400.988281 303.84375 C 392.949219 303.84375 386.40625 297.253906 386.40625 289.15625 C 386.40625 281.054688 392.949219 274.464844 400.988281 274.464844 C 409.035156 274.464844 415.578125 281.054688 415.578125 289.15625 C 415.578125 297.253906 409.035156 303.84375 400.988281 303.84375 Z M 567.574219 308.664062 C 567.574219 287.683594 550.589844 270.609375 529.710938 270.609375 C 508.832031 270.609375 491.84375 287.683594 491.84375 308.664062 C 491.84375 329.648438 508.832031 346.722656 529.710938 346.722656 C 550.589844 346.722656 567.574219 329.648438 567.574219 308.664062 Z M 529.710938 277.941406 C 546.546875 277.941406 560.246094 291.722656 560.246094 308.664062 C 560.246094 325.609375 546.546875 339.390625 529.710938 339.390625 C 512.875 339.390625 499.175781 325.609375 499.175781 308.664062 C 499.175781 291.722656 512.875 277.941406 529.710938 277.941406 Z M 528.8125 330.808594 C 540.894531 330.808594 550.722656 320.933594 550.722656 308.792969 C 550.722656 296.652344 540.894531 286.773438 528.8125 286.773438 C 516.730469 286.773438 506.898438 296.652344 506.898438 308.792969 C 506.898438 320.933594 516.730469 330.808594 528.8125 330.808594 Z M 528.8125 294.101562 C 536.855469 294.101562 543.394531 300.691406 543.394531 308.792969 C 543.394531 316.890625 536.855469 323.480469 528.8125 323.480469 C 520.773438 323.480469 514.230469 316.890625 514.230469 308.792969 C 514.230469 300.691406 520.773438 294.101562 528.8125 294.101562 Z M 279.105469 279.707031 C 258.230469 279.707031 241.246094 296.78125 241.246094 317.765625 C 241.246094 338.75 258.230469 355.820312 279.105469 355.820312 C 299.984375 355.820312 316.96875 338.75 316.96875 317.765625 C 316.96875 296.78125 299.984375 279.707031 279.105469 279.707031 Z M 279.105469 348.492188 C 262.273438 348.492188 248.574219 334.707031 248.574219 317.765625 C 248.574219 300.820312 262.273438 287.039062 279.105469 287.039062 C 295.941406 287.039062 309.636719 300.820312 309.636719 317.765625 C 309.636719 334.707031 295.941406 348.492188 279.105469 348.492188 Z M 278.207031 295.871094 C 266.121094 295.871094 256.292969 305.75 256.292969 317.890625 C 256.292969 330.03125 266.121094 339.910156 278.207031 339.910156 C 290.292969 339.910156 300.125 330.03125 300.125 317.890625 C 300.125 305.75 290.292969 295.871094 278.207031 295.871094 Z M 278.207031 332.578125 C 270.164062 332.578125 263.621094 325.988281 263.621094 317.890625 C 263.621094 309.789062 270.164062 303.203125 278.207031 303.203125 C 286.25 303.203125 292.796875 309.789062 292.796875 317.890625 C 292.796875 325.988281 286.25 332.578125 278.207031 332.578125 Z M 456.773438 474.25 C 456.773438 479.515625 453.375 483.773438 449.175781 483.773438 C 444.980469 483.773438 441.574219 479.515625 441.574219 474.25 C 441.574219 468.992188 444.980469 464.730469 449.175781 464.730469 C 453.375 464.730469 456.773438 468.992188 456.773438 474.25 Z M 451.515625 278.054688 C 444.964844 242.988281 404.367188 216.730469 402.640625 215.632812 C 402.050781 215.257812 401.367188 215.054688 400.667969 215.054688 L 400.371094 215.054688 C 399.675781 215.054688 398.996094 215.253906 398.410156 215.625 C 396.683594 216.71875 356.074219 242.816406 349.488281 278.054688 C 340.296875 327.234375 396.167969 359.902344 398.550781 361.269531 C 399.113281 361.59375 399.742188 361.753906 400.371094 361.753906 C 401 361.753906 401.625 361.59375 402.1875 361.273438 C 404.582031 359.90625 460.707031 327.238281 451.515625 278.054688 Z M 356.691406 279.398438 C 361.953125 251.253906 392.707031 228.429688 400.527344 223.03125 C 408.460938 228.464844 439.007812 251.019531 444.3125 279.402344 C 451.667969 318.769531 409.738281 347.84375 400.375 353.789062 C 391.035156 347.84375 349.324219 318.828125 356.691406 279.398438 Z M 325.640625 292.542969 C 310.621094 260.148438 264.804688 244.75 262.863281 244.113281 C 262.1875 243.890625 261.464844 243.871094 260.78125 244.050781 L 260.488281 244.125 C 259.828125 244.300781 259.226562 244.660156 258.753906 245.160156 C 257.351562 246.652344 224.460938 282.113281 226.765625 317.730469 C 230.003906 367.65625 292.203125 385.515625 294.847656 386.253906 C 295.171875 386.34375 295.503906 386.386719 295.832031 386.386719 C 296.769531 386.386719 297.683594 386.027344 298.378906 385.359375 C 300.359375 383.441406 346.6875 337.9375 325.640625 292.542969 Z M 294.773438 378.554688 C 284.257812 375.097656 236.675781 357.28125 234.082031 317.253906 C 232.214844 288.414062 256.296875 259.003906 262.632812 251.800781 C 271.648438 255.097656 306.828125 269.398438 318.992188 295.628906 C 335.835938 331.960938 302.378906 370.480469 294.773438 378.554688 Z M 510.105469 375.945312 C 510.796875 376.613281 511.714844 376.972656 512.648438 376.972656 C 512.976562 376.972656 513.308594 376.929688 513.632812 376.839844 C 516.277344 376.101562 578.476562 358.238281 581.710938 308.316406 C 584.023438 272.667969 551.125 237.234375 549.726562 235.746094 C 549.246094 235.234375 548.632812 234.875 547.953125 234.703125 L 547.667969 234.628906 C 546.996094 234.457031 546.285156 234.484375 545.621094 234.703125 C 543.675781 235.34375 497.839844 250.777344 482.839844 283.128906 C 461.792969 328.523438 508.121094 374.027344 510.105469 375.945312 Z M 489.492188 286.214844 C 501.632812 260.019531 536.835938 245.695312 545.851562 242.390625 C 552.195312 249.59375 576.269531 278.980469 574.398438 307.839844 C 571.808594 347.796875 524.222656 365.667969 513.707031 369.136719 C 506.097656 361.0625 472.644531 322.542969 489.492188 286.214844 Z M 655.042969 395.25 C 654.738281 387.34375 654.097656 379.671875 653.085938 371.804688 C 653.078125 371.699219 653.066406 371.597656 653.050781 371.496094 C 653.011719 371.265625 652.972656 370.996094 652.941406 370.761719 C 652.785156 369.550781 652.625 368.351562 652.457031 367.164062 C 651.953125 363.601562 651.386719 360.140625 650.738281 356.675781 C 650.730469 356.613281 650.722656 356.550781 650.710938 356.488281 L 650.191406 353.675781 C 648.921875 346.921875 647.257812 339.84375 645.257812 332.679688 C 645.253906 332.667969 645.25 332.660156 645.25 332.648438 C 645.246094 332.644531 645.246094 332.640625 645.246094 332.636719 C 645.246094 332.636719 645.246094 332.636719 645.242188 332.632812 C 644.859375 331.191406 644.460938 329.738281 644.039062 328.273438 C 642.765625 323.835938 641.324219 319.289062 639.667969 314.492188 C 638.269531 310.4375 636.761719 306.394531 635.1875 302.367188 C 633.085938 296.992188 630.855469 291.652344 628.476562 286.410156 C 595.960938 214.378906 538.527344 153.539062 496.070312 115.179688 C 448.644531 72.332031 408.144531 46.597656 407.738281 46.34375 C 407.15625 45.972656 406.476562 45.777344 405.78125 45.777344 L 404.253906 45.777344 C 403.558594 45.777344 402.878906 45.976562 402.289062 46.347656 C 395.679688 50.546875 239.679688 150.824219 178.910156 292.183594 C 176.128906 298.585938 173.59375 305.085938 171.269531 311.609375 C 169.902344 315.433594 168.59375 319.261719 167.402344 323.078125 C 166.933594 324.589844 166.488281 326.09375 166.046875 327.59375 C 166 327.761719 165.945312 327.929688 165.898438 328.097656 C 165.742188 328.636719 165.601562 329.164062 165.449219 329.699219 C 165.121094 330.859375 164.789062 332.015625 164.476562 333.175781 C 164.449219 333.273438 164.425781 333.371094 164.398438 333.46875 C 163.984375 335.011719 163.578125 336.558594 163.195312 338.101562 C 163.015625 338.816406 162.859375 339.511719 162.6875 340.21875 C 162.457031 341.167969 162.222656 342.117188 162.003906 343.0625 C 162.003906 343.074219 162 343.082031 161.996094 343.09375 L 161.796875 343.910156 C 160.882812 347.757812 160.117188 351.371094 159.457031 354.953125 C 157.910156 363.285156 156.734375 371.667969 155.929688 380.035156 C 155.910156 380.246094 155.894531 380.453125 155.875 380.660156 C 155.699219 382.542969 155.535156 384.425781 155.398438 386.304688 C 155.382812 386.480469 155.375 386.652344 155.363281 386.828125 C 154.933594 392.800781 154.691406 398.761719 154.644531 404.6875 C 154.644531 404.6875 154.644531 404.691406 154.644531 404.691406 C 154.644531 404.699219 154.644531 404.707031 154.644531 404.714844 L 154.648438 405.035156 C 154.628906 406.09375 154.621094 407.160156 154.617188 408.238281 C 154.613281 411.464844 154.683594 414.78125 154.820312 418.246094 C 154.820312 418.296875 154.824219 418.351562 154.824219 418.40625 C 154.917969 420.457031 155.046875 422.484375 155.179688 424.515625 C 155.222656 425.179688 155.246094 425.855469 155.292969 426.515625 C 155.867188 434.601562 156.761719 442.5 157.957031 450.078125 C 158.101562 451.035156 158.269531 452.019531 158.429688 452.992188 C 159.195312 457.699219 160.125 462.570312 161.199219 467.539062 C 161.335938 468.175781 161.464844 468.808594 161.609375 469.453125 C 161.609375 469.457031 161.613281 469.460938 161.613281 469.46875 C 175.078125 529.414062 207.785156 588.503906 258.832031 645.097656 C 260.253906 646.675781 261.691406 648.253906 263.144531 649.828125 C 267.511719 654.5625 272.003906 659.273438 276.605469 663.9375 C 282.707031 670.121094 288.992188 676.226562 295.425781 682.210938 C 350.59375 733.707031 401.917969 763.390625 402.429688 763.683594 C 402.996094 764.007812 403.625 764.167969 404.253906 764.167969 C 404.882812 764.167969 405.507812 764.007812 406.070312 763.6875 C 406.609375 763.378906 460.828125 732.238281 517.847656 678.253906 C 521.175781 675.113281 524.476562 671.933594 527.738281 668.710938 C 537.527344 659.054688 546.992188 649.058594 555.980469 638.882812 C 555.980469 638.882812 555.980469 638.882812 555.980469 638.878906 C 555.984375 638.878906 555.984375 638.878906 555.988281 638.875 C 609.46875 578.0625 641.726562 514.695312 651.867188 450.503906 C 652.078125 449.109375 652.273438 447.757812 652.460938 446.433594 C 652.535156 445.910156 652.597656 445.417969 652.664062 444.90625 C 652.773438 444.117188 652.882812 443.324219 652.980469 442.558594 C 653.054688 441.976562 653.117188 441.417969 653.1875 440.851562 C 653.269531 440.179688 653.355469 439.5 653.429688 438.84375 C 653.496094 438.269531 653.554688 437.714844 653.613281 437.152344 C 653.671875 436.597656 653.738281 436.035156 653.792969 435.488281 C 653.839844 435.304688 653.871094 435.121094 653.886719 434.929688 C 654.101562 432.492188 654.3125 430.054688 654.484375 427.660156 C 654.980469 421.546875 655.257812 415.09375 655.300781 408.453125 L 655.300781 405.820312 C 655.300781 405.816406 655.300781 405.808594 655.300781 405.800781 C 655.300781 405.792969 655.300781 405.785156 655.300781 405.777344 C 655.300781 402.292969 655.214844 398.738281 655.042969 395.25 Z M 168.761719 467.855469 C 168.503906 466.695312 168.253906 465.535156 168.011719 464.386719 C 210.660156 522.042969 268.074219 599.621094 296.980469 638.671875 L 263.183594 638.964844 C 213.617188 583.6875 181.847656 526.125 168.761719 467.855469 Z M 184.238281 298.382812 C 191.191406 301.417969 197.515625 305.691406 203.113281 311.144531 C 207.867188 315.785156 211.882812 321.15625 215.066406 327.152344 C 218.09375 334.941406 320.667969 605.84375 332.980469 638.359375 L 306.042969 638.59375 C 276.464844 598.632812 209.804688 508.566406 165.078125 448.09375 C 163.90625 440.507812 163.054688 432.613281 162.519531 424.589844 C 182.90625 434.539062 205.417969 435.089844 210.082031 435.089844 L 210.703125 435.085938 C 212 435.058594 213.191406 434.347656 213.824219 433.214844 C 215.082031 430.976562 244.253906 377.972656 213.300781 343.0625 C 204.847656 333.503906 192.167969 326.300781 175.582031 321.621094 C 178.117188 313.871094 181 306.085938 184.238281 298.382812 Z M 476.90625 430.132812 C 475.792969 424.3125 472.066406 413.019531 459.679688 404.394531 C 459.703125 404.171875 459.722656 403.949219 459.746094 403.726562 C 460.40625 402.351562 460.785156 400.808594 460.785156 399.167969 C 460.785156 398.269531 460.664062 397.402344 460.453125 396.570312 C 460.660156 394.484375 460.863281 392.410156 461.066406 390.355469 C 462.554688 391.058594 464.203125 391.460938 465.941406 391.460938 C 466.511719 391.460938 467.070312 391.40625 467.621094 391.324219 C 481.390625 407.867188 481.066406 424.296875 480.429688 430.003906 C 479.257812 430.019531 478.082031 430.058594 476.90625 430.132812 Z M 420.300781 522.304688 L 405.257812 529.199219 L 410.851562 516.679688 Z M 405.523438 510.640625 L 394.597656 535.085938 C 393.976562 536.480469 394.28125 538.113281 395.367188 539.1875 C 396.066406 539.882812 397 540.246094 397.945312 540.246094 C 398.460938 540.246094 398.980469 540.136719 399.472656 539.914062 L 429.128906 526.320312 C 429.359375 526.328125 429.589844 526.324219 429.824219 526.289062 L 440.40625 524.65625 C 435.617188 573.003906 431.414062 615.402344 429.21875 637.523438 L 374.472656 638 C 367.171875 568.785156 336.453125 277.433594 335.660156 269.257812 C 336.207031 232 365.195312 201.71875 400.359375 201.71875 C 400.691406 201.71875 401.03125 201.722656 401.367188 201.726562 C 437.117188 202.308594 465.828125 233.574219 465.421875 271.460938 C 465.195312 274.035156 460.921875 317.347656 455.324219 373.957031 C 454.582031 375.558594 454.152344 377.34375 454.152344 379.238281 C 454.152344 380.253906 454.285156 381.234375 454.511719 382.175781 C 454.277344 384.542969 454.039062 386.925781 453.804688 389.332031 C 452.859375 389.023438 451.855469 388.855469 450.8125 388.855469 C 445.316406 388.855469 440.839844 393.484375 440.839844 399.167969 C 440.839844 404.855469 445.316406 409.480469 450.8125 409.480469 C 451.152344 409.480469 451.484375 409.460938 451.816406 409.429688 C 451.726562 410.308594 451.640625 411.191406 451.550781 412.078125 C 445.585938 407.765625 437.394531 403.960938 426.199219 401.851562 C 425.574219 395.261719 420.210938 390.09375 413.699219 390.09375 C 406.773438 390.09375 401.140625 395.945312 401.140625 403.132812 C 401.140625 410.320312 406.773438 416.171875 413.699219 416.171875 C 418.570312 416.171875 422.796875 413.269531 424.878906 409.050781 C 437.339844 411.414062 445.441406 416.046875 450.6875 420.835938 C 450.144531 426.300781 449.597656 431.816406 449.050781 437.359375 C 444.4375 439.539062 440.015625 442.160156 435.921875 445.21875 C 431.832031 448.207031 427.941406 451.726562 424.351562 455.675781 C 405.398438 476.542969 405.355469 505.320312 405.523438 510.640625 Z M 447.886719 523.503906 L 471.910156 519.804688 C 474.304688 525.585938 479.863281 541.132812 479.539062 560.175781 C 479.027344 590.230469 464.699219 615.042969 436.933594 634.03125 C 440.300781 600.035156 444.082031 561.914062 447.886719 523.503906 Z M 340.792969 638.292969 C 222.035156 324.632812 221.773438 324.152344 221.640625 323.90625 C 218.28125 317.53125 214.039062 311.757812 209 306.675781 C 200.757812 271.238281 220.183594 235.480469 253.53125 225.910156 C 259.046875 224.328125 264.734375 223.523438 270.4375 223.523438 C 294.925781 223.523438 317.339844 238.039062 328.992188 260.179688 C 328.605469 263.1875 328.367188 266.246094 328.328125 269.351562 C 328.324219 269.644531 328.320312 270.261719 367.105469 638.0625 Z M 448.171875 399.167969 C 448.171875 397.523438 449.355469 396.1875 450.8125 396.1875 C 452.269531 396.1875 453.457031 397.523438 453.457031 399.167969 C 453.457031 400.8125 452.269531 402.152344 450.8125 402.152344 C 449.355469 402.152344 448.171875 400.8125 448.171875 399.167969 Z M 461.480469 379.238281 C 461.480469 376.535156 463.480469 374.339844 465.941406 374.339844 C 468.398438 374.339844 470.398438 376.535156 470.398438 379.238281 C 470.398438 381.9375 468.398438 384.132812 465.941406 384.132812 C 463.480469 384.132812 461.480469 381.9375 461.480469 379.238281 Z M 418.933594 403.132812 C 418.933594 406.28125 416.585938 408.839844 413.699219 408.839844 C 410.816406 408.839844 408.472656 406.28125 408.472656 403.132812 C 408.472656 399.984375 410.816406 397.425781 413.699219 397.425781 C 416.585938 397.425781 418.933594 399.984375 418.933594 403.132812 Z M 457.25 428.9375 C 458.226562 430.632812 458.878906 432.152344 459.316406 433.367188 C 458.449219 433.632812 457.589844 433.921875 456.726562 434.21875 C 456.902344 432.453125 457.078125 430.691406 457.25 428.9375 Z M 458.324219 418.089844 C 458.492188 416.386719 458.660156 414.695312 458.828125 413.011719 C 466.207031 419.460938 468.742188 426.832031 469.605469 430.945312 C 468.542969 431.121094 467.484375 431.320312 466.429688 431.535156 C 465.324219 428.265625 463.015625 423.207031 458.324219 418.089844 Z M 474.265625 387.882812 C 476.402344 385.667969 477.726562 382.609375 477.726562 379.238281 C 477.726562 372.496094 472.441406 367.007812 465.941406 367.007812 C 465.046875 367.007812 464.183594 367.121094 463.347656 367.316406 C 468.878906 311.332031 472.742188 272.113281 472.75 271.667969 C 472.785156 268.722656 472.644531 265.816406 472.367188 262.953125 C 482.605469 236.722656 507.175781 218.929688 534.285156 218.929688 C 539.988281 218.929688 545.675781 219.734375 551.191406 221.316406 C 584.289062 230.8125 603.664062 266.105469 595.894531 301.285156 C 590.582031 306.46875 586.085938 312.5 582.550781 319.242188 L 582.566406 319.253906 C 581.882812 320.789062 578.3125 330.203125 549.703125 405.679688 L 531.941406 452.542969 C 530.886719 451.34375 529.792969 450.160156 528.636719 449.003906 C 517.699219 438.183594 503.367188 431.660156 487.761719 430.265625 C 488.453125 423.058594 488.292969 405.527344 474.265625 387.882812 Z M 162.023438 414.105469 C 162.003906 413.441406 161.992188 412.78125 161.980469 412.128906 C 161.976562 411.777344 161.96875 411.425781 161.964844 411.082031 C 162.957031 411.550781 163.957031 411.992188 164.976562 412.371094 C 169.167969 413.933594 173.59375 414.726562 178.128906 414.726562 C 183.511719 414.726562 188.703125 413.613281 193.566406 411.414062 C 193.664062 411.378906 193.765625 411.335938 193.859375 411.292969 C 200.035156 408.433594 205.34375 403.957031 209.207031 398.347656 C 209.28125 398.238281 209.351562 398.121094 209.414062 398.003906 C 213.703125 391.734375 215.964844 384.371094 215.964844 376.671875 C 215.964844 376.121094 215.960938 375.554688 215.921875 374.988281 C 215.917969 374.964844 215.917969 374.9375 215.917969 374.914062 C 215.472656 364.714844 210.859375 355.027344 203.25 348.269531 C 203.15625 348.167969 203.058594 348.070312 202.953125 347.976562 C 199.203125 344.710938 194.945312 342.246094 190.289062 340.660156 C 187.96875 339.867188 185.523438 339.296875 183.046875 338.960938 C 181.511719 338.742188 179.859375 338.628906 178.128906 338.628906 C 175.53125 338.628906 172.964844 338.902344 170.449219 339.417969 C 170.609375 338.792969 170.746094 338.179688 170.910156 337.554688 C 171.027344 337.101562 171.140625 336.65625 171.261719 336.203125 C 171.886719 333.851562 172.546875 331.484375 173.246094 329.105469 C 173.296875 328.941406 173.347656 328.777344 173.394531 328.613281 C 188.699219 332.902344 200.269531 339.390625 207.8125 347.921875 C 232.261719 375.496094 213.136719 418.269531 208.414062 427.734375 C 201.886719 427.558594 180.105469 426.199219 162.082031 416.09375 C 162.074219 415.8125 162.0625 415.527344 162.054688 415.25 C 162.042969 414.867188 162.03125 414.484375 162.023438 414.105469 Z M 167.621094 351.464844 C 167.734375 350.910156 167.863281 350.339844 167.988281 349.78125 C 168.148438 349.03125 168.324219 348.273438 168.496094 347.511719 C 171.597656 346.480469 174.832031 345.960938 178.128906 345.960938 C 179.511719 345.960938 180.816406 346.046875 182.035156 346.21875 C 184.070312 346.496094 186.054688 346.960938 187.925781 347.597656 C 191.558594 348.835938 194.898438 350.742188 197.859375 353.265625 C 197.949219 353.359375 198.042969 353.449219 198.140625 353.535156 C 204.417969 358.992188 208.230469 366.902344 208.589844 375.148438 C 208.589844 375.253906 208.59375 375.355469 208.605469 375.460938 C 208.640625 375.871094 208.636719 376.277344 208.636719 376.671875 C 208.636719 382.992188 206.75 389.027344 203.183594 394.125 C 203.105469 394.238281 203.03125 394.359375 202.964844 394.480469 C 199.914062 398.800781 195.792969 402.269531 191.015625 404.53125 C 190.929688 404.566406 190.839844 404.601562 190.757812 404.640625 C 186.789062 406.46875 182.542969 407.398438 178.128906 407.398438 C 174.472656 407.398438 170.90625 406.757812 167.523438 405.496094 C 165.628906 404.796875 163.78125 403.886719 162.011719 402.777344 C 162.023438 402.039062 162.035156 401.296875 162.054688 400.558594 C 162.074219 399.671875 162.09375 398.785156 162.121094 397.902344 C 162.15625 396.800781 162.207031 395.699219 162.257812 394.601562 C 162.296875 393.726562 162.332031 392.851562 162.382812 391.976562 C 162.398438 391.703125 162.417969 391.429688 162.433594 391.15625 C 166.457031 395.839844 172.390625 398.816406 179.015625 398.816406 C 191.101562 398.816406 200.929688 388.941406 200.929688 376.800781 C 200.929688 364.660156 191.101562 354.78125 179.015625 354.78125 C 174.226562 354.78125 169.804688 356.351562 166.195312 358.980469 C 166.351562 358.082031 166.496094 357.179688 166.664062 356.285156 C 166.957031 354.6875 167.28125 353.082031 167.621094 351.464844 Z M 164.425781 376.800781 C 164.425781 368.699219 170.972656 362.109375 179.015625 362.109375 C 187.058594 362.109375 193.601562 368.699219 193.601562 376.800781 C 193.601562 384.898438 187.058594 391.488281 179.015625 391.488281 C 170.972656 391.488281 164.425781 384.898438 164.425781 376.800781 Z M 556.480469 572.121094 C 584.96875 532.222656 618.34375 485.515625 644.746094 448.574219 C 644.707031 448.84375 644.664062 449.113281 644.625 449.382812 C 635.949219 504.308594 610.613281 558.742188 569.214844 611.515625 C 565.238281 616.582031 561.105469 621.628906 556.835938 626.664062 Z M 647.175781 427.101562 C 647.03125 429.160156 646.851562 431.21875 646.671875 433.277344 C 620.964844 469.234375 586.5 517.472656 556.398438 559.621094 L 556.132812 519.335938 C 556.097656 518.042969 555.03125 487.351562 539.167969 462.25 C 538.523438 461.230469 537.875 460.257812 537.214844 459.308594 L 556.558594 408.277344 C 574.121094 361.945312 588.054688 325.179688 589.117188 322.503906 C 592.449219 316.1875 596.699219 310.570312 601.765625 305.789062 C 607.945312 299.886719 615.285156 295.316406 623.148438 292.445312 C 626.15625 299.273438 628.921875 306.238281 631.433594 313.230469 C 615.734375 317.914062 603.660156 324.925781 595.515625 334.117188 C 590.546875 339.734375 586.863281 346.160156 584.5625 353.203125 C 581.035156 363.855469 580.507812 376.121094 582.992188 389.664062 C 583.003906 389.773438 583.015625 389.882812 583.039062 389.992188 C 584.316406 396.976562 586.386719 404.195312 589.183594 411.449219 C 589.214844 411.566406 589.253906 411.675781 589.296875 411.789062 C 592.277344 419.347656 594.90625 424.074219 595.019531 424.273438 C 595.65625 425.414062 596.859375 426.128906 598.167969 426.148438 L 598.542969 426.148438 C 599.617188 426.148438 602.546875 426.113281 606.730469 425.808594 C 606.792969 425.804688 606.855469 425.800781 606.917969 425.796875 C 617.878906 424.875 633.535156 422.195312 647.84375 414.792969 C 647.71875 419 647.5 423.121094 647.175781 427.101562 Z M 639.765625 340.550781 C 640.015625 341.535156 640.253906 342.511719 640.488281 343.488281 C 640.648438 344.144531 640.8125 344.804688 640.964844 345.460938 C 641.09375 346.015625 641.210938 346.5625 641.335938 347.113281 C 638.347656 345.625 635.035156 344.796875 631.625 344.796875 C 625.535156 344.796875 619.703125 347.355469 615.613281 351.824219 C 614.722656 352.726562 613.929688 353.738281 613.285156 354.777344 C 610.960938 358.375 609.730469 362.539062 609.730469 366.816406 C 609.730469 369.609375 610.230469 372.285156 611.199219 374.742188 C 614.429688 383.171875 622.636719 388.839844 631.625 388.839844 C 633.902344 388.839844 636.058594 388.503906 637.925781 387.882812 C 641.328125 386.871094 644.386719 385.015625 646.878906 382.578125 C 646.90625 382.90625 646.945312 383.238281 646.972656 383.566406 C 647.03125 384.261719 647.082031 384.957031 647.136719 385.65625 C 647.222656 386.792969 647.308594 387.929688 647.382812 389.070312 C 647.429688 389.808594 647.46875 390.550781 647.507812 391.292969 C 647.546875 391.996094 647.582031 392.703125 647.613281 393.414062 C 643.664062 395.683594 639.4375 396.996094 635.027344 397.324219 C 634.945312 397.328125 634.859375 397.332031 634.777344 397.34375 C 634.050781 397.414062 633.292969 397.453125 632.515625 397.453125 C 621.710938 397.453125 611.601562 391.605469 606.128906 382.183594 C 603.40625 377.511719 601.964844 372.152344 601.964844 366.691406 C 601.964844 366.191406 601.960938 365.726562 602 365.226562 C 602.003906 365.167969 602.007812 365.097656 602.007812 365.027344 C 602.15625 361.886719 602.832031 358.738281 604.015625 355.660156 C 608.507812 343.882812 619.960938 335.972656 632.515625 335.972656 C 634.675781 335.972656 636.757812 336.191406 638.726562 336.625 C 638.886719 337.214844 639.046875 337.800781 639.199219 338.386719 C 639.390625 339.109375 639.582031 339.832031 639.765625 340.550781 Z M 647.558594 406.605469 C 647.515625 406.628906 647.46875 406.652344 647.425781 406.675781 C 632.78125 415.148438 615.496094 417.710938 606.421875 418.484375 C 606.378906 418.484375 606.339844 418.488281 606.296875 418.488281 C 603.828125 418.671875 601.8125 418.753906 600.421875 418.792969 C 599.460938 416.875 597.898438 413.597656 596.222656 409.371094 C 596.195312 409.269531 596.160156 409.171875 596.121094 409.074219 C 593.46875 402.242188 591.507812 395.460938 590.292969 388.914062 C 590.28125 388.800781 590.265625 388.6875 590.246094 388.574219 C 587.9375 376.164062 588.367188 365.035156 591.527344 355.492188 C 593.515625 349.390625 596.707031 343.835938 601.003906 338.976562 C 608.28125 330.761719 619.316406 324.4375 633.839844 320.152344 C 633.917969 320.398438 634.007812 320.648438 634.085938 320.890625 C 634.253906 321.394531 634.414062 321.894531 634.574219 322.394531 C 634.867188 323.300781 635.152344 324.199219 635.429688 325.09375 C 635.585938 325.597656 635.742188 326.097656 635.894531 326.597656 C 636.128906 327.363281 636.351562 328.125 636.574219 328.882812 C 635.242188 328.738281 633.894531 328.640625 632.515625 328.640625 C 616.941406 328.640625 602.738281 338.449219 597.171875 353.039062 C 595.699219 356.863281 594.863281 360.800781 594.683594 364.742188 C 594.683594 364.757812 594.683594 364.773438 594.683594 364.792969 C 594.640625 365.4375 594.636719 366.039062 594.636719 366.691406 C 594.636719 373.449219 596.421875 380.085938 599.796875 385.871094 C 606.570312 397.535156 619.109375 404.78125 632.515625 404.78125 C 633.488281 404.78125 634.445312 404.738281 635.367188 404.648438 C 635.394531 404.648438 635.421875 404.644531 635.445312 404.644531 C 639.777344 404.335938 643.949219 403.257812 647.917969 401.464844 C 647.945312 402.765625 647.96875 404.0625 647.96875 405.351562 C 647.941406 405.625 647.941406 405.898438 647.972656 406.167969 L 647.972656 406.382812 C 647.835938 406.457031 647.699219 406.53125 647.558594 406.605469 Z M 644.667969 364.621094 C 644.667969 364.640625 644.671875 364.660156 644.675781 364.679688 C 644.976562 366.609375 645.253906 368.570312 645.515625 370.5625 C 645.535156 370.707031 645.558594 370.851562 645.574219 370.996094 C 644.210938 375.703125 640.496094 379.46875 635.722656 380.890625 C 634.492188 381.300781 633.113281 381.511719 631.625 381.511719 C 625.558594 381.511719 620.230469 377.824219 618.03125 372.082031 C 617.386719 370.453125 617.058594 368.679688 617.058594 366.816406 C 617.058594 363.953125 617.882812 361.167969 619.476562 358.699219 C 619.878906 358.050781 620.34375 357.460938 620.859375 356.945312 C 620.902344 356.902344 620.945312 356.859375 620.984375 356.816406 C 623.730469 353.789062 627.507812 352.125 631.625 352.125 C 635.742188 352.125 639.523438 353.789062 642.324219 356.875 C 642.792969 357.375 643.210938 357.890625 643.613281 358.472656 C 643.640625 358.628906 643.667969 358.785156 643.699219 358.941406 C 644.042969 360.828125 644.367188 362.714844 644.667969 364.621094 Z M 604.472656 294.113281 C 608.308594 258.234375 587.277344 224.046875 553.214844 214.273438 C 547.042969 212.5 540.671875 211.601562 534.285156 211.601562 C 514.089844 211.601562 495.175781 220.441406 481.480469 235.003906 C 487.207031 223.09375 496.597656 210.066406 511.488281 204.554688 C 513.386719 203.851562 514.355469 201.742188 513.652344 199.84375 C 512.949219 197.949219 510.84375 196.976562 508.945312 197.679688 C 495.914062 202.503906 486.691406 211.996094 480.230469 222.03125 C 482.296875 182.683594 462.226562 163.023438 461.1875 162.039062 C 459.722656 160.648438 457.417969 160.707031 456.019531 162.167969 C 454.625 163.628906 454.679688 165.945312 456.132812 167.34375 C 457.144531 168.320312 478.332031 189.371094 471.796875 232.40625 C 465.929688 201.65625 448.105469 190.269531 447.171875 189.691406 C 445.445312 188.628906 443.1875 189.167969 442.128906 190.890625 C 441.066406 192.613281 441.601562 194.871094 443.324219 195.933594 C 443.53125 196.058594 460.253906 206.761719 465.046875 236.511719 C 453.300781 211.9375 429.320312 194.851562 401.488281 194.398438 C 372.613281 193.933594 347.355469 211.695312 335.5 237.449219 C 336.921875 222.046875 342.984375 200.53125 364.132812 187.179688 C 365.84375 186.097656 366.355469 183.835938 365.277344 182.125 C 364.195312 180.414062 361.933594 179.902344 360.222656 180.980469 C 343.816406 191.335938 335.558594 206.023438 331.503906 219.746094 C 323.3125 186.066406 303.285156 167.421875 302.234375 166.460938 C 300.738281 165.097656 298.425781 165.207031 297.0625 166.699219 C 295.695312 168.191406 295.800781 170.507812 297.292969 171.875 C 297.539062 172.101562 317.675781 190.949219 324.996094 224.398438 C 313.019531 203.792969 295.933594 194.199219 294.921875 193.644531 C 293.148438 192.671875 290.925781 193.324219 289.953125 195.09375 C 288.976562 196.867188 289.625 199.09375 291.394531 200.070312 C 291.667969 200.21875 314.644531 213.222656 324.65625 241.152344 C 310.867188 225.667969 291.34375 216.195312 270.4375 216.195312 C 264.050781 216.195312 257.683594 217.09375 251.511719 218.863281 C 217.289062 228.683594 196.21875 263.140625 200.304688 299.210938 C 196.191406 296.21875 191.800781 293.691406 187.152344 291.664062 C 245.941406 158.972656 389.230469 63.527344 405.015625 53.308594 C 419.449219 62.722656 560.066406 156.859375 620.101562 285.765625 C 614.589844 287.832031 609.328125 290.660156 604.472656 294.113281 Z M 392.34375 711.988281 C 390.878906 710.589844 388.558594 710.644531 387.160156 712.113281 C 384.03125 715.394531 380.75 717.050781 377.546875 716.980469 C 372.195312 716.898438 368.082031 712.378906 368.054688 712.34375 C 367.398438 711.601562 366.472656 711.152344 365.484375 711.105469 C 364.5 711.042969 363.53125 711.40625 362.804688 712.078125 C 351.859375 722.25 342.394531 712.917969 341.332031 711.800781 C 340.917969 711.355469 340.414062 711.054688 339.878906 710.867188 C 335.347656 707.253906 330.6875 703.4375 325.933594 699.441406 C 329.683594 699.035156 333.714844 697.613281 337.875 694.664062 C 343.832031 699.578125 354.871094 703.8125 367.21875 695.382812 C 370.003906 697.496094 374.921875 700.398438 381.011719 700.496094 C 385.921875 700.570312 390.558594 698.871094 394.886719 695.429688 C 400.71875 699.933594 410.949219 703.632812 421.445312 695.832031 C 424.019531 697.851562 428.304688 700.410156 433.589844 700.519531 C 433.710938 700.523438 433.828125 700.523438 433.945312 700.523438 C 439.222656 700.523438 444.191406 698.121094 448.710938 693.382812 C 450.109375 691.917969 450.054688 689.597656 448.589844 688.199219 C 447.125 686.800781 444.804688 686.855469 443.40625 688.320312 C 440.277344 691.601562 437.019531 693.246094 433.789062 693.191406 C 428.441406 693.109375 424.328125 688.59375 424.296875 688.558594 C 423.644531 687.816406 422.71875 687.371094 421.730469 687.320312 C 420.730469 687.265625 419.777344 687.621094 419.050781 688.296875 C 408.09375 698.476562 398.621094 689.109375 397.585938 688.023438 C 396.910156 687.296875 395.96875 686.875 394.980469 686.855469 C 394 686.824219 393.03125 687.214844 392.328125 687.910156 C 388.753906 691.441406 384.996094 693.167969 381.183594 693.167969 C 374.886719 693.097656 370.078125 688.203125 370.039062 688.164062 C 368.722656 686.777344 366.558594 686.640625 365.070312 687.84375 C 351.625 698.773438 341.9375 688.601562 340.886719 687.421875 C 339.566406 685.898438 337.265625 685.726562 335.734375 687.039062 C 322.667969 698.25 312.839844 687.957031 311.746094 686.730469 C 311.277344 686.195312 310.683594 685.839844 310.050781 685.648438 C 308.121094 683.921875 306.1875 682.164062 304.246094 680.378906 C 308.265625 680.125 312.660156 678.742188 317.234375 675.621094 C 320.019531 677.734375 324.929688 680.636719 331.019531 680.730469 C 335.859375 680.785156 340.570312 679.109375 344.902344 675.664062 C 350.734375 680.167969 360.960938 683.867188 371.460938 676.066406 C 374.035156 678.085938 378.320312 680.644531 383.605469 680.753906 C 383.722656 680.757812 383.84375 680.757812 383.960938 680.757812 C 389.238281 680.757812 394.203125 678.355469 398.726562 673.617188 C 400.121094 672.152344 400.066406 669.832031 398.601562 668.4375 C 397.136719 667.039062 394.820312 667.09375 393.421875 668.558594 C 390.292969 671.839844 387.058594 673.46875 383.804688 673.425781 C 378.457031 673.34375 374.34375 668.828125 374.3125 668.796875 C 373.660156 668.050781 372.734375 667.605469 371.746094 667.554688 C 370.761719 667.5 369.789062 667.855469 369.066406 668.527344 C 358.105469 678.714844 348.632812 669.34375 347.601562 668.257812 C 346.925781 667.53125 345.984375 667.109375 344.996094 667.089844 C 343.960938 667.070312 343.046875 667.449219 342.34375 668.144531 C 338.765625 671.679688 335.054688 673.460938 331.191406 673.402344 C 324.894531 673.332031 320.089844 668.445312 320.054688 668.40625 C 318.738281 667.019531 316.574219 666.878906 315.085938 668.085938 C 301.644531 679.003906 291.964844 668.851562 290.890625 667.644531 C 290.65625 667.371094 290.378906 667.15625 290.085938 666.976562 C 283.097656 660.160156 276.304688 653.234375 269.804688 646.234375 L 432.660156 644.824219 C 433.335938 644.824219 433.996094 644.636719 434.574219 644.285156 C 477.054688 618.320312 486.460938 584.28125 486.867188 560.300781 C 487.304688 534.429688 477.8125 514.945312 477.40625 514.128906 C 476.699219 512.695312 475.144531 511.894531 473.5625 512.132812 L 429.988281 518.847656 L 412.835938 509.101562 C 412.835938 502.132812 414.042969 477.925781 429.777344 460.601562 C 433.035156 457.019531 436.558594 453.832031 440.28125 451.109375 C 444.539062 447.929688 449.144531 445.246094 453.972656 443.136719 C 462.679688 439.320312 472.171875 437.304688 481.421875 437.304688 C 497.523438 437.304688 512.460938 443.308594 523.46875 454.199219 C 525.957031 456.6875 528.199219 459.304688 530.144531 462.003906 C 531.125 463.335938 532.046875 464.695312 532.96875 466.160156 C 547.738281 489.53125 548.800781 519.253906 548.804688 519.464844 L 549.558594 635.074219 C 537.988281 648.113281 525.632812 660.839844 512.8125 672.925781 C 511.234375 674.417969 509.660156 675.894531 508.085938 677.355469 C 459.335938 722.566406 413.796875 750.574219 404.261719 756.25 C 398.636719 752.882812 380.453125 741.671875 356.480469 723.703125 C 359.300781 723.09375 362.238281 721.8125 365.199219 719.613281 C 367.773438 721.636719 372.058594 724.199219 377.347656 724.304688 C 377.464844 724.308594 377.585938 724.3125 377.703125 724.3125 C 382.980469 724.308594 387.945312 721.910156 392.464844 717.171875 C 393.863281 715.707031 393.808594 713.386719 392.34375 711.988281 Z M 392.34375 711.988281 " fill-opacity="1" fill-rule="nonzero"/></g></svg>