<svg xmlns="http://www.w3.org/2000/svg" xmlns:xlink="http://www.w3.org/1999/xlink" width="1080" zoomAndPan="magnify" viewBox="0 0 810 809.999993" height="1080" preserveAspectRatio="xMidYMid meet" version="1.0"><defs><clipPath id="f9426fe364"><path d="M 166 110 L 755.585938 110 L 755.585938 765.5 L 166 765.5 Z M 166 110 " clip-rule="nonzero"/></clipPath><clipPath id="b811f9bf87"><path d="M 46.835938 34.25 L 249 34.25 L 249 248 L 46.835938 248 Z M 46.835938 34.25 " clip-rule="nonzero"/></clipPath><clipPath id="422c9121d2"><path d="M 496 73 L 755.585938 73 L 755.585938 333 L 496 333 Z M 496 73 " clip-rule="nonzero"/></clipPath><clipPath id="ea8e85e31d"><path d="M 89 84 L 693 84 L 693 765.5 L 89 765.5 Z M 89 84 " clip-rule="nonzero"/></clipPath><clipPath id="d6f7393794"><path d="M 178 84 L 755.585938 84 L 755.585938 676 L 178 676 Z M 178 84 " clip-rule="nonzero"/></clipPath><clipPath id="5f6615946b"><path d="M 46.835938 34.25 L 755.585938 34.25 L 755.585938 665 L 46.835938 665 Z M 46.835938 34.25 " clip-rule="nonzero"/></clipPath></defs><g clip-path="url(#f9426fe364)"><path fill="#ffffff" d="M 754.449219 419.539062 L 749.847656 419.367188 L 713.191406 439.652344 C 710.976562 439.652344 707.566406 440.335938 704.5 444.425781 L 698.53125 447.667969 C 698.53125 447.496094 698.53125 447.496094 698.363281 447.324219 C 698.019531 446.984375 697.679688 446.644531 697.167969 446.8125 C 696.828125 446.8125 669.039062 450.222656 662.050781 449.371094 C 653.695312 448.347656 632.214844 464.203125 626.929688 468.464844 C 619.429688 474.601562 616.359375 477.839844 611.757812 486.367188 C 610.222656 489.261719 606.8125 494.378906 603.0625 499.492188 L 594.710938 491.140625 C 594.539062 490.96875 594.199219 490.796875 593.855469 490.796875 C 593.515625 490.796875 593.175781 490.96875 593.003906 491.140625 L 550.894531 534.613281 L 505.207031 404.195312 C 501.457031 392.089844 491.058594 376.917969 477.417969 372.144531 C 476.394531 371.800781 475.203125 371.460938 474.351562 371.292969 L 447.242188 364.472656 L 426.445312 360.378906 L 393.714844 341.117188 C 393.714844 341.117188 393.714844 341.117188 393.542969 341.117188 C 393.714844 340.945312 393.714844 340.773438 393.714844 340.433594 C 393.714844 339.921875 393.714844 339.410156 393.542969 338.898438 C 422.695312 329.695312 451.335938 303.097656 451.335938 303.097656 L 449.972656 287.585938 C 447.585938 262.011719 440.082031 230.816406 433.777344 207.972656 C 433.433594 202.515625 432.582031 196.890625 431.390625 191.09375 C 430.878906 186.148438 430.023438 181.375 428.832031 175.75 C 426.785156 166.542969 421.84375 157.679688 417.410156 149.324219 C 412.296875 140.121094 405.476562 131.253906 397.976562 125.457031 C 394.222656 122.558594 391.15625 120.855469 388.597656 120.003906 C 377.515625 114.71875 363.878906 110.117188 351.773438 110.457031 C 347.34375 110.457031 342.910156 110.796875 338.648438 111.136719 C 338.820312 110.96875 338.820312 110.96875 338.820312 110.96875 L 336.601562 111.308594 C 332.511719 111.820312 328.417969 112.503906 324.328125 113.355469 C 310.007812 116.59375 296.878906 122.730469 284.945312 133.128906 C 278.128906 139.097656 273.011719 146.257812 269.261719 154.097656 C 268.921875 154.953125 268.410156 155.804688 268.070312 156.65625 C 251.875 191.265625 236.1875 244.625 240.109375 326.285156 L 295.175781 338.21875 C 286.652344 345.890625 272.671875 358.675781 270.96875 360.378906 L 199.195312 386.632812 C 198 387.144531 176.519531 398.058594 173.113281 428.914062 C 170.382812 454.996094 165.441406 620.191406 166.121094 634 C 166.632812 646.445312 177.886719 685.996094 199.875 687.363281 C 201.242188 687.363281 202.433594 687.53125 203.628906 687.53125 C 205.84375 687.53125 208.058594 687.363281 210.105469 687.191406 L 186.75 756.578125 C 186.578125 756.917969 186.75 757.257812 186.921875 757.601562 C 187.089844 757.941406 187.433594 758.109375 187.773438 758.28125 C 226.984375 764.761719 253.066406 765.613281 275.398438 765.613281 C 276.082031 765.613281 276.59375 765.101562 276.59375 764.589844 C 277.617188 757.601562 278.46875 751.632812 279.148438 746.347656 C 298.414062 749.417969 324.15625 752.484375 351.605469 752.484375 C 354.503906 752.484375 357.402344 752.484375 360.300781 752.316406 C 394.222656 751.460938 422.355469 747.542969 441.449219 743.960938 C 442.980469 756.40625 443.835938 764.25 444.003906 764.589844 C 444.003906 765.269531 444.6875 765.78125 445.199219 765.78125 C 445.199219 765.78125 445.199219 765.78125 445.367188 765.78125 L 446.5625 765.613281 C 486.453125 762.203125 498.558594 761.179688 528.5625 752.65625 C 528.902344 752.484375 529.246094 752.316406 529.414062 751.972656 C 529.585938 751.632812 529.585938 751.292969 529.414062 750.949219 L 475.542969 635.367188 C 475.714844 633.660156 476.054688 625.648438 476.226562 623.261719 L 478.269531 583.199219 L 479.464844 562.058594 C 482.703125 568.535156 491.058594 585.242188 500.945312 607.40625 C 508.105469 623.433594 522.085938 633.832031 539.304688 635.875 C 541.347656 636.21875 543.394531 636.21875 545.441406 636.21875 C 557.714844 636.21875 569.136719 631.445312 575.617188 623.433594 C 584.992188 611.667969 639.546875 538.363281 640.058594 537.679688 C 640.398438 537.167969 640.398438 536.488281 639.886719 535.976562 L 632.386719 528.472656 L 631.023438 527.109375 C 631.023438 527.109375 630 526.085938 630 526.085938 C 631.191406 524.210938 632.042969 522.679688 632.554688 521.996094 C 633.75 521.65625 638.011719 521.3125 642.101562 520.972656 C 650.96875 520.121094 662.050781 518.925781 666.480469 517.5625 C 668.015625 517.050781 669.039062 516.710938 670.0625 516.539062 C 673.8125 515.519531 674.496094 515.175781 678.414062 510.914062 C 678.757812 510.574219 678.925781 510.234375 679.097656 509.890625 C 686.429688 499.832031 685.40625 491.308594 684.894531 488.921875 C 686.769531 485.683594 687.109375 480.910156 687.109375 479.546875 C 687.28125 479.375 687.449219 479.035156 687.621094 478.523438 C 690.179688 478.011719 702.625 475.453125 705.351562 471.191406 C 707.910156 467.273438 715.75 449.710938 716.773438 445.28125 L 717.625 444.769531 L 753.085938 425.164062 L 755.300781 420.902344 C 755.644531 420.558594 755.132812 419.707031 754.449219 419.539062 Z M 392.007812 343.160156 Z M 409.054688 452.097656 Z M 441.105469 741.574219 C 441.105469 741.574219 441.105469 741.402344 441.105469 741.402344 C 441.105469 741.574219 441.105469 741.574219 441.105469 741.574219 Z M 696.484375 459.429688 C 695.632812 459.601562 693.757812 460.113281 692.054688 460.28125 C 691.882812 460.113281 691.710938 459.941406 691.542969 459.601562 L 698.019531 456.019531 C 697.339844 457.554688 696.65625 458.746094 696.484375 459.429688 Z M 696.484375 459.429688 " fill-opacity="1" fill-rule="nonzero"/></g><g clip-path="url(#b811f9bf87)"><path fill="#ffffff" d="M 198.171875 247.351562 C 198.34375 247.523438 198.511719 247.523438 198.683594 247.523438 C 198.855469 247.523438 199.023438 247.523438 199.195312 247.351562 C 199.535156 247.179688 199.875 247.011719 199.875 246.5 L 211.300781 212.402344 C 234.824219 193.308594 248.121094 165.011719 248.121094 134.835938 C 248.121094 79.429688 202.945312 34.25 147.539062 34.25 C 92.132812 34.25 46.957031 79.429688 46.957031 134.835938 C 46.957031 190.242188 92.132812 235.417969 147.539062 235.417969 C 154.699219 235.417969 161.859375 234.566406 168.847656 233.03125 Z M 198.171875 247.351562 " fill-opacity="1" fill-rule="nonzero"/></g><g clip-path="url(#422c9121d2)"><path fill="#ffffff" d="M 513.390625 332.421875 L 738.425781 332.421875 C 747.628906 332.421875 755.132812 324.921875 755.132812 315.714844 L 755.132812 90.679688 C 755.132812 81.476562 747.628906 73.972656 738.425781 73.972656 L 513.390625 73.972656 C 504.183594 73.972656 496.683594 81.476562 496.683594 90.679688 L 496.683594 315.714844 C 496.683594 324.921875 504.183594 332.421875 513.390625 332.421875 Z M 513.390625 332.421875 " fill-opacity="1" fill-rule="nonzero"/></g><path fill="#ffffff" d="M 742.515625 330.546875 C 742.6875 330.546875 742.855469 330.375 742.855469 330.375 C 742.855469 330.546875 742.6875 330.546875 742.515625 330.546875 Z M 742.515625 330.546875 C 742.003906 330.71875 741.492188 330.886719 740.980469 330.886719 C 741.492188 330.886719 742.003906 330.71875 742.515625 330.546875 Z M 500.261719 323.898438 C 499.921875 323.386719 499.582031 322.703125 499.242188 322.023438 C 499.582031 322.703125 499.921875 323.214844 500.261719 323.898438 Z M 753.765625 315.886719 C 753.765625 322.703125 749.164062 328.5 743.027344 330.546875 L 743.199219 310.769531 L 743.199219 305.828125 C 743.199219 305.65625 743.027344 305.65625 743.027344 305.484375 C 741.492188 281.960938 725.296875 260.820312 701.089844 254.339844 C 693.757812 252.296875 686.597656 250.421875 680.289062 248.886719 C 679.4375 252.125 658.980469 277.867188 633.066406 277.867188 C 631.023438 277.867188 628.976562 277.699219 626.929688 277.355469 C 626.417969 277.1875 625.90625 276.84375 625.90625 276.332031 L 624.371094 263.546875 L 619.769531 274.96875 C 619.597656 275.3125 619.257812 275.652344 618.917969 275.820312 C 617.554688 276.164062 616.359375 276.164062 614.996094 276.164062 C 607.835938 276.164062 601.527344 272.070312 596.242188 263.886719 C 591.640625 256.726562 589.253906 248.714844 588.914062 247.179688 C 588.914062 247.011719 588.914062 246.839844 588.914062 246.671875 C 582.605469 248.035156 576.46875 249.566406 573.398438 250.421875 C 567.261719 252.125 562.148438 253.488281 558.738281 254.851562 C 558.738281 254.851562 558.566406 254.851562 558.566406 254.851562 C 558.226562 255.023438 557.886719 255.195312 557.542969 255.195312 C 551.238281 258.09375 521.0625 273.945312 499.921875 322.023438 C 499.070312 320.148438 498.558594 318.101562 498.558594 315.886719 L 498.558594 90.851562 C 498.558594 82.328125 505.378906 75.507812 513.902344 75.507812 L 738.9375 75.507812 C 747.460938 75.507812 754.277344 82.328125 754.277344 90.851562 Z M 721.886719 91.023438 C 721.886719 94.429688 724.617188 97.328125 728.195312 97.328125 C 731.777344 97.328125 734.503906 94.601562 734.503906 91.023438 C 734.503906 87.441406 731.777344 84.714844 728.195312 84.714844 C 724.785156 84.882812 721.886719 87.613281 721.886719 91.023438 Z M 700.75 91.023438 C 700.75 94.429688 703.476562 97.328125 707.054688 97.328125 C 710.636719 97.328125 713.363281 94.601562 713.363281 91.023438 C 713.363281 87.441406 710.636719 84.714844 707.054688 84.714844 C 703.644531 84.882812 700.75 87.613281 700.75 91.023438 Z M 680.121094 91.023438 C 680.121094 94.429688 682.847656 97.328125 686.429688 97.328125 C 690.007812 97.328125 692.734375 94.601562 692.734375 91.023438 C 692.734375 87.441406 690.007812 84.714844 686.429688 84.714844 C 682.847656 84.714844 680.121094 87.613281 680.121094 91.023438 Z M 502.992188 327.136719 C 501.96875 326.285156 501.117188 325.089844 500.261719 324.066406 C 501.117188 325.261719 501.96875 326.285156 502.992188 327.136719 Z M 391.835938 342.308594 C 391.835938 341.96875 391.835938 341.796875 392.007812 341.457031 L 391.667969 341.457031 L 392.519531 340.433594 C 392.519531 340.433594 391.15625 322.363281 391.328125 322.535156 C 391.328125 322.535156 424.570312 313.667969 427.296875 268.832031 C 428.320312 250.933594 425.59375 223.996094 422.011719 199.105469 C 419.796875 195.527344 418.261719 191.605469 416.898438 187.855469 C 414 179.332031 411.953125 170.292969 407.011719 162.792969 C 408.714844 170.125 410.421875 177.625 409.738281 185.125 C 409.566406 187.171875 409.054688 189.390625 407.691406 190.753906 C 406.328125 192.285156 403.601562 192.628906 402.238281 191.09375 C 404.453125 182.398438 403.261719 173.023438 400.53125 164.5 C 397.804688 155.972656 393.371094 147.960938 388.941406 140.121094 C 391.835938 154.953125 392.347656 170.292969 390.132812 185.296875 C 389.792969 187.511719 389.449219 189.730469 387.917969 191.265625 C 385.871094 193.652344 382.121094 193.992188 378.882812 193.652344 C 375.640625 193.308594 372.234375 192.628906 369.164062 193.820312 C 373.765625 176.945312 374.621094 159.042969 371.890625 141.824219 C 372.234375 153.929688 370.1875 166.203125 366.09375 177.625 C 364.390625 182.398438 362.175781 187.003906 358.765625 190.582031 C 355.183594 194.164062 350.242188 196.550781 345.296875 195.867188 C 352.117188 185.636719 355.695312 173.191406 355.355469 160.746094 C 350.921875 173.703125 346.148438 186.832031 337.964844 197.570312 C 331.148438 206.605469 321.089844 213.765625 310.175781 215.8125 C 308.644531 235.757812 307.449219 249.058594 310.6875 272.414062 C 312.394531 284.6875 321.429688 296.960938 323.644531 309.238281 C 325.179688 318.273438 326.03125 326.796875 325.007812 336.171875 C 325.007812 336.683594 324.839844 337.367188 324.667969 337.878906 L 305.574219 340.265625 L 297.390625 338.558594 L 298.585938 347.253906 L 299.609375 347.765625 L 301.996094 378.109375 C 301.996094 378.960938 303.699219 421.070312 303.699219 473.238281 L 395.246094 477.839844 C 398.828125 478.011719 401.726562 480.910156 401.894531 484.488281 L 412.125 667.585938 C 412.296875 671.847656 408.886719 675.257812 404.625 675.085938 L 290.402344 669.121094 C 288.355469 683.101562 286.992188 692.476562 285.800781 700.148438 C 283.582031 714.640625 282.390625 722.820312 279.492188 744.644531 C 300.628906 748.054688 329.78125 751.460938 360.46875 750.78125 C 394.566406 749.929688 422.523438 746.007812 441.449219 742.425781 C 436.332031 699.808594 425.421875 606.042969 423.886719 570.582031 C 421.84375 524.722656 392.179688 344.183594 391.835938 342.308594 Z M 286.480469 646.617188 C 286.480469 646.617188 286.308594 646.617188 286.480469 646.617188 C 290.230469 644.402344 293.128906 642.695312 294.324219 641.671875 C 295.175781 640.992188 299.4375 636.21875 302.335938 632.808594 C 302.507812 632.636719 302.507812 632.636719 302.675781 632.46875 C 302.847656 632.296875 303.015625 632.125 303.1875 631.957031 C 303.359375 631.785156 303.527344 631.613281 303.699219 631.445312 C 303.699219 631.273438 303.871094 631.273438 303.871094 631.101562 C 304.722656 630.082031 305.402344 629.398438 305.402344 629.398438 C 305.402344 629.398438 310.6875 628.207031 314.949219 626.671875 C 315.804688 626.328125 316.65625 625.988281 317.335938 625.648438 C 318.53125 624.964844 319.554688 624.453125 320.066406 623.773438 C 320.234375 623.601562 320.234375 623.601562 320.234375 623.433594 C 321.257812 621.386719 321.601562 617.292969 318.871094 615.25 C 318.703125 615.078125 318.359375 614.90625 318.019531 614.738281 C 317.167969 614.226562 315.972656 614.054688 314.441406 613.886719 C 313.929688 613.886719 313.417969 613.886719 312.90625 613.886719 C 312.90625 613.886719 314.441406 613.375 316.316406 612.519531 C 316.484375 612.351562 316.828125 612.351562 316.996094 612.179688 C 317.507812 612.007812 317.847656 611.667969 318.359375 611.5 C 318.703125 611.328125 318.871094 611.15625 319.214844 610.988281 C 319.722656 610.644531 320.234375 610.132812 320.746094 609.792969 C 320.917969 609.621094 321.257812 609.28125 321.429688 609.113281 C 321.769531 608.769531 321.941406 608.429688 322.109375 608.089844 C 322.28125 607.746094 322.621094 607.234375 322.621094 606.894531 C 322.792969 606.042969 322.964844 605.191406 322.964844 604.335938 C 322.964844 604.335938 322.964844 604.335938 322.964844 604.167969 C 322.964844 602.972656 322.621094 601.953125 321.769531 601.097656 C 320.40625 599.394531 317.507812 598.199219 312.222656 598.371094 C 310.6875 598.371094 308.984375 598.542969 307.109375 598.882812 C 306.597656 598.882812 306.085938 599.054688 305.402344 599.054688 C 305.234375 599.054688 305.0625 599.054688 304.894531 599.054688 C 304.382812 599.054688 304.039062 599.222656 303.527344 599.222656 C 303.359375 599.222656 303.1875 599.222656 303.1875 599.222656 C 302.675781 599.394531 302.164062 599.394531 301.652344 599.566406 C 301.484375 599.566406 301.484375 599.566406 301.3125 599.566406 C 300.628906 599.734375 300.121094 599.734375 299.4375 599.90625 C 294.835938 600.757812 289.71875 601.953125 284.777344 602.972656 C 284.777344 602.972656 284.777344 602.972656 284.605469 602.972656 C 271.988281 605.871094 260.054688 608.769531 258.011719 608.257812 C 257.160156 608.089844 255.792969 605.53125 258.351562 604.339844 C 259.546875 603.828125 294.492188 590.1875 300.289062 588.652344 C 300.628906 588.652344 300.800781 588.484375 301.140625 588.3125 C 301.140625 588.3125 301.3125 588.3125 301.3125 588.3125 C 301.484375 588.140625 301.824219 587.972656 301.996094 587.972656 C 301.996094 587.972656 301.996094 587.972656 302.164062 587.972656 C 302.335938 587.800781 302.507812 587.628906 302.675781 587.460938 C 302.675781 587.460938 302.675781 587.460938 302.847656 587.289062 C 303.015625 587.121094 303.1875 586.949219 303.359375 586.609375 C 303.359375 586.609375 303.359375 586.4375 303.527344 586.4375 C 303.699219 586.265625 303.871094 586.097656 303.871094 585.753906 C 303.871094 585.753906 303.871094 585.753906 303.871094 585.585938 C 304.039062 585.414062 304.039062 585.074219 304.210938 584.734375 C 304.210938 584.734375 304.210938 584.5625 304.210938 584.5625 C 304.382812 584.050781 304.550781 583.367188 304.550781 582.855469 C 304.550781 582.855469 304.550781 582.6875 304.550781 582.6875 C 304.550781 582.347656 304.550781 582.175781 304.550781 581.835938 C 304.550781 581.492188 304.550781 581.324219 304.550781 580.980469 C 304.550781 580.980469 304.550781 580.980469 304.550781 580.8125 C 304.550781 580.46875 304.382812 580.300781 304.382812 579.960938 C 304.382812 579.960938 304.382812 579.960938 304.382812 579.789062 C 304.210938 579.449219 304.210938 579.277344 304.039062 578.9375 C 303.871094 578.59375 303.699219 578.425781 303.527344 578.253906 C 303.527344 578.253906 303.527344 578.253906 303.527344 578.082031 C 303.1875 577.574219 302.675781 577.230469 302.164062 576.890625 C 302.164062 576.890625 302.164062 576.890625 301.996094 576.890625 C 300.460938 575.867188 298.074219 575.695312 294.664062 576.550781 C 282.046875 579.789062 240.792969 589.675781 240.792969 589.675781 L 237.554688 590.015625 C 237.554688 590.015625 228.6875 590.527344 220.847656 603.65625 L 205.84375 613.203125 C 205.84375 613.203125 192.714844 633.832031 205.84375 653.265625 C 218.96875 672.53125 234.824219 656.164062 234.824219 656.164062 C 234.824219 656.164062 250.679688 664.007812 255.113281 662.640625 C 258.523438 661.960938 275.742188 652.753906 286.480469 646.617188 C 286.308594 646.617188 286.480469 646.617188 286.480469 646.617188 Z M 210.277344 211.722656 L 198.683594 246.160156 L 169.019531 231.839844 C 162.03125 233.371094 154.871094 234.226562 147.539062 234.226562 C 92.644531 234.226562 48.320312 189.730469 48.320312 134.835938 C 48.320312 79.941406 92.644531 35.617188 147.539062 35.617188 C 202.433594 35.617188 246.929688 80.109375 246.929688 135.003906 C 246.929688 165.863281 232.609375 193.652344 210.277344 211.722656 Z M 116.511719 134.324219 C 116.511719 126.992188 110.546875 121.027344 103.214844 121.027344 C 95.882812 121.027344 89.917969 126.992188 89.917969 134.324219 C 89.917969 141.652344 95.882812 147.621094 103.214844 147.621094 C 110.546875 147.792969 116.511719 141.824219 116.511719 134.324219 Z M 160.324219 134.324219 C 160.324219 126.992188 154.359375 121.027344 147.027344 121.027344 C 139.699219 121.027344 133.730469 126.992188 133.730469 134.324219 C 133.730469 141.652344 139.699219 147.621094 147.027344 147.621094 C 154.359375 147.792969 160.324219 141.824219 160.324219 134.324219 Z M 205.332031 134.324219 C 205.332031 126.992188 199.367188 121.027344 192.035156 121.027344 C 184.703125 121.027344 178.738281 126.992188 178.738281 134.324219 C 178.738281 141.652344 184.703125 147.621094 192.035156 147.621094 C 199.367188 147.792969 205.332031 141.824219 205.332031 134.324219 Z M 714.726562 441.1875 C 714.726562 441.1875 708.929688 438.972656 704.5 446.644531 C 699.894531 454.316406 697.339844 460.28125 697.339844 460.28125 C 696.828125 460.621094 692.054688 461.476562 692.054688 461.476562 L 691.710938 461.988281 C 691.03125 460.792969 690.007812 459.601562 688.132812 458.066406 C 687.109375 457.214844 685.574219 456.53125 683.699219 455.847656 L 697.167969 448.347656 L 697.339844 448.007812 C 697.339844 448.007812 669.039062 451.417969 661.878906 450.566406 C 654.71875 449.710938 634.941406 463.691406 627.78125 469.488281 C 620.621094 475.285156 617.554688 478.523438 612.949219 487.046875 C 611.246094 490.117188 607.835938 495.230469 604.085938 500.515625 L 628.976562 525.40625 C 630.511719 523.019531 631.53125 521.484375 631.53125 521.3125 C 631.875 520.632812 658.808594 518.925781 665.96875 516.710938 C 673.128906 514.496094 672.449219 515.519531 677.390625 510.402344 C 677.5625 510.234375 677.734375 509.890625 678.074219 509.550781 C 686.257812 498.46875 683.53125 489.261719 683.53125 489.261719 C 685.917969 485.683594 685.746094 479.886719 685.746094 479.886719 C 685.746094 479.886719 686.257812 479.035156 686.9375 477.839844 L 686.9375 478.011719 C 686.9375 478.011719 701.429688 475.285156 704.15625 471.191406 C 706.886719 466.929688 715.070312 448.347656 715.410156 445.28125 C 715.75 442.210938 714.726562 441.1875 714.726562 441.1875 Z M 714.726562 441.1875 " fill-opacity="1" fill-rule="nonzero"/><g clip-path="url(#ea8e85e31d)"><path fill="#5d5d89" d="M 639.886719 536.144531 L 594.710938 491.140625 C 594.539062 490.96875 594.199219 490.796875 593.855469 490.796875 C 593.515625 490.796875 593.175781 490.96875 593.003906 491.140625 L 550.894531 534.613281 L 505.207031 404.195312 C 501.457031 392.089844 491.058594 376.917969 477.417969 372.144531 C 476.394531 371.800781 475.203125 371.460938 474.351562 371.292969 L 447.242188 364.472656 L 426.445312 360.378906 L 393.714844 341.117188 C 393.203125 340.945312 392.691406 340.945312 392.347656 341.117188 C 392.007812 341.457031 391.667969 341.96875 391.835938 342.308594 C 392.179688 344.183594 421.84375 524.722656 423.886719 570.921875 C 424.742188 591.039062 428.660156 629.910156 432.753906 667.585938 L 410.421875 672.871094 C 409.054688 674.574219 407.011719 675.429688 404.625 675.429688 L 400.703125 675.257812 L 368.992188 682.757812 L 289.71875 673.894531 C 289.890625 672.53125 290.0625 670.996094 290.402344 669.460938 L 254.941406 667.585938 C 251.703125 667.414062 248.976562 665.027344 248.292969 661.789062 C 246.417969 661.109375 244.203125 660.425781 242.328125 659.574219 C 241.816406 659.402344 241.304688 659.234375 240.792969 658.890625 C 237.894531 657.699219 235.507812 656.503906 234.996094 656.335938 C 234.824219 656.335938 234.824219 656.335938 234.824219 656.335938 C 234.824219 656.335938 234.65625 656.503906 234.65625 656.503906 C 234.484375 656.675781 234.484375 656.675781 234.3125 656.847656 C 234.144531 657.015625 233.972656 657.015625 233.800781 657.1875 C 233.800781 657.1875 233.632812 657.1875 233.632812 657.355469 C 233.460938 657.527344 233.289062 657.699219 232.949219 657.867188 C 232.78125 658.039062 232.4375 658.210938 232.097656 658.378906 C 232.097656 658.378906 231.925781 658.378906 231.925781 658.550781 C 231.757812 658.722656 231.414062 658.890625 231.074219 659.0625 C 231.074219 659.0625 230.902344 659.0625 230.902344 659.234375 C 230.222656 659.574219 229.539062 660.085938 228.859375 660.425781 C 228.859375 660.425781 228.6875 660.425781 228.6875 660.597656 C 228.347656 660.765625 228.007812 660.9375 227.664062 661.109375 C 227.664062 661.109375 227.496094 661.109375 227.496094 661.109375 C 227.152344 661.277344 226.640625 661.449219 226.128906 661.621094 C 226.128906 661.621094 226.128906 661.621094 225.960938 661.621094 C 225.621094 661.789062 225.109375 661.960938 224.765625 661.960938 C 224.597656 661.960938 224.597656 661.960938 224.425781 661.960938 C 223.574219 662.128906 222.550781 662.300781 221.527344 662.472656 C 221.355469 662.472656 221.355469 662.472656 221.1875 662.472656 C 220.847656 662.472656 220.335938 662.472656 219.992188 662.472656 C 219.824219 662.472656 219.824219 662.472656 219.652344 662.472656 C 219.140625 662.472656 218.628906 662.472656 218.117188 662.300781 C 214.027344 661.621094 209.765625 659.0625 205.671875 653.09375 C 192.546875 633.832031 205.671875 613.03125 205.671875 613.03125 L 220.675781 603.484375 C 221.1875 602.804688 221.527344 602.121094 222.039062 601.441406 C 222.210938 601.269531 222.210938 601.097656 222.378906 600.929688 C 222.722656 600.417969 223.234375 599.734375 223.574219 599.222656 C 223.574219 599.222656 223.574219 599.054688 223.742188 599.054688 C 224.253906 598.542969 224.597656 598.03125 225.109375 597.519531 C 225.277344 597.347656 225.277344 597.347656 225.449219 597.175781 C 225.789062 596.667969 226.300781 596.324219 226.640625 595.984375 C 226.640625 595.984375 226.8125 595.8125 226.8125 595.8125 C 227.324219 595.472656 227.664062 594.960938 228.007812 594.621094 C 228.175781 594.449219 228.175781 594.449219 228.347656 594.28125 C 228.6875 593.9375 229.027344 593.769531 229.371094 593.425781 C 229.371094 593.425781 229.539062 593.257812 229.539062 593.257812 C 229.882812 592.914062 230.394531 592.746094 230.734375 592.402344 C 230.902344 592.402344 230.902344 592.234375 231.074219 592.234375 C 231.414062 592.0625 231.585938 591.894531 231.925781 591.722656 C 232.097656 591.722656 232.097656 591.550781 232.269531 591.550781 C 232.609375 591.382812 232.949219 591.210938 233.289062 591.039062 C 233.460938 591.039062 233.460938 590.871094 233.632812 590.871094 C 233.800781 590.871094 233.972656 590.699219 234.144531 590.699219 C 234.3125 590.699219 234.484375 590.527344 234.484375 590.527344 C 236.359375 589.847656 237.554688 589.675781 237.554688 589.675781 L 240.792969 589.335938 C 240.792969 589.335938 245.90625 588.140625 253.066406 586.4375 C 248.121094 587.628906 244.203125 588.484375 242.328125 588.996094 L 233.289062 477.5 C 232.949219 473.238281 236.53125 469.660156 240.792969 469.828125 L 303.527344 473.066406 C 303.527344 420.902344 301.824219 378.792969 301.824219 377.941406 L 298.585938 337.367188 C 298.585938 336.855469 298.242188 336.511719 297.734375 336.34375 C 297.222656 336.171875 296.710938 336.171875 296.367188 336.511719 C 288.015625 344.015625 272.5 358.164062 270.625 359.867188 L 198.855469 386.121094 C 198 387.144531 176.519531 398.058594 173.113281 428.914062 C 170.382812 454.996094 165.441406 620.191406 166.121094 634 C 166.632812 646.445312 177.886719 685.996094 199.875 687.363281 C 201.242188 687.363281 202.433594 687.53125 203.628906 687.53125 C 205.84375 687.53125 208.058594 687.363281 210.105469 687.191406 L 186.75 756.578125 C 186.578125 756.917969 186.75 757.257812 186.921875 757.601562 C 187.089844 757.941406 187.433594 758.109375 187.773438 758.28125 C 226.984375 764.761719 253.066406 765.613281 275.398438 765.613281 C 276.082031 765.613281 276.59375 765.101562 276.59375 764.589844 C 277.617188 757.601562 278.46875 751.632812 279.148438 746.347656 C 298.414062 749.417969 324.15625 752.484375 351.605469 752.484375 C 354.503906 752.484375 357.402344 752.484375 360.300781 752.316406 C 394.222656 751.460938 422.355469 747.542969 441.449219 743.960938 C 442.980469 756.40625 443.835938 764.25 444.003906 764.589844 C 444.003906 765.269531 444.6875 765.78125 445.199219 765.78125 C 445.199219 765.78125 445.199219 765.78125 445.367188 765.78125 L 446.5625 765.613281 C 486.453125 762.203125 498.558594 761.179688 528.5625 752.65625 C 528.902344 752.484375 529.246094 752.316406 529.414062 751.972656 C 529.585938 751.632812 529.585938 751.292969 529.414062 750.949219 L 475.542969 635.367188 C 475.714844 633.660156 476.054688 625.648438 476.226562 623.261719 L 478.269531 583.199219 L 479.464844 562.058594 C 482.703125 568.535156 491.058594 585.242188 500.945312 607.40625 C 508.105469 623.433594 522.085938 633.832031 539.304688 635.875 C 541.347656 636.046875 543.394531 636.21875 545.441406 636.21875 C 557.714844 636.21875 569.136719 631.445312 575.617188 623.433594 C 584.992188 611.667969 639.546875 538.363281 640.058594 537.679688 C 640.226562 537.339844 640.226562 536.488281 639.886719 536.144531 Z M 360.300781 750.097656 C 329.953125 750.78125 300.628906 747.542969 279.660156 743.960938 C 282.558594 722.992188 283.753906 714.808594 285.96875 700.660156 C 286.992188 694.179688 288.015625 686.679688 289.550781 676.109375 L 368.992188 684.976562 C 369.164062 684.976562 369.335938 684.976562 369.335938 684.976562 L 432.921875 669.972656 C 435.992188 697.25 439.0625 723.675781 441.277344 741.746094 C 422.183594 745.324219 394.222656 749.246094 360.300781 750.097656 Z M 103.042969 121.027344 C 110.375 121.027344 116.339844 126.992188 116.339844 134.324219 C 116.339844 141.652344 110.375 147.621094 103.042969 147.621094 C 95.714844 147.621094 89.746094 141.652344 89.746094 134.324219 C 89.746094 126.992188 95.714844 121.027344 103.042969 121.027344 Z M 686.429688 84.882812 C 689.835938 84.882812 692.734375 87.613281 692.734375 91.191406 C 692.734375 94.773438 690.007812 97.5 686.429688 97.5 C 682.847656 97.5 680.121094 94.773438 680.121094 91.191406 C 680.121094 87.613281 683.019531 84.882812 686.429688 84.882812 Z M 686.429688 84.882812 " fill-opacity="1" fill-rule="nonzero"/></g><g clip-path="url(#d6f7393794)"><path fill="#5d5d89" d="M 728.195312 84.882812 C 731.605469 84.882812 734.503906 87.613281 734.503906 91.191406 C 734.503906 94.773438 731.777344 97.5 728.195312 97.5 C 724.617188 97.5 721.886719 94.773438 721.886719 91.191406 C 721.886719 87.613281 724.785156 84.882812 728.195312 84.882812 Z M 401.726562 485 C 401.554688 481.421875 398.65625 478.523438 395.078125 478.351562 L 240.792969 470.511719 C 236.53125 470.339844 232.949219 473.921875 233.292969 478.183594 L 242.328125 589.675781 C 249.828125 587.800781 283.414062 579.789062 294.664062 576.890625 C 307.28125 573.652344 306.425781 587.289062 300.289062 588.996094 C 294.664062 590.527344 259.375 604.335938 258.179688 604.847656 C 255.625 606.042969 256.988281 608.601562 257.839844 608.769531 C 261.25 609.621094 291.253906 601.269531 306.769531 599.054688 C 322.28125 596.835938 323.476562 602.632812 322.453125 607.066406 C 321.429688 611.496094 312.5625 614.226562 312.5625 614.226562 C 321.601562 613.542969 321.429688 620.535156 319.894531 623.601562 C 318.359375 626.671875 304.894531 629.570312 304.894531 629.570312 C 304.894531 629.570312 295.175781 640.648438 293.8125 641.84375 C 289.378906 645.59375 259.375 661.789062 254.773438 663.152344 C 253.40625 663.664062 250.679688 663.152344 247.78125 662.128906 C 248.464844 665.371094 251.019531 667.757812 254.429688 667.925781 L 404.113281 675.769531 C 408.375 675.941406 411.785156 672.53125 411.613281 668.269531 Z M 698.53125 447.667969 L 704.5 444.425781 C 704.15625 444.9375 703.816406 445.449219 703.476562 445.960938 C 701.089844 449.882812 699.382812 453.460938 698.019531 456.019531 L 691.542969 459.601562 C 690.859375 458.917969 690.007812 458.066406 688.984375 457.042969 C 688.472656 456.53125 687.621094 456.191406 686.769531 455.679688 L 697.851562 449.542969 C 698.019531 449.371094 698.191406 449.371094 698.363281 449.03125 L 698.53125 448.6875 C 698.703125 448.519531 698.703125 448.179688 698.53125 447.667969 Z M 755.300781 421.242188 L 753.085938 425.503906 L 716.773438 445.621094 C 716.773438 445.449219 716.945312 445.28125 716.945312 445.109375 C 717.457031 441.359375 715.75 440.164062 715.410156 439.996094 C 715.410156 439.996094 715.410156 439.996094 715.238281 439.996094 C 715.238281 439.996094 714.386719 439.652344 713.191406 439.652344 L 749.847656 419.367188 L 754.449219 419.539062 C 755.132812 419.707031 755.644531 420.558594 755.300781 421.242188 Z M 192.035156 121.027344 C 199.367188 121.027344 205.332031 126.992188 205.332031 134.324219 C 205.332031 141.652344 199.367188 147.621094 192.035156 147.621094 C 184.703125 147.621094 178.738281 141.652344 178.738281 134.324219 C 178.566406 126.992188 184.535156 121.027344 192.035156 121.027344 Z M 743.199219 305.828125 L 743.199219 310.769531 L 743.027344 330.546875 C 741.664062 331.058594 740.128906 331.226562 738.425781 331.226562 L 513.390625 331.226562 C 507.082031 331.226562 501.796875 327.476562 499.410156 322.023438 C 520.722656 273.945312 550.894531 258.09375 557.03125 255.195312 C 557.375 255.023438 557.714844 254.851562 558.054688 254.851562 C 558.054688 254.851562 558.226562 254.851562 558.226562 254.851562 C 561.636719 253.488281 566.75 252.125 572.886719 250.421875 C 575.957031 249.566406 582.09375 248.035156 588.402344 246.671875 C 588.402344 246.839844 588.402344 247.011719 588.402344 247.179688 C 588.742188 248.714844 591.128906 256.726562 595.730469 263.886719 C 601.015625 271.902344 607.496094 276.164062 614.484375 276.164062 C 615.679688 276.164062 617.042969 275.992188 618.40625 275.824219 C 618.746094 275.652344 619.089844 275.480469 619.257812 274.96875 L 623.863281 263.546875 L 625.394531 276.332031 C 625.394531 276.84375 625.90625 277.355469 626.417969 277.355469 C 628.464844 277.699219 630.511719 277.867188 632.554688 277.867188 C 658.46875 277.867188 678.925781 252.125 679.777344 248.886719 C 686.085938 250.421875 693.417969 252.464844 700.578125 254.339844 C 724.785156 260.992188 740.980469 281.960938 742.515625 305.484375 C 743.027344 305.484375 743.027344 305.65625 743.199219 305.828125 Z M 743.199219 305.828125 " fill-opacity="1" fill-rule="nonzero"/></g><g clip-path="url(#5f6615946b)"><path fill="#000000" d="M 306.769531 597.519531 C 299.265625 598.542969 288.695312 601.097656 279.148438 603.144531 C 270.285156 605.191406 260.226562 607.40625 258.351562 607.234375 C 258.179688 607.066406 258.011719 606.726562 258.179688 606.382812 C 258.179688 606.214844 258.179688 605.871094 258.863281 605.703125 C 260.398438 605.019531 295.175781 591.550781 300.628906 590.015625 C 304.722656 588.824219 306.597656 583.878906 305.574219 580.128906 C 304.722656 576.71875 301.3125 573.652344 294.324219 575.527344 C 281.878906 578.765625 240.960938 588.652344 240.621094 588.652344 L 237.382812 588.996094 C 236.699219 588.996094 227.664062 590.015625 219.824219 602.972656 L 204.992188 612.351562 C 204.820312 612.519531 204.648438 612.519531 204.648438 612.691406 C 204.480469 612.863281 191.183594 634.34375 204.648438 654.117188 C 208.742188 660.253906 213.6875 663.496094 219.140625 664.007812 C 226.640625 664.6875 232.949219 659.742188 234.996094 657.867188 C 238.574219 659.574219 248.632812 664.175781 253.917969 664.175781 C 254.601562 664.175781 255.113281 664.175781 255.453125 664.007812 C 260.054688 662.640625 290.402344 646.277344 294.835938 642.527344 C 296.027344 641.503906 303.871094 632.46875 305.746094 630.421875 C 309.496094 629.570312 319.554688 627.183594 321.257812 623.941406 C 322.28125 621.726562 322.792969 618.316406 321.089844 615.761719 C 320.40625 614.90625 319.554688 613.886719 317.847656 613.203125 C 320.40625 611.839844 323.304688 609.792969 323.816406 607.066406 C 324.496094 603.996094 323.988281 601.609375 322.453125 599.90625 C 319.894531 597.179688 314.78125 596.496094 306.769531 597.519531 Z M 321.257812 606.554688 C 320.578125 609.621094 314.441406 612.007812 312.394531 612.691406 C 311.199219 613.03125 265 623.261719 255.964844 624.113281 C 255.28125 624.113281 254.773438 624.796875 254.773438 625.476562 C 254.773438 626.160156 255.453125 626.671875 255.964844 626.671875 C 255.964844 626.671875 256.136719 626.671875 256.136719 626.671875 C 265.171875 625.820312 309.835938 615.761719 312.734375 615.078125 C 315.632812 614.90625 317.679688 615.589844 318.703125 616.953125 C 319.722656 618.488281 319.554688 621.046875 318.871094 622.578125 C 318.019531 624.113281 311.03125 626.5 304.722656 627.863281 C 304.382812 627.863281 271.136719 635.023438 264.828125 636.046875 C 264.148438 636.21875 263.636719 636.730469 263.808594 637.582031 C 263.976562 638.261719 264.488281 638.605469 265 638.605469 C 265 638.605469 265.171875 638.605469 265.171875 638.605469 C 270.285156 637.753906 292.449219 633.148438 301.484375 631.273438 C 297.902344 635.367188 293.8125 639.796875 293.128906 640.480469 C 288.867188 644.058594 258.863281 660.253906 254.601562 661.449219 C 251.875 662.300781 241.644531 658.210938 235.507812 655.140625 C 235.507812 655.140625 235.507812 655.140625 235.335938 654.96875 C 235.167969 654.800781 216.753906 644.402344 214.707031 621.726562 C 214.707031 621.046875 214.027344 620.535156 213.34375 620.535156 C 212.664062 620.535156 212.152344 621.214844 212.152344 621.898438 C 214.027344 642.015625 227.664062 652.925781 232.4375 655.992188 C 230.222656 657.867188 224.9375 661.449219 219.140625 661.109375 C 214.539062 660.765625 210.277344 657.699219 206.527344 652.242188 C 194.761719 635.023438 204.992188 616.269531 206.355469 613.882812 L 221.1875 604.507812 C 221.355469 604.335938 221.527344 604.335938 221.527344 604.167969 C 228.859375 591.894531 237.210938 591.210938 237.210938 591.039062 L 240.621094 590.699219 C 240.960938 590.527344 281.878906 580.8125 294.492188 577.574219 C 298.925781 576.378906 301.996094 577.402344 302.675781 580.300781 C 303.359375 583.027344 301.824219 586.4375 299.4375 587.121094 C 293.8125 588.652344 258.691406 602.292969 257.160156 602.972656 C 255.625 603.65625 254.773438 605.019531 254.941406 606.382812 C 255.113281 607.746094 255.964844 608.941406 256.988281 609.28125 C 259.035156 609.792969 266.363281 608.089844 279.148438 605.191406 C 288.527344 602.972656 299.265625 600.585938 306.425781 599.5625 C 315.121094 598.371094 318.53125 599.734375 319.894531 601.097656 C 321.601562 602.804688 321.769531 604.335938 321.257812 606.554688 Z M 716.945312 445.109375 C 716.601562 448.519531 708.078125 467.441406 705.523438 471.535156 C 702.792969 475.796875 690.347656 478.351562 687.792969 478.863281 C 687.621094 479.207031 687.28125 479.546875 687.28125 479.886719 C 687.28125 481.25 687.109375 485.855469 685.0625 489.261719 C 685.574219 491.480469 686.597656 500.175781 679.269531 510.234375 C 679.097656 510.574219 678.757812 510.914062 678.585938 511.253906 C 674.496094 515.519531 673.984375 515.6875 670.230469 516.882812 C 669.378906 517.222656 668.1875 517.394531 666.652344 517.90625 C 662.21875 519.269531 651.136719 520.460938 642.273438 521.3125 C 638.183594 521.65625 634.089844 522.167969 632.726562 522.335938 C 632.214844 523.019531 631.363281 524.554688 630.167969 526.429688 L 628.292969 524.554688 C 629.65625 522.335938 630.511719 520.972656 630.679688 520.800781 C 631.191406 519.949219 631.191406 519.949219 641.933594 518.757812 C 650.285156 517.902344 661.707031 516.882812 665.800781 515.515625 C 667.335938 515.007812 668.527344 514.664062 669.378906 514.496094 C 672.789062 513.472656 672.960938 513.472656 676.710938 509.550781 C 676.882812 509.378906 677.050781 509.210938 677.222656 508.867188 C 684.894531 498.300781 682.675781 489.605469 682.675781 489.433594 C 682.507812 489.09375 682.675781 488.753906 682.847656 488.410156 C 684.894531 485.171875 684.894531 479.714844 684.894531 479.714844 C 684.894531 479.546875 684.894531 479.207031 685.0625 479.035156 C 685.0625 479.035156 685.574219 478.183594 686.257812 477.160156 C 687.621094 473.75 687.792969 472.046875 687.621094 471.191406 C 687.109375 467.441406 676.539062 464.714844 671.425781 463.351562 L 670.574219 463.179688 C 663.070312 461.132812 656.59375 461.132812 652.671875 463.007812 C 647.386719 465.394531 647.046875 465.90625 646.875 468.804688 C 646.875 470.167969 649.433594 470.339844 653.523438 470.679688 C 654.890625 470.679688 656.253906 470.851562 657.789062 471.023438 C 663.753906 471.703125 673.472656 474.601562 673.984375 474.601562 C 673.984375 474.601562 673.984375 474.601562 674.152344 474.601562 C 674.152344 474.601562 674.324219 474.601562 674.324219 474.773438 C 674.324219 474.773438 674.496094 474.941406 674.496094 474.941406 C 674.496094 474.941406 674.664062 475.113281 674.664062 475.113281 C 674.664062 475.113281 674.664062 475.285156 674.835938 475.285156 C 674.835938 475.285156 674.835938 475.453125 674.835938 475.453125 C 674.835938 475.453125 674.835938 475.625 674.835938 475.796875 C 674.835938 475.796875 674.835938 475.964844 674.835938 475.964844 C 674.835938 475.964844 674.835938 475.964844 674.835938 476.136719 C 674.835938 476.136719 674.835938 476.136719 674.835938 476.308594 C 674.835938 476.308594 674.835938 476.308594 674.835938 476.476562 C 674.835938 476.648438 674.835938 476.648438 674.664062 476.648438 C 674.664062 476.648438 674.664062 476.820312 674.496094 476.820312 C 674.496094 476.988281 674.324219 476.988281 674.152344 476.988281 C 674.152344 476.988281 674.152344 476.988281 673.984375 476.988281 C 673.8125 476.988281 673.8125 477.160156 673.640625 477.160156 C 673.640625 477.160156 673.472656 477.160156 673.472656 477.160156 C 673.472656 477.160156 673.300781 477.160156 673.300781 477.160156 C 673.128906 477.160156 658.46875 475.453125 651.648438 476.136719 C 646.023438 476.648438 639.375 478.695312 636.988281 479.546875 C 637.160156 481.082031 637.5 483.808594 638.863281 485 C 639.714844 485.683594 640.570312 485.855469 641.933594 485.511719 C 648.410156 484.148438 655.742188 484.660156 657.277344 484.832031 C 658.46875 484.320312 663.582031 482.957031 668.1875 485 C 673.300781 487.21875 680.972656 496.253906 681.3125 496.765625 C 681.824219 497.277344 681.65625 498.128906 681.144531 498.640625 C 680.972656 498.8125 680.632812 498.980469 680.289062 498.980469 C 679.949219 498.980469 679.609375 498.8125 679.269531 498.46875 C 679.269531 498.300781 671.765625 489.433594 667.164062 487.558594 C 662.902344 485.683594 657.957031 487.558594 657.785156 487.558594 L 645.683594 491.992188 C 646.195312 493.867188 647.730469 497.445312 652.332031 497.445312 C 652.332031 497.445312 652.503906 497.445312 652.503906 497.445312 C 658.296875 497.277344 659.664062 496.425781 660.003906 496.253906 C 660.171875 495.914062 660.515625 495.742188 660.855469 495.742188 C 661.195312 495.742188 661.707031 495.742188 661.878906 496.082031 L 666.480469 500.855469 C 666.824219 501.199219 666.992188 501.878906 666.652344 502.390625 L 663.925781 507.847656 C 663.753906 508.359375 663.242188 508.527344 662.730469 508.527344 C 662.558594 508.527344 662.390625 508.527344 662.21875 508.359375 C 661.539062 508.015625 661.367188 507.335938 661.707031 506.652344 L 663.925781 502.050781 L 660.683594 498.640625 C 659.492188 499.320312 656.933594 499.832031 652.503906 500.003906 C 652.332031 500.003906 652.332031 500.003906 652.160156 500.003906 C 645.34375 500.003906 643.125 494.378906 642.785156 491.308594 C 642.785156 490.796875 643.125 490.117188 643.636719 489.945312 L 650.628906 487.386719 C 648.070312 487.386719 645 487.558594 642.101562 488.242188 C 640.058594 488.753906 638.183594 488.410156 636.816406 487.21875 C 633.75 484.660156 633.917969 479.035156 633.917969 478.863281 C 633.917969 478.351562 634.261719 477.839844 634.773438 477.671875 C 635.113281 477.5 643.636719 474.601562 650.96875 473.921875 C 652.332031 473.75 654.035156 473.75 655.910156 473.75 C 654.890625 473.578125 653.867188 473.578125 652.84375 473.578125 C 648.410156 473.410156 643.636719 473.066406 643.808594 469.148438 C 643.976562 464.714844 645.855469 463.519531 650.96875 461.132812 C 656.933594 458.40625 664.949219 459.601562 670.742188 461.132812 L 671.597656 461.304688 C 680.289062 463.691406 688.816406 466.25 689.667969 471.191406 C 689.835938 472.558594 689.667969 474.433594 688.816406 476.820312 C 694.269531 475.625 701.601562 473.410156 703.136719 470.851562 C 705.863281 466.761719 713.875 448.179688 714.214844 445.449219 C 714.386719 443.914062 714.046875 443.234375 713.875 443.0625 C 713.023438 442.894531 708.761719 442.210938 705.351562 448.007812 C 700.917969 455.507812 698.363281 461.476562 698.363281 461.644531 C 698.191406 461.816406 698.019531 462.15625 697.851562 462.328125 C 697.339844 462.667969 695.632812 463.007812 692.566406 463.519531 L 692.394531 463.691406 C 692.054688 464.03125 691.710938 464.203125 691.203125 464.203125 C 690.691406 464.203125 690.347656 463.863281 690.179688 463.519531 C 689.667969 462.5 688.644531 461.476562 686.9375 459.941406 C 686.429688 459.429688 685.234375 458.746094 682.847656 458.066406 C 682.335938 457.894531 681.996094 457.554688 681.996094 457.042969 C 681.996094 456.53125 682.164062 456.019531 682.675781 455.847656 L 691.371094 451.074219 C 682.675781 451.929688 666.824219 453.460938 661.539062 452.953125 C 655.230469 452.097656 636.648438 464.886719 628.464844 471.535156 C 621.304688 477.328125 618.40625 480.398438 613.972656 488.582031 C 612.269531 491.820312 608.6875 496.933594 604.9375 502.390625 L 603.0625 500.515625 C 606.8125 495.402344 610.050781 490.285156 611.757812 487.386719 C 616.359375 478.863281 619.429688 475.625 626.929688 469.488281 C 632.214844 465.226562 653.695312 449.371094 662.050781 450.394531 C 669.039062 451.246094 696.828125 448.007812 697.167969 447.835938 C 697.679688 447.835938 698.191406 448.007812 698.363281 448.347656 C 698.703125 448.6875 698.703125 449.371094 698.363281 449.710938 L 698.191406 450.054688 C 698.019531 450.222656 697.851562 450.394531 697.679688 450.566406 L 686.597656 456.703125 C 687.621094 457.214844 688.304688 457.554688 688.816406 458.066406 C 690.179688 459.257812 691.203125 460.28125 691.882812 461.132812 C 693.589844 460.792969 695.464844 460.453125 696.316406 460.28125 C 696.996094 458.578125 699.554688 453.292969 703.304688 446.984375 C 708.25 438.460938 715.070312 440.847656 715.070312 440.847656 C 715.070312 440.847656 715.070312 440.847656 715.238281 440.847656 C 715.75 440.164062 717.457031 441.359375 716.945312 445.109375 Z M 433.777344 207.800781 C 433.433594 202.34375 432.582031 196.71875 431.390625 190.921875 C 430.878906 185.980469 430.023438 181.207031 428.832031 175.578125 C 426.785156 166.375 421.84375 157.507812 417.410156 149.15625 C 412.296875 139.949219 405.476562 131.085938 397.976562 125.289062 C 394.222656 122.390625 391.15625 120.683594 388.597656 119.832031 C 377.515625 114.546875 363.878906 109.945312 351.773438 110.285156 C 326.375 110.625 304.039062 116.421875 284.945312 133.128906 C 278.128906 139.097656 273.011719 146.257812 269.261719 154.097656 C 268.921875 154.953125 268.410156 155.804688 268.070312 156.65625 C 251.875 191.265625 236.1875 244.625 240.109375 326.285156 L 296.027344 338.386719 L 297.222656 347.59375 C 297.222656 347.933594 297.5625 348.277344 297.902344 348.445312 L 355.867188 382.542969 L 335.75 412.546875 L 303.527344 383.394531 C 303.015625 382.882812 302.164062 382.882812 301.652344 383.566406 C 301.140625 384.078125 301.140625 384.929688 301.824219 385.441406 L 335.066406 415.617188 C 335.238281 415.785156 335.578125 415.957031 335.921875 415.957031 C 335.921875 415.957031 336.089844 415.957031 336.089844 415.957031 C 336.429688 415.957031 336.773438 415.785156 336.941406 415.445312 L 357.742188 384.589844 L 379.5625 412.546875 C 379.902344 412.886719 380.246094 413.058594 380.585938 413.058594 C 380.925781 413.058594 381.4375 412.71875 381.609375 412.378906 L 399.679688 382.371094 C 400.019531 381.691406 399.851562 381.007812 399.167969 380.667969 C 398.488281 380.328125 397.804688 380.496094 397.464844 381.179688 L 380.414062 409.648438 L 359.277344 382.542969 L 393.542969 341.628906 C 393.714844 341.457031 393.882812 341.117188 393.882812 340.773438 C 393.882812 340.265625 393.882812 339.753906 393.714844 339.242188 C 422.863281 330.035156 451.507812 303.441406 451.507812 303.441406 L 450.140625 287.925781 C 447.753906 261.84375 440.253906 230.644531 433.777344 207.800781 Z M 357.230469 380.496094 L 299.609375 346.570312 L 298.585938 338.898438 L 315.972656 342.652344 C 320.234375 343.503906 324.328125 340.605469 324.839844 336.34375 C 325.863281 326.964844 325.007812 318.441406 323.476562 309.40625 C 321.257812 297.132812 312.222656 284.859375 310.519531 272.582031 C 307.109375 249.226562 308.472656 235.929688 310.007812 215.984375 C 320.917969 213.9375 330.976562 206.777344 337.796875 197.742188 C 346.148438 186.832031 350.75 173.703125 355.183594 160.917969 C 355.523438 173.191406 351.945312 185.808594 345.125 196.039062 C 350.070312 196.71875 355.183594 194.332031 358.59375 190.753906 C 362.003906 187.171875 364.21875 182.398438 365.925781 177.796875 C 370.015625 166.375 372.0625 154.097656 371.722656 141.996094 C 374.277344 159.214844 373.425781 177.113281 368.992188 193.992188 C 372.0625 192.796875 375.472656 193.480469 378.710938 193.820312 C 381.949219 194.164062 385.699219 193.820312 387.746094 191.433594 C 389.109375 189.730469 389.621094 187.511719 389.960938 185.46875 C 392.179688 170.464844 391.835938 155.121094 388.769531 140.289062 C 393.203125 148.132812 397.632812 156.144531 400.363281 164.667969 C 403.089844 173.191406 404.28125 182.570312 402.066406 191.265625 C 403.429688 192.796875 406.15625 192.457031 407.523438 190.921875 C 408.886719 189.390625 409.398438 187.34375 409.566406 185.296875 C 410.25 177.796875 408.542969 170.296875 406.839844 162.964844 C 411.785156 170.464844 413.660156 179.5 416.726562 188.023438 C 417.75 190.753906 418.773438 193.480469 420.136719 196.207031 C 423.71875 221.097656 427.128906 250.078125 425.933594 269.171875 C 424.570312 291.847656 415.195312 304.804688 407.523438 311.792969 C 399.679688 318.953125 392.007812 321.339844 390.984375 321.679688 C 389.792969 321.851562 389.960938 322.023438 390.644531 331.910156 L 391.328125 340.265625 Z M 198.855469 247.523438 C 199.023438 247.523438 199.195312 247.523438 199.367188 247.351562 C 199.707031 247.179688 200.046875 247.011719 200.046875 246.5 L 211.46875 212.402344 C 234.824219 193.308594 248.121094 165.011719 248.121094 134.835938 C 248.121094 79.429688 202.945312 34.25 147.539062 34.25 C 92.132812 34.25 46.957031 79.429688 46.957031 134.835938 C 46.957031 190.242188 92.132812 235.417969 147.539062 235.417969 C 154.699219 235.417969 161.859375 234.566406 168.847656 233.03125 L 198.171875 247.179688 C 198.34375 247.351562 198.511719 247.523438 198.855469 247.523438 Z M 169.703125 230.644531 C 169.53125 230.472656 169.359375 230.472656 169.191406 230.472656 C 169.019531 230.472656 169.019531 230.472656 168.847656 230.472656 C 161.859375 232.007812 154.699219 232.859375 147.539062 232.859375 C 93.496094 232.859375 49.511719 188.878906 49.511719 134.835938 C 49.511719 80.792969 93.496094 36.808594 147.539062 36.808594 C 201.582031 36.808594 245.566406 80.792969 245.566406 134.835938 C 245.566406 164.328125 232.4375 192.117188 209.421875 210.871094 C 209.253906 211.039062 209.082031 211.210938 209.082031 211.378906 L 198 244.453125 Z M 621.984375 498.300781 C 621.304688 498.300781 620.621094 497.789062 620.621094 497.105469 C 620.621094 496.425781 621.132812 495.742188 621.816406 495.742188 C 622.667969 495.742188 641.933594 494.378906 652.332031 505.628906 C 652.84375 506.140625 652.84375 506.992188 652.332031 507.503906 C 652.160156 507.675781 651.820312 507.847656 651.480469 507.847656 C 651.136719 507.847656 650.796875 507.675781 650.457031 507.503906 C 640.910156 496.933594 622.328125 498.300781 621.984375 498.300781 Z M 487.476562 442.550781 L 480.488281 558.480469 C 480.488281 559.160156 479.804688 559.671875 479.292969 559.671875 C 478.613281 559.671875 478.101562 558.988281 478.101562 558.308594 L 485.089844 442.382812 C 485.089844 441.699219 485.773438 441.1875 486.453125 441.1875 C 486.964844 441.1875 487.476562 441.871094 487.476562 442.550781 Z M 179.25 599.054688 C 179.078125 599.222656 178.738281 599.394531 178.394531 599.394531 C 178.054688 599.394531 177.714844 599.222656 177.375 598.882812 C 176.863281 598.371094 177.03125 597.519531 177.542969 597.007812 C 177.714844 596.835938 195.445312 581.664062 219.992188 590.1875 C 220.675781 590.359375 221.015625 591.210938 220.847656 591.894531 C 220.675781 592.574219 219.824219 592.914062 219.140625 592.746094 C 196.125 584.5625 179.417969 598.882812 179.25 599.054688 Z M 220.847656 427.207031 L 233.800781 578.765625 C 233.800781 579.449219 233.289062 580.128906 232.609375 580.128906 C 232.609375 580.128906 232.609375 580.128906 232.4375 580.128906 C 231.757812 580.128906 231.246094 579.617188 231.246094 578.9375 L 218.289062 427.378906 C 218.289062 426.699219 218.800781 426.015625 219.480469 426.015625 C 220.335938 426.015625 220.847656 426.527344 220.847656 427.207031 Z M 426.957031 361.0625 C 427.636719 362.253906 442.8125 391.066406 441.957031 404.195312 C 441.957031 404.707031 441.617188 405.046875 441.277344 405.21875 L 431.730469 410.5 L 440.425781 416.808594 C 440.765625 416.980469 440.9375 417.492188 440.9375 417.832031 C 440.765625 421.925781 438.550781 519.78125 428.492188 548.25 C 428.320312 548.761719 427.808594 549.101562 427.296875 549.101562 C 427.128906 549.101562 426.957031 549.101562 426.957031 549.101562 C 426.273438 548.933594 425.933594 548.078125 426.105469 547.398438 C 435.652344 520.632812 438.207031 427.378906 438.378906 418.515625 L 428.660156 411.355469 C 428.320312 411.011719 428.148438 410.671875 428.148438 410.160156 C 428.148438 409.648438 428.492188 409.308594 428.832031 409.136719 L 439.570312 403.171875 C 439.742188 390.554688 424.910156 362.425781 424.742188 362.085938 C 424.398438 361.402344 424.570312 360.722656 425.25 360.378906 C 425.761719 360.039062 426.617188 360.378906 426.957031 361.0625 Z M 372.402344 226.554688 C 374.960938 229.109375 375.128906 236.101562 371.378906 236.441406 C 368.824219 236.78125 367.96875 233.882812 367.628906 231.667969 C 367.289062 230.132812 367.460938 228.429688 368.3125 226.894531 C 368.824219 225.53125 370.1875 224.507812 372.402344 226.554688 Z M 407.351562 220.925781 C 409.910156 223.484375 410.078125 230.472656 406.328125 230.816406 C 403.769531 231.15625 402.917969 228.257812 402.578125 226.042969 C 402.238281 224.507812 402.40625 222.804688 403.261719 221.269531 C 403.769531 220.074219 405.136719 218.882812 407.351562 220.925781 Z M 379.222656 266.273438 C 379.394531 265.59375 380.246094 265.253906 380.925781 265.59375 C 381.097656 265.59375 390.984375 269.34375 396.78125 264.230469 C 398.996094 262.183594 398.316406 248.714844 386.554688 221.269531 C 386.210938 220.585938 386.554688 219.90625 387.234375 219.5625 C 387.917969 219.222656 388.597656 219.5625 388.941406 220.246094 C 388.941406 220.417969 393.03125 230.132812 396.269531 240.363281 C 403.089844 261.84375 399.507812 265.082031 398.488281 266.105469 C 395.589844 268.832031 391.835938 269.515625 388.429688 269.515625 C 383.996094 269.515625 380.074219 268.152344 379.902344 267.980469 C 379.394531 267.640625 379.050781 266.957031 379.222656 266.273438 Z M 390.984375 290.144531 C 384.675781 290.144531 380.074219 287.757812 379.902344 287.757812 C 379.222656 287.414062 379.050781 286.734375 379.394531 286.050781 C 379.734375 285.371094 380.414062 285.199219 381.097656 285.539062 C 381.609375 285.710938 393.03125 291.675781 404.625 282.984375 C 405.136719 282.472656 405.988281 282.640625 406.5 283.152344 C 407.011719 283.664062 406.839844 284.515625 406.328125 285.027344 C 400.875 288.949219 395.589844 290.144531 390.984375 290.144531 Z M 377.175781 211.550781 C 377.007812 212.234375 376.324219 212.574219 375.640625 212.402344 C 361.832031 207.972656 353.992188 216.835938 353.648438 217.347656 C 353.480469 217.6875 352.96875 217.859375 352.628906 217.859375 C 352.285156 217.859375 351.945312 217.6875 351.773438 217.519531 C 351.261719 217.007812 351.261719 216.324219 351.605469 215.644531 C 351.773438 215.472656 360.980469 205.074219 376.324219 210.015625 C 377.007812 210.1875 377.347656 210.871094 377.175781 211.550781 Z M 392.519531 210.699219 C 392.007812 210.1875 392.007812 209.503906 392.347656 208.824219 C 392.691406 208.484375 399.507812 200.640625 411.613281 202.003906 C 412.296875 202.003906 412.808594 202.6875 412.808594 203.367188 C 412.808594 204.050781 412.125 204.5625 411.441406 204.5625 C 400.703125 203.367188 394.734375 210.1875 394.394531 210.527344 C 394.222656 210.871094 393.714844 211.039062 393.371094 211.039062 C 393.03125 211.039062 392.691406 211.039062 392.519531 210.699219 Z M 648.410156 117.957031 C 640.226562 117.957031 632.554688 120.003906 625.90625 123.582031 C 622.839844 122.902344 619.597656 122.902344 616.703125 124.945312 C 611.585938 128.355469 607.835938 137.734375 605.449219 144.722656 C 604.425781 146.9375 603.402344 149.324219 602.722656 151.710938 C 587.890625 187.171875 584.992188 209.503906 593.855469 218.03125 C 597.265625 221.269531 603.746094 223.144531 613.460938 223.824219 C 612.78125 228.429688 612.097656 233.542969 611.585938 237.804688 C 590.449219 242.578125 588.570312 245.136719 588.402344 246.5 C 588.402344 246.671875 588.402344 246.839844 588.402344 247.011719 C 588.742188 248.546875 591.128906 256.558594 595.730469 263.71875 C 601.015625 271.730469 607.496094 275.992188 614.484375 275.992188 C 615.679688 275.992188 617.042969 275.820312 618.40625 275.652344 C 618.746094 275.480469 619.089844 275.3125 619.257812 274.800781 L 623.863281 263.378906 L 625.394531 276.164062 C 625.394531 276.675781 625.90625 277.1875 626.417969 277.1875 C 628.464844 277.527344 630.511719 277.699219 632.554688 277.699219 C 658.46875 277.699219 678.925781 251.953125 679.777344 248.714844 C 679.949219 247.691406 680.460938 245.136719 657.785156 237.632812 C 657.957031 235.078125 658.128906 232.179688 658.46875 229.28125 C 658.808594 223.65625 659.320312 217.6875 659.664062 212.0625 C 680.460938 206.777344 695.976562 188.023438 695.976562 165.691406 C 696.316406 139.4375 674.835938 117.957031 648.410156 117.957031 Z M 617.210938 273.09375 C 599.824219 275.992188 591.980469 250.078125 590.957031 246.839844 C 592.664062 245.476562 602.210938 242.578125 611.074219 240.53125 C 611.246094 251.445312 619.941406 257.238281 623.007812 258.945312 Z M 677.5625 248.375 C 675.515625 251.953125 654.378906 278.207031 628.125 274.800781 L 626.25 259.113281 C 631.191406 258.605469 648.75 255.535156 657.445312 240.191406 C 666.140625 243.089844 675.859375 246.839844 677.5625 248.375 Z M 669.550781 197.230469 C 667.675781 200.46875 663.925781 202.855469 659.664062 203.710938 C 659.152344 203.878906 658.808594 204.21875 658.640625 204.5625 L 657.789062 207.289062 C 657.789062 207.460938 657.789062 207.460938 657.789062 207.628906 C 657.277344 213.9375 656.765625 221.949219 656.253906 229.109375 C 655.910156 232.691406 655.742188 235.757812 655.570312 238.144531 C 646.363281 255.195312 624.882812 256.558594 624.714844 256.558594 C 624.714844 256.558594 624.542969 256.558594 624.542969 256.558594 C 621.984375 255.195312 614.484375 250.421875 613.972656 241.042969 C 614.316406 236.953125 615.167969 230.816406 616.359375 222.632812 C 616.359375 222.292969 616.359375 221.949219 616.019531 221.609375 C 615.679688 221.269531 615.507812 221.097656 615.167969 221.097656 C 605.449219 220.585938 598.972656 218.882812 595.902344 215.984375 C 590.617188 211.039062 587.890625 197.230469 602.039062 160.746094 C 606.644531 161.257812 609.03125 164.328125 609.199219 164.5 C 609.371094 164.839844 609.882812 165.011719 610.222656 165.011719 C 610.5625 165.011719 610.734375 165.011719 610.90625 164.839844 C 611.417969 164.5 611.585938 163.644531 611.246094 162.964844 C 611.074219 162.792969 608.347656 159.214844 603.0625 158.359375 C 603.914062 156.316406 604.769531 154.097656 605.621094 151.882812 L 618.917969 136.710938 C 626.929688 148.304688 641.421875 168.078125 654.71875 180.351562 C 655.058594 180.695312 655.570312 180.695312 655.910156 180.695312 C 658.640625 179.839844 667.675781 178.136719 670.574219 186.832031 C 671.597656 190.753906 671.253906 194.164062 669.550781 197.230469 Z M 620.964844 174.898438 C 622.328125 173.703125 623.007812 174.558594 623.351562 175.410156 C 623.691406 176.261719 623.691406 177.285156 623.519531 178.136719 C 623.179688 179.332031 622.496094 181.035156 621.132812 180.695312 C 619.089844 180.183594 619.429688 176.261719 620.964844 174.898438 Z M 602.210938 176.773438 C 599.996094 176.261719 600.503906 172.339844 602.039062 170.976562 C 603.402344 169.785156 604.085938 170.636719 604.425781 171.488281 C 604.769531 172.339844 604.769531 173.363281 604.597656 174.214844 C 604.257812 175.410156 603.574219 177.113281 602.210938 176.773438 Z M 611.074219 198.59375 C 608.859375 198.59375 606.132812 198.082031 604.257812 196.039062 C 600.503906 192.117188 608.859375 174.898438 611.417969 169.613281 C 611.757812 168.929688 612.4375 168.761719 613.121094 169.101562 C 613.804688 169.441406 613.972656 170.125 613.632812 170.804688 C 608.519531 180.695312 604.257812 192.457031 605.960938 194.332031 C 608.859375 197.402344 614.316406 195.695312 614.316406 195.695312 C 614.996094 195.527344 615.679688 195.867188 615.847656 196.550781 C 616.019531 197.230469 615.679688 197.914062 614.996094 198.082031 C 614.996094 198.082031 613.292969 198.59375 611.074219 198.59375 Z M 624.203125 202.855469 C 624.714844 203.367188 624.714844 204.21875 624.203125 204.730469 C 623.863281 205.074219 618.746094 210.015625 611.417969 210.015625 C 609.710938 210.015625 608.007812 209.675781 606.132812 209.164062 C 605.449219 208.992188 605.109375 208.140625 605.277344 207.460938 C 605.449219 206.777344 606.300781 206.4375 606.984375 206.605469 C 607.835938 206.949219 608.519531 207.117188 609.371094 207.117188 C 614.144531 207.800781 618.066406 205.925781 620.453125 204.390625 C 621.816406 203.539062 622.667969 202.6875 622.667969 202.6875 C 622.839844 202.34375 623.691406 202.34375 624.203125 202.855469 Z M 633.75 168.589844 C 634.089844 169.101562 634.089844 169.953125 633.410156 170.464844 C 633.238281 170.636719 632.898438 170.636719 632.726562 170.636719 C 632.386719 170.636719 631.875 170.464844 631.703125 170.125 C 631.703125 170.125 631.023438 169.273438 630 168.589844 C 628.464844 167.398438 625.90625 166.203125 622.496094 166.375 C 621.644531 166.375 620.792969 166.542969 619.941406 166.714844 C 619.257812 166.886719 618.578125 166.542969 618.40625 165.691406 C 618.234375 165.011719 618.578125 164.328125 619.429688 164.15625 C 628.636719 161.941406 633.578125 168.25 633.75 168.589844 Z M 738.425781 74.144531 L 513.390625 74.144531 C 504.183594 74.144531 496.683594 81.644531 496.683594 90.851562 L 496.683594 315.886719 C 496.683594 325.089844 504.183594 332.59375 513.390625 332.59375 L 738.425781 332.59375 C 747.628906 332.59375 755.132812 325.089844 755.132812 315.886719 L 755.132812 90.851562 C 754.960938 81.644531 747.628906 74.144531 738.425781 74.144531 Z M 513.390625 76.703125 L 738.425781 76.703125 C 746.097656 76.703125 752.574219 83.007812 752.574219 90.851562 L 752.574219 102.785156 L 499.242188 102.785156 L 499.242188 90.851562 C 499.242188 83.007812 505.546875 76.703125 513.390625 76.703125 Z M 738.425781 329.863281 L 513.390625 329.863281 C 505.71875 329.863281 499.242188 323.558594 499.242188 315.714844 L 499.242188 105.171875 L 752.402344 105.171875 L 752.402344 315.714844 C 752.402344 323.558594 746.097656 329.863281 738.425781 329.863281 Z M 343.25 279.574219 C 342.910156 280.253906 342.738281 280.9375 342.570312 281.789062 C 342.570312 282.300781 342.570312 282.640625 342.570312 283.152344 C 333.363281 281.617188 324.839844 277.527344 317.847656 271.21875 C 318.53125 270.367188 319.382812 269.34375 320.066406 268.320312 C 326.542969 274.117188 334.726562 278.039062 343.25 279.574219 Z M 343.25 279.574219 " fill-opacity="1" fill-rule="nonzero"/></g><path fill="#5d5d89" d="M 707.054688 84.882812 C 710.464844 84.882812 713.363281 87.613281 713.363281 91.191406 C 713.363281 94.773438 710.636719 97.5 707.054688 97.5 C 703.476562 97.5 700.75 94.773438 700.75 91.191406 C 700.75 87.613281 703.644531 84.882812 707.054688 84.882812 Z M 338.820312 110.796875 L 324.328125 113.183594 C 278.46875 141.824219 280.683594 204.5625 281.878906 219.734375 C 268.582031 224.507812 259.546875 237.464844 260.398438 252.296875 C 261.421875 270.195312 276.761719 284.003906 294.835938 282.980469 C 312.90625 281.960938 326.542969 266.617188 325.519531 248.546875 C 324.667969 233.542969 313.757812 221.609375 299.777344 218.539062 C 289.550781 142.335938 338.820312 110.796875 338.820312 110.796875 Z M 147.027344 121.027344 C 154.359375 121.027344 160.324219 126.992188 160.324219 134.324219 C 160.324219 141.652344 154.359375 147.621094 147.027344 147.621094 C 139.699219 147.621094 133.730469 141.652344 133.730469 134.324219 C 133.558594 126.992188 139.527344 121.027344 147.027344 121.027344 Z M 357.058594 290.144531 L 349.046875 289.289062 C 345.125 288.949219 342.226562 285.371094 342.738281 281.617188 C 343.082031 277.699219 346.660156 274.800781 350.410156 275.3125 L 358.421875 276.164062 C 362.34375 276.503906 365.242188 280.085938 364.730469 283.835938 C 364.390625 287.757812 360.980469 290.484375 357.058594 290.144531 Z M 357.058594 290.144531 " fill-opacity="1" fill-rule="nonzero"/></svg>